<?xml version="1.0" encoding="UTF-8"?><svg id="Layer_2" xmlns="http://www.w3.org/2000/svg" width="125.51" height="23.79" viewBox="0 0 125.51 23.79"><defs><style>.cls-1{stroke-width:0px;}</style></defs><g id="Layer_1-2"><path class="cls-1" d="m2.29,13.79c0-.78.02-1.57,0-2.35-.02-.45.14-.74.36-.97.29-.29.2-.69.22-1.06.19-.28.44-.53.55-.86.11-.32-.07-.76.23-1.05.15-.14.28-.36.35-.58.07-.22.02-.5.07-.75.02-.11.12-.24.19-.27.76-.27.76-.26.97-.56.2-.28.42-.54.6-.84.22-.35.54-.11.77-.29.23-.18.37-.62.64-.71.27-.08.57-.02.85-.02.09,0,.19,0,.28,0,.39,0,.39,0,.95-.64.04-.05.16-.05.19,0,.48.64.94,1.29,1.41,1.93.07.09.13.18.2.28.13-.18.28-.36.4-.55.18-.28.46-.46.46-.91,0-.39,0-.78,0-1.17,0-.11-.09-.21-.14-.31-.06-.1-.14-.18-.2-.28-.3-.57-.71-.8-1.22-.69-.3.06-.53-.1-.73-.41-.25-.38-.27-.36-.6.08-.07.09-.13.26-.2.26-.66.04-1.32.08-1.98.04-.34-.02-.53.23-.7.53-.22.41-.54.14-.77.29-.24.16-.42.5-.63.76-.72-.2-.94.7-1.36,1.16-.05.05-.02.24-.02.37,0,.13.04.31,0,.38-.25.39-.53.74-.78,1.13-.31.48-.73.82-.93,1.43.08.61-.22.93-.48,1.3-.06.08-.09.23-.08.34.02.29,0,.52-.12.72-.45.76-.47.76-.45,1.7,0,.29-.02.5-.15.7-.18.27-.44.44-.43.93.03,1.3.03,2.61,0,3.92-.01.48.19.73.4.94.36.35,0,1.03.39,1.37.24.2.41.54.61.82.13.18.29.35.4.56.21.42.51.24.78.27.19.02.4-.07.56.02.16.09.27.35.41.53.07.09.14.22.21.22.28.03.57-.01.85.02.34.03.47-.36.67-.61.24-.29.53-.17.8-.18.28,0,.55,0,.75-.37.18-.33.42-.47.73-.43.08,0,.18-.05.24-.13.26-.38.51-.76.95-.64.27-.16.41-.53.64-.72.22-.18.55.06.77-.29.12-.2.24-.46.41-.54.25-.12.56.13.77-.29.1-.21.26-.37.4-.56.07-.09.17-.17.19-.28.04-.24.08-.51.05-.75-.03-.25-.19-.45-.37-.48-.18-.03-.37.02-.54.09-.08.03-.14.17-.2.27-.13.23-.28.45-.44.4-.57-.17-.72.77-1.19.79-.21,0-.37.02-.52.19-.49.6-.5.63-.96.59-.4-.03-.74.03-.99.51-.05.11-.13.26-.2.27-.66.02-1.33.01-1.99.01-.38,0-.76-.03-1.14.01-.22.03-.36-.04-.49-.28-.18-.31-.4-.55-.59-.84-.05-.08-.05-.24-.05-.36,0-1.04,0-2.09,0-3.13Z"/><path class="cls-1" d="m28.03,10.54c0-.91-.02-1.83,0-2.74,0-.3-.04-.48-.2-.68-.49-.62-.94-1.28-1.41-1.93-.27-.37-.54-.73-.8-1.11-.22-.33-.55-.1-.77-.28-.88-.72-.87-.73-1.49-.72-.66.01-1.33.04-1.99-.01-.44-.04-.69.27-.95.65-.05.08-.16.13-.24.14-.28.02-.57,0-.85,0-.5,0-.5,0-1.22.68-.14.13-.34.1-.54.12-.18.02-.34.21-.38.47-.17.9-.17.89-.45,1.31-.25.37-.6.63-.7,1.16.08.62-.25.91-.51,1.27-.02.25-.06.5-.06.75,0,.9,0,.9-.34,1.37-.07.09-.18.17-.19.28-.04.25-.04.51-.04.76,0,1.17.02,2.35-.01,3.52-.01.47.16.73.38.96.29.3.11.74.22,1.05.12.33.37.57.55.87.05.08,0,.25,0,.38,0,.13-.02.3.03.37.46.65.93,1.29,1.4,1.93.27.04.56-.13.77.28.16.3.36.54.7.52.95-.04,1.89-.03,2.84,0,.34,0,.47-.36.67-.61.23-.28.54-.08.77-.28.23-.2.36-.64.65-.67.29-.03.52-.12.73-.42.86-1.21,1.73-2.42,2.62-3.59.25-.33.21-.68.22-1.06,0-.26-.05-.55.02-.77.06-.22.23-.39.36-.58.06-.1.19-.19.19-.28.01-1.04,0-2.08,0-3.13Zm-7.65,9.02c-.19,0-.38-.02-.57,0-.39.05-.71-.05-.99-.49-.44-.68-.92-1.31-1.4-1.93-.16-.2-.23-.37-.23-.65,0-2.08.02-4.16,0-6.23,0-.45.14-.74.36-.96.28-.29.2-.68.22-1.05.19-.28.38-.56.57-.84.2-.28.41-.54.6-.83.14-.22.27-.35.47-.34.57,0,1.13-.03,1.7.01.32.02.51-.2.71-.48.2-.28.4-.55.6-.83.07-.09.13-.25.2-.26.18-.04.38-.01.56-.01.29.28.43.86.9.79.26-.04.26,0,.87.85.27.37.53.73.8,1.1.13.18.26.38.4.55.26.31.14.71.16,1.08.02.25-.03.54.04.75.07.22.25.38.39.56.14.18.17.41.15.7-.02.26-.09.46-.26.64-.23.24-.35.56-.32.99.02.39,0,.78,0,1.17,0,.63,0,.63-.28,1.01-.74,1.01-1.47,2.02-2.21,3.02-.06.08-.16.1-.25.12-.09.02-.19-.02-.28,0-.28.1-.42.49-.64.69-.22.2-.54-.01-.77.28-.2.25-.32.64-.67.6-.28-.03-.57,0-.85,0Z"/><path class="cls-1" d="m33.26,14.51c0-.78.02-1.57,0-2.35-.02-.45.14-.74.36-.97.29-.29.2-.69.22-1.06.19-.28.44-.53.55-.86.11-.32-.07-.76.23-1.05.15-.14.28-.36.35-.58.07-.22.02-.5.07-.75.02-.11.12-.24.19-.27.76-.27.76-.26.97-.56.2-.28.42-.54.6-.84.22-.35.54-.11.77-.29.23-.18.37-.62.64-.71.27-.08.57-.02.85-.02.09,0,.19,0,.28,0,.39,0,.39,0,.95-.64.04-.05.16-.05.19,0,.48.64.94,1.29,1.41,1.93.07.09.13.18.2.28.13-.18.28-.36.4-.55.18-.28.46-.46.46-.91,0-.39,0-.78,0-1.17,0-.11-.09-.21-.14-.31-.06-.1-.14-.18-.2-.28-.3-.57-.71-.8-1.22-.69-.3.06-.53-.1-.73-.41-.25-.38-.27-.36-.6.08-.07.09-.13.26-.2.26-.66.04-1.32.08-1.98.04-.34-.02-.53.23-.7.53-.22.41-.54.14-.77.29-.24.16-.42.5-.63.76-.72-.2-.94.7-1.36,1.16-.05.05-.02.24-.02.37,0,.13.04.31,0,.38-.25.39-.53.74-.78,1.13-.31.48-.73.82-.93,1.43.08.61-.22.93-.48,1.3-.06.08-.09.23-.08.34.02.29,0,.52-.12.72-.45.76-.47.76-.45,1.7,0,.29-.02.5-.15.7-.18.27-.44.44-.43.93.03,1.3.03,2.61,0,3.92-.01.48.19.73.4.94.36.35,0,1.03.39,1.37.24.2.41.54.61.82.13.18.29.35.4.56.21.42.51.24.78.27.19.02.4-.07.56.02.16.09.27.35.41.53.07.09.14.22.21.22.28.03.57-.01.85.02.34.03.47-.36.67-.61.24-.29.53-.17.8-.18.28,0,.55,0,.75-.37.18-.33.42-.47.73-.43.08,0,.18-.05.24-.13.26-.38.51-.76.95-.64.27-.16.41-.53.64-.72.22-.18.55.06.77-.29.12-.2.24-.46.41-.54.25-.12.56.13.77-.29.1-.21.26-.37.4-.56.07-.09.17-.17.19-.28.04-.24.08-.51.05-.75-.03-.25-.19-.45-.37-.48-.18-.03-.37.02-.54.09-.08.03-.14.17-.2.27-.13.23-.28.45-.44.4-.57-.17-.72.77-1.19.79-.21,0-.37.02-.52.19-.49.6-.5.63-.96.59-.4-.03-.74.03-.99.51-.05.11-.13.26-.2.27-.66.02-1.33.01-1.99.01-.38,0-.76-.03-1.14.01-.22.03-.36-.04-.49-.28-.18-.31-.4-.55-.59-.84-.05-.08-.05-.24-.05-.36,0-1.04,0-2.09,0-3.13Z"/><path class="cls-1" d="m48.03,13.61c-2.15,6.32-2.15,6.84-2.15,7.36,0,.73.15.97.61.95.28-.01.56,0,.84-.05.07-.01.17-.16.19-.27.04-.24.06-.5.06-.75,0-1.44.02-2.87,0-4.3,0-.45.13-.74.35-.97.28-.29.21-.68.22-1.05.19-.28.38-.57.58-.85.31-.45.74-.54.97-.22,1.14,1.57,2.28,3.14,3.42,4.7.27.37.56.71.8,1.12.22.39.53.16.76.31.24.15.42.5.63.76.19,0,.38,0,.56-.04.08-.02.17-.16.2-.27.05-.24.07-.49.07-.74,0-.11-.07-.22-.13-.31-.13-.19-.31-.34-.39-.56-.11-.32.05-.76-.21-1.06-.15-.16-.28-.35-.4-.55-.19-.34-.45-.37-.74-.4-.28-.03-.4-.3-.4-.83,0-.28-.07-.46-.23-.66-.3-.37-.28-.39-.34-.97-.05-.51-.16-.64-.54-.65-.38,0-.56-.16-.59-.59-.02-.4-.08-.72-.31-1.01-.34-.44-.39-.98-.15-1.33.2-.28.4-.56.61-.83.06-.08.16-.18.23-.16.44.1.68-.3.94-.67.62-.88.63-.93.86-.9.46.07.63-.46.92-.76.06-.06.18-.03.27-.04.09,0,.23.05.28-.01.42-.51.83-1.04,1.24-1.56.71.18.95-.69,1.35-1.18.23-.27.45-.43.74-.39.41-.28.71-.71.93-1.26-.07-.09-.13-.26-.2-.26-.47-.04-.94,0-1.41-.06-.35-.05-.53.24-.69.54-.22.4-.51.21-.78.27-1.02.77-1.02.79-1.47.77-.2,0-.35.08-.47.33-.11.23-.27.46-.43.44-.44-.06-.68.3-.95.66-.2.27-.55.03-.76.29-.28.35-.54.73-.81,1.1-.2.28-.4.55-.6.83-.07.09-.13.25-.2.26-.19.04-.39-.03-.57.02-.29.09-.35,0-.3-.4.05-.38.04-.78,0-1.17-.03-.31.02-.5.2-.68.15-.15.3-.35.36-.57.06-.23,0-.51.01-.78,0-.26-.03-.54.04-.76.07-.22.26-.37.39-.56.22-.32.17-.7.07-1.06-.08-.28-.26-.34-.47-.32-.28.03-.57,0-.85,0-.2.27-.4.55-.62.79-.25.27-.28.63-.28,1.02,0,.11-.07.23-.12.32-.43.71-.44.71-.44,1.32q0,.86-.36,1.36c-.07.09-.18.17-.19.28-.03.25-.02.52-.02.78,0,.26.05.55-.01.77-.06.22-.24.4-.38.56-.16.18-.2.39-.18.69.03.38,0,.77-.01,1.16-.13.18-.27.37-.4.55-.14.18-.16.41-.15.7.03.89,0,.89-.45,1.7-.05.09-.11.21-.11.32-.01.65,0,1.3,0,1.96,0,.25-.11.46-.28.62-.17.16-.28.37-.28.62,0,.78,0,1.57,2.15-3.45,2.22-5.84,2.35-5.85,2.4-5.79.04.06.04.24,0,.33-.08.24-.21.38-.33.35-.07-.02-.16-.14-.17-.24-.02-.17.09-.34-1.9,5.34Z"/><path class="cls-1" d="m71.84,2.31c-2.18,0-4.37.02-6.55-.02-.35,0-.49.3-.7.54-.07.08-.14.24-.21.25-.85.02-1.71.01-2.56.01-.35,0-.54.23-.55.65,0,.39-.02.79,0,1.17.02.25.17.51.34.52,1.42.03,2.85.01,4.27.02.2,0,.33-.11.47-.34.3-.47.33-.48.6-.07.27.42.28.4.6-.03.29-.4.32-.41,1.32-.34.08,0,.16.11.22.2.06.09.13.2.13.31.01.52-.03,1.05.01,1.57.05.6-.21.93-.47,1.31-.2.3-.11.73-.11,1.11,0,.41-.06.76-.31,1-.26.26-.29.63-.27,1.02.02.52.04,1.04-.33,1.38-.18.17-.26.37-.24.65.01.13.03.27,0,.39-.13.46-.63.59-.57,1.25.03.39.02.78,0,1.17,0,.1-.13.18-.19.28-.13.19-.3.36-.36.58-.06.23-.01.52-.01.78,0,.64,0,.64-.43,1.32-.06.09-.13.21-.13.31-.01.91,0,1.83,0,2.74,0,.42.19.64.54.66.35.02.53-.15.59-.59.02-.13-.01-.26,0-.39.02-.12.05-.24.1-.33.47-.85.48-.85.47-1.3,0-.39,0-.78,0-1.18,0-.5-.03-.53.34-.97.26-.31.17-.69.24-1.05.09-.47.62-.59.56-1.25-.04-.39-.02-.78,0-1.17,0-.1.12-.19.19-.28.07-.09.13-.2.2-.27.34-.33.02-.99.39-1.36.38-.39.35-.45.34-1.36,0-.13,0-.26,0-.39.01-.12.02-.26.07-.35.17-.29.46-.48.49-.9.03-.39,0-.78.01-1.17.01-.24.13-.45.3-.61.18-.17.27-.37.27-.63,0-.13-.04-.29,0-.39.36-.77.89-1.32,1.34-1.98.05-.08.16-.11.25-.11,2.37,0,4.75,0,7.12,0,.23,0,.43-.41.4-.85-.03-.55-.11-.72-.5-.7-.33.02-.51-.23-.71-.5-.07-.09-.12-.22-.2-.27-.08-.05-.18-.03-.28-.03-2.18,0-4.37,0-6.55,0Z"/><path class="cls-1" d="m74.41,23.14c.28.4.28.4.6-.04.33-.46.67-.92,1.01-1.39.63-.87.68-.88.66-1.18-.05-.63.3-.91.55-1.26.66-.93,1.33-1.86,2.02-2.77.22-.29.27-.61.31-1.01.06-.54.46-.78.69-1.17.13-.21.3-.25.51-.21.19.03.38,0,.57,0,.09,0,.19,0,.28,0,.38,0,.38,0,.95-.62.07-.07.16-.15.24-.15.47-.01.95,0,1.42,0,.27,0,.45.32.45.79,0,1.83.02,3.66-.01,5.48,0,.5.23.68.42.94.59.83.84.85,1.37.15q.5-.67.5-1.67c0-1.83,0-3.66,0-5.48q0-.6.3-1.01c.2-.28.4-.55.6-.83.29-.4.32-.96.08-1.34-.18-.28-.44-.44-.42-.94.04-1.04.04-2.09,0-3.13-.02-.65.47-.78.57-1.25.07-.36.01-.78.01-1.17,0-.78-.02-1.57,0-2.35.01-.48-.27-.64-.44-.93-.06-.1-.13-.19-.2-.28-.28-.39-.72-.43-.97-.06-.31.45-.78.77-.69,1.57.01.09-.06.23-.12.31-.47.65-.96,1.27-1.4,1.95-.3.45-.8.73-.76,1.53.01.31-.03.32-.66,1.19-1.07,1.48-2.15,2.96-3.22,4.43-.13.18-.27.36-.41.53-.28,0-.57,0-.85,0-.35,0-.55.24-.55.65,0,.52,0,1.04,0,1.57q0,.53-.33.99c-.27.37-.54.74-.81,1.11-.04.36.1.77-.2,1.07-.23.23-.41.54-.61.82-.27.37-.54.74-.81,1.11-.63.87-.68.88-.66,1.18.04.63-.31.89-.55,1.26-.01.25-.04.51-.03.76,0,.1.1.21.16.3.13.19.27.37.4.56Zm9.9-15.18c.33-.46.69-.89.99-1.38.18-.29.27-.35.41-.06.1.21.15.44.11.71-.02.12-.03.27-.09.33-.42.42-.55.99-.48,1.67.01.13.02.26,0,.39-.02.11-.06.23-.1.33-.11.25-.27.33-.49.25-.21-.08-.35.04-.48.29-.24.47-.57.59-.96.44-.16-.06-.34-.86-.25-1.03.39-.72.9-1.29,1.35-1.95Z"/><path class="cls-1" d="m97.77,4.94c.01-.99-.1-1.18-.63-1.27-.28-.05-.51,0-.68.21-.36.41-.68.86-1.08,1.22-.55.5-.74,1.1-.64,1.87.06.47-.1.83-.42,1.1-.36.3-.34.71-.35,1.14-.01.41.11.85-.18,1.21-.57.73-.58.73-.57,1.46,0,.93,0,.93-.49,1.5-.09.1-.25.2-.26.31-.02.72-.06,1.45,0,2.17.05.55-.32.73-.54,1.05-.08.11-.22.22-.22.32-.01,1.59,0,3.18-.02,4.77-.01.73.39.9,1.02.82.24-.03.48-.26.49-.53.04-.86.01-1.73.01-2.6,0-.65,0-.65.59-1.46.07-.1.16-.23.16-.35.02-.43.04-.87,0-1.3-.06-.75.07-1.38.62-1.89.28-.26.04-.82.28-1.15.16-.22.37-.4.53-.62.07-.09.09-.25.09-.38.01-.29.03-.58,0-.87-.03-.32,0-.6.18-.78.4-.38.69-.81.58-1.46.25-.32.57-.59.73-.96.15-.35-.11-.85.28-1.17.2-.16.36-.39.5-.63.06-.1,0-.28,0-.43v-1.3Z"/><path class="cls-1" d="m106.82,19.64c-1.42,0-2.84,0-4.25.01-.21,0-.38-.01-.5-.25-.09-.18-.03-.36.18-.55.38-.35.29-.9.27-1.4-.01-.43.09-.74.33-.99.17-.18.26-.37.25-.64,0-.39-.01-.78,0-1.17,0-.11.08-.22.14-.31.13-.19.31-.34.39-.56.07-.22-.01-.52.05-.75.12-.46.62-.59.57-1.24-.03-.38-.02-.78,0-1.17,0-.1.12-.19.19-.28.07-.09.13-.2.2-.27.34-.33,0-1.02.39-1.34.38-.3.37-.84.34-1.36,0-.13,0-.26,0-.39,0-.27.08-.47.26-.64.17-.16.32-.37.3-.6-.05-.61.24-.92.49-1.29.15-.21.12-.78-.03-1.05-.12-.23-.28-.28-.5-.24-.19.04-.38,0-.57,0-.38,0-.51.14-.52.67,0,.28-.01.52-.15.7-.14.18-.32.34-.39.56-.11.32.06.76-.21,1.05-.15.16-.33.33-.39.56-.09.34.09.77-.21,1.06-.15.14-.27.36-.37.57-.04.09,0,.25,0,.38s0,.26,0,.39c0,.25.03.54-.04.76-.07.22-.25.38-.39.56-.28.36,0,1.02-.39,1.34-.25.21-.35.56-.32.98.02.26.01.52,0,.78,0,.12-.03.25-.08.34-.12.2-.3.34-.39.56-.19.47-.06,1-.1,1.51,0,.11-.05.25-.11.32-.29.35-.54.71-.45,1.3-.13.35-.39.55-.53.87-.08.19.03.54-.05.75-.55,1.39-.56,1.38-.56,2.02,0,.13-.04.31,0,.38.25.39.52.75.8,1.11.06.07.17.08.26.08,1.42,0,2.84,0,4.25,0,.08,0,.16-.1.23-.17.14-.17.27-.36.4-.55.37-.02.75-.07,1.12-.05.39.02.75,0,.99-.5.12-.26.27-.31.48-.3,1.04.02,2.08.01,3.12,0,.07,0,.16-.14.21-.23.17-.31.17-.68.02-1.05-.1-.27-.27-.29-.49-.28-1.42.02-2.84.01-4.25.01Z"/><path class="cls-1" d="m119.12,20.75c-.38,0-.76,0-1.14,0-.49,0-.49,0-1.22-.66-.25-.22-.54-.13-.81-.12-.21,0-.42.03-.52-.16-.32-.61-.75-.7-1.24-.63-.09.01-.19-.03-.28,0-.18.07-.34.24-.37.49-.03.24.03.5.04.75.27.37.54.74.8,1.1.27.05.56-.15.78.27.1.2.25.43.41.49.26.09.55-.05.76.33.1.19.27.41.43.45.27.07.57.01.85.02.09,0,.18.03.26.09.08.06.14.18.2.27.3.42.32.44.6,0,.14-.21.27-.37.46-.37.57,0,1.14,0,1.71,0q.65.01,1.49-.72c.36-.05.72-.07.98-.54.17-.31.4-.56.6-.84.2-.28.4-.56.6-.83.42-.57.46-.58.43-.92-.04-.47.19-.69.38-.96.06-.09.19-.18.19-.28.02-.78,0-1.56.01-2.34-.19-.28-.42-.54-.56-.86-.08-.19-.03-.5-.04-.76-.27-.37-.54-.74-.8-1.11-.26-.09-.56.1-.77-.27-.12-.2-.25-.45-.41-.53-.25-.12-.56.12-.77-.3-.1-.2-.26-.43-.42-.48-.26-.09-.56.05-.75-.35-.11-.23-.27-.46-.43-.44-.44.06-.68-.29-.95-.66-.46-.66-.93-1.29-1.4-1.94-.14-.2-.17-.87-.03-1.06.27-.36.54-.71.82-1.06.27-.02.56.08.76-.31.17-.31.38-.53.71-.48.28.04.57.01.85,0,.37,0,.36,0,.95.63.24.26.53.14.81.15.45,0,.45,0,.73-.4.13-.19.27-.37.4-.55.25-.36.22-.93-.07-1.33-.07-.09-.13-.19-.2-.27-.21-.23-.32-.6-.68-.59-.85.04-1.7.01-2.56.01h-1.14c-.21.26-.4.54-.62.77-.06.06-.18,0-.28.01-.09,0-.22-.05-.27.02-.35.44-.68.91-1.01,1.37-.27.37-.53.75-.81,1.1-.16.19-.19.39-.18.69.02.78.02,1.56,0,2.34,0,.29.06.46.22.67.48.62.94,1.28,1.41,1.93.13.18.26.43.42.49.26.09.55-.05.76.33.1.19.28.32.42.47.43-.11.67.29.95.63.26.32.72.05.97.56.16.32.39.56.59.84.27.37.54.74.8,1.11q.29.4.29,1.01c0,.52.01,1.04,0,1.56,0,.25-.13.51-.31.57-.66.21-.66.19-.96.59-.2.28-.4.56-.61.83-.06.08-.15.15-.23.16-.66.01-1.33,0-1.99,0Z"/></g></svg>