<?xml version="1.0" encoding="UTF-8"?><svg id="Layer_2" xmlns="http://www.w3.org/2000/svg" width="285.97" height="251.71" viewBox="0 0 285.97 251.71"><defs><style>.cls-1{fill:none;stroke:#da3832;stroke-miterlimit:10;stroke-width:2px;}</style></defs><g id="Layer_1-2"><path class="cls-1" d="m2.03,9.04c-.72-2.58-1.42-6.26.25-7.55,2.01-1.57,6.48,1.1,7.55,1.71,12.2,6.88,77.54,24.47,126.1,25.81,16.82.46,34.63-1.42,70.26-5.2,13.85-1.47,25.26-2.94,32.94-3.99-.91,5.15-1.82,10.31-2.73,15.46-12.44,1.39-31.2,3.1-54.16,3.67-17.75.44-20.92-.22-57.24-.7-39.24-.52-45.29.12-71.85-.7-19.95-.62-36.07-1.59-46.07-2.26-1.83-11.95-3.43-20.37-5.06-26.23Z"/><path class="cls-1" d="m6.66,1.62c35.78,5.04,73.45,9.41,112.89,12.84,37.98,3.3,74.5,5.45,109.39,6.69"/><path class="cls-1" d="m223.72,84.75c3.49-6.9,6.98-13.8,10.48-20.7,17.23-3.26,32.02,1.25,35.45,9.67,4.07,10-8.79,23.22-16,30.63-10.44,10.73-21.73,16.22-28.79,18.99-7.16,2.85-11.89,3.17-14.18.97-4.33-4.17.02-17.35,13.05-39.55Z"/><path class="cls-1" d="m228.54,75.22c-30.93,2.86-64.66,4.69-100.83,4.81-38.18.12-73.68-1.69-106.08-4.63-5.58-7.81-11.15-15.62-16.73-23.42l-3.65-16.7,66.87,2.62c17.14.09,34.29.19,51.43.28,4.44.07,10.95.17,18.82.28,26.25.35,39.37.52,48.71.36,11.94-.21,28.76-.99,49.33-3.53h6.65c-1.31,4.77-2.61,9.55-3.92,14.32,4.65-.64,13.49-1.2,23.35,2.58,4.72,1.81,17.98,6.9,21.57,17.83,5.66,17.26-16.72,37.15-22.43,42.22-4.94,4.39-10.27,8.1-29.59,17.75-11.39,5.69-27.15,13.2-46.54,21.31-16.3,3.17-36.21,5.74-58.94,5.93-25.03.21-46.78-2.53-64.22-5.93-3.08-1.47-10.97-5.73-16.5-15.05-5.84-9.84-5.51-19.35-5.24-22.7"/><path class="cls-1" d="m21.63,75.4c-.47,3.66-.85,10.62,2.12,18.46,4.54,11.97,13.82,17.9,16.86,19.67,22.92,4.33,51.13,7.81,83.43,7.78,33.52-.03,62.68-3.82,86.16-8.45"/><path class="cls-1" d="m62.35,151.29c.08,2.55.5,6.54,2.33,11.02,1.91,4.7,4.55,7.95,6.34,9.84-.28.79-2.01,5.97.92,10.85,1.63,2.71,3.93,4.06,5.07,4.63-.22.49-2.22,5.13.4,9.85,2.7,4.85,7.92,5.51,8.41,5.56-3.08,4.62-6.17,9.25-9.25,13.87,10.97,3.27,26.56,6.64,45.44,6.67,17.26.03,31.69-2.73,42.19-5.57-3.16-4.11-6.31-8.22-9.47-12.33.67-.27,5.78-2.37,7.5-7.98,1.34-4.38-.25-8.06-.68-8.97,1.75-.67,7.18-3,10.65-8.96,2.38-4.08,2.74-7.99,2.78-9.98,2.01-1.54,5.41-4.58,7.87-9.52,1.75-3.53,2.4-6.77,2.65-8.99"/><path class="cls-1" d="m71.02,172.15c14.98,2.76,34.04,4.89,56.08,4.05,18.55-.71,34.71-3.35,47.88-6.4"/><path class="cls-1" d="m77.01,187.63c12.78,1.54,27.05,2.63,42.57,2.82,15.27.19,29.33-.53,41.98-1.72"/><path class="cls-1" d="m76.57,216.91c-57.55,4.89-70.27,10.04-70.39,13.99-.27,8.62,59.17,19.64,114.49,19.8,50.78.15,107.13-8.83,107.09-17.33-.02-3.89-11.83-9.18-63.56-15.37"/></g></svg>