<?xml version="1.0" encoding="UTF-8"?><svg id="Layer_2" xmlns="http://www.w3.org/2000/svg" width="193.98" height="36.99" viewBox="0 0 193.98 36.99"><defs><style>.cls-1{stroke-width:0px;}</style></defs><g id="Layer_1-2"><path class="cls-1" d="m21.58,2.1C21.67-.06,21.19-.04,20.1.01c-.63.03-.62.02-1.27,1.73-.13.35-.36.63-.55.93-.1.16-.27.27-.3.45-.11.56.14,1.22-.31,1.69-.23.24-.51.55-.59.9-.12.55.12,1.21-.34,1.67-.23.23-.4.58-.55.92-.07.15,0,.41,0,.61-.01.19,0,.42-.07.57-.77,1.71-.78,1.71-.79,3.26,0,.4-.16.73-.43.99-.4.4-.49.96-.45,1.6.01.21-.01.42.01.62.08.67-.11,1.2-.49,1.58-.42.43-.39,1.03-.4,1.64,0,.17-.13.34-.21.49-.2.34-.41.24-.65-.24-.18-.37-.43-.64-.71-.66-.45-.04-.91.04-1.36,0-.49-.05-.69-.72-1.06-1.03-.39-.34-.87-.12-1.31-.18-.5-.07-.86.22-1.14.73-.2.38-.43.57-.74.55-.3-.02-.61.04-.91,0-.34-.06-.59.04-.81.35-.84,1.19-1.68,2.36-2.53,3.54-.32.44-.6.95-.96,1.31-.47.48-.25,1.12-.3,1.7C-.03,28.04-.04,28.04.02,30.18c0,.2,0,.42.06.59.07.17.19.32.32.44.78.71.53,1.81.57,2.79.03.71.28,1.09.87,1.03.35-.03.59.03.8.38.19.31.43.58.65.86.91-.01,1.82-.01,2.72-.06.11,0,.21-.28.32-.42.31-.42.57-.94,1.11-.82.54.11.74-.57,1.06-.96.33-.42.63-.89.96-1.31.1-.12.25-.18.38-.22.15-.04.3-.04.45,0,.46.09.71.49.69,1.28-.03,1.02.7,1.26,1.01,1.91.19.4.44.54.76.51.45-.04.92.05,1.36-.05.29-.06.52-.46.52-.85,0-1.86-.03-3.72-.05-5.58q-.01-.9.73-2.68c.07-.16.14-.36.14-.53,0-1.03-.02-2.07-.02-3.1,0-.18.07-.4.16-.52.44-.57.86-1.13.72-2.08.18-.57.62-.89.83-1.4.2-.49-.09-1.2.32-1.67.23-.26.51-.54.61-.89.1-.35-.07-.86.03-1.21.1-.35.4-.6.61-.9.1-.14.24-.3.25-.47.03-.41,0-.82,0-1.24q0-1.04.66-2.1c.09-.14.2-.33.21-.5.02-.62.03-1.24-.02-1.86-.07-1.07,0-2.02.71-2.7.24-.23.41-.61.64-.87.4-.43.45-1,.42-1.62-.02-.41-.01-.83-.02-1.24Zm-12.27,19.23c.75-.2,1.27.02,1.7.72.39.63.85,1.17,1.29,1.74q.42.55-.12,1.31c-.52.73-1.02,1.5-1.58,2.18-.32.4-.87.03-1.21.46-.33.41-.63.87-.95,1.31-.1.15-.21.29-.31.44-.31.44-.67.83-.93,1.33-.34.65-.86.23-1.21.48-.38.26-.66.8-.98,1.22-.3-.01-.62.07-.88-.06-.31-.15-.46-.56-.43-.96.03-.46-.02-.82-.23-1.11-.21-.29-.5-.53-.63-.88-.12-.34-.15-.82-.07-1.17.08-.35.31-.69.54-.91.46-.46.29-1.09.32-1.67.64-.76.97-2.1,2.08-1.96.12.01.28-.13.36-.26.39-.64.82-1.14,1.51-1.01.1.02.24-.18.35-.31.22-.28.39-.69.64-.84.25-.15.58-.04.76-.04Z"/><path class="cls-1" d="m22.54,24.08c-.35,1.89-.33,2.63-.35,3.36,0,.14-.18.26-.27.4-.18.27-.43.51-.51.82-.09.32,0,.73,0,1.09,0,.93,0,.92-.61,1.87-.08.13-.18.29-.19.44-.02.55,0,1.1.01,1.65,0,.42.06.43.98,1.68.28.37.37.4.61-.06.24-.44.63-.75.84-1.21.2-.42-.07-1.07.29-1.49.21-.24.41-.5.57-.79.07-.12.01-.35.01-.54,0-.18-.07-.45,0-.54,1.14-1.59,2.3-3.16,3.46-4.74.29-.39.56-.81.87-1.17.4-.47.65-1.17,1.23-1.36.66.15.95-.53,1.35-1,.08-.1.25-.13.37-.11.31.06.55-.02.74-.3.19-.27.38-.53.58-.79.41-.02.82-.04,1.23-.06.14,0,.3.06.41-.02.47-.3.62-1.22,1.31-1.12.41.06.83.02,1.24-.04.11-.01.22-.23.28-.38.03-.09-.02-.28-.07-.38-.08-.13-.21-.29-.32-.3-.4-.04-.79.03-1.12-.46-.47-.69-.5-.65-1.05-.64-.28,0-.56.04-.83,0-.73-.1-1.34.1-1.79.94-.14.26-.46.26-.76.2-.75-.16-1.31.21-1.77,1-.25.43-.53.88-.87,1.16-.32.26-.8-.09-1.12.42-.26.42-.57.79-.86,1.19-.1.13-.19.27-.29.39-.09.1-.23.27-.28.23-.29-.18-.38-.5-.38-.88,0-1.1-.02-2.21-.03-3.31,0-.93-.26-1.23-.99-1.23q-.9,0-1.79.93c-.1.1-.23.15-.35.2-.87.34-1.47.93-1.85,1.82.03.35-.03.78.1,1.04.23.45.61.76.87,1.19.21.34.41.5.72.37v.55c.01.37.01.74.38-.05.39-.92.24-.66,0-.51-.36.2-.51,0-.37-.48.1-.34.3-.54.48-.5.1.02.24.2-.1,1.49Z"/><path class="cls-1" d="m42.92,34.04c.62,0,.95-.32.96-.9,0-.35-.01-.71,0-1.06,0-.93-.21-1.15-1.15-1.23-.7-.06-.89-.26-.9-.95-.01-.88-.03-1.76-.02-2.65,0-.14.16-.28.27-.41.23-.26.56-.47.68-.77.12-.3.03-.69.03-1.04,0-.35-.1-.74.01-1.05.11-.3.41-.55.67-.77.29-.25.37-.53.31-.93-.07-.52-.05-1.05-.06-1.57-.36-.37-.72-.74-1.08-1.11-.12-.12-.23-.33-.36-.35-.32-.07-.66-.05-.99-.06-.6.61-1.2,1.21-1.79,1.83-1.05,1.11-1.11,1.59-.14,2.54.36.35.42.46.07.78-.35.32-.76.62-.71,1.28.09,1.05,0,2.12.07,3.17.05.67-.43.9-.74,1.28-.42.52-.36,1.27.17,1.81.36.37.67.84,1.1,1.08.4.22.95-.12,1.37.37.68.79.72.76,1.74.7.17,0,.34,0,.51,0Z"/><path class="cls-1" d="m45.63,7.46c-.33,0-.66.05-.99,0-.72-.1-1.06.5-1.06,1.3,0,.9.1,1.68.86,2.23.27.19.44.57.72.69.28.12.67.1.97,0,.33-.11.56-.46.51-.77-.11-.81.41-1.23.85-1.72.26-.29.23-.99-.03-1.4-.09-.14-.23-.32-.36-.33-.49-.03-.99,0-1.48,0Z"/><path class="cls-1" d="m66.02,19.95c.04-.33-.08-.6-.4-.75-.06-.03-.22.09-.31.18-.22.21-.42.44-.63.66-.45.01-.9.06-1.35.02-.35-.03-.56.06-.79.32-.28.33-.52.73-1.09.67-.6-.06-1.21.04-1.81,0-.57-.05-.78.39-1.07.71-.43.48-1.14.05-1.57.65-.44.62-.52.56-1.11.56-.3,0-.6.02-.9,0-.14,0-.28-.05-.4-.11-.42-.21-.4-.38-.05-.67.33-.27.74-.57.6-1.13-.08-.34.06-.57.34-.79.34-.29.6-.62.56-1.16-.06-.77-.03-1.55-.04-2.33q0-.67.7-1.56c.18-.23.21-.51.19-.85-.02-.45-.13-.93.11-1.34.23-.37.71-.58.75-1.08.04-.46-.01-.93,0-1.4,0-.13.08-.28.16-.39.73-1,.77-1,.7-2.02-.04-.53.21-.85.54-1.17.11-.11.29-.21.3-.33.05-.45.05-.92.05-1.37,0-.78,0-1.55-.04-2.33,0-.12-.15-.26-.26-.34-.08-.06-.26-.11-.31-.06-.54.54-1.03,1.14-1.6,1.64-.53.47-.55,1.02-.52,1.65.03.57,0,.57-.71,1.56-.08.11-.16.26-.17.39-.02.46.03.93,0,1.4-.04.5-.49.73-.75,1.08-.08.11-.12.27-.12.41,0,.78.02,1.55.01,2.33,0,.13-.09.27-.18.39-.71.95-.71.94-.7,1.56.01.62.09,1.25,0,1.86-.07.44-.53.71-.83,1.04,0,.77-.04,1.54,0,2.31.02.35-.02.6-.28.82-.23.2-.5.41-.6.67-.1.27-.02.61-.01.92,0,.31.09.65-.02.92-.1.27-.4.45-.61.68-.1.11-.23.22-.25.36-.46,2.29-.45,2.29-1.3,3.17-.48.5-.48.5,0,.99.11.11.23.21.32.33.21.27.17,1-.08,1.26-.21.22-.42.44-.63.67-.01.61-.04,1.22-.03,1.84,0,.12.15.25.25.35.32.33.64.66.97.98.23.23.88.22,1.22-.04.11-.09.27-.23.27-.34.02-.78.02-1.55-.02-2.33-.02-.35.05-.59.35-.79.78-.53.52-1.35.54-2.09.02-.58.23-.81.81-.83.3,0,.6,0,.9-.01.84-.05.81.03,1.01,1.1.03.14.04.32.13.41,1.5,1.53,3.01,3.04,4.52,4.56,1.3,1.31,1.31,1.36,1.73,1.31.75-.1.93.71,1.45.91.39.14.88-.12,1.22.35.17.24.42.47.67.56.26.08.58,0,.86-.08.12-.03.28-.19.31-.32.06-.29.13-.63.04-.89-.09-.26-.35-.47-.56-.68-1.94-1.96-3.88-3.91-5.82-5.86-.32-.33-.66-.64-.97-.98-.38-.43-.98-.72-.9-1.48.06-.54-.46-.74-.72-1.08-.06-.08-.09-.24-.05-.32.07-.13.19-.31.31-.33.99-.16,1.01-.13,1.53-.69.22-.24.45-.36.8-.28.32.07.54-.09.76-.38.17-.23.44-.38.66-.57.69.13,1.1-.3,1.5-.77.08-.1.25-.18.37-.18,1.09.06,1.45-.9,2.03-1.54.07-.08,0-.3,0-.46Z"/><path class="cls-1" d="m86.2,19.84c.04-.33-.08-.6-.4-.75-.06-.03-.22.09-.31.18-.22.21-.42.44-.63.66-.45.01-.9.06-1.35.02-.35-.03-.56.06-.79.32-.28.33-.52.73-1.09.67-.6-.06-1.21.04-1.81,0-.57-.05-.78.39-1.07.71-.43.48-1.14.05-1.57.65-.44.62-.52.56-1.11.56-.3,0-.6.02-.9,0-.14,0-.28-.05-.4-.11-.42-.21-.4-.38-.05-.67.33-.27.74-.57.6-1.13-.08-.34.06-.57.34-.79.34-.29.6-.62.56-1.16-.06-.77-.03-1.55-.04-2.33q0-.67.7-1.56c.18-.23.21-.51.19-.85-.02-.45-.13-.93.11-1.34.23-.37.71-.58.75-1.08.04-.46-.01-.93,0-1.4,0-.13.08-.28.16-.39.73-1,.77-1,.7-2.02-.04-.53.21-.85.54-1.17.11-.11.29-.21.3-.33.05-.45.05-.92.05-1.37,0-.78,0-1.55-.04-2.33,0-.12-.15-.26-.26-.34-.08-.06-.26-.11-.31-.06-.54.54-1.03,1.14-1.6,1.64-.53.47-.55,1.02-.52,1.65.03.57,0,.57-.71,1.56-.08.11-.16.26-.17.39-.02.46.03.93,0,1.4-.04.5-.49.73-.75,1.08-.08.11-.12.27-.12.41,0,.78.02,1.55.01,2.33,0,.13-.09.27-.18.39-.71.95-.71.94-.7,1.56.01.62.09,1.25,0,1.86-.07.44-.53.71-.83,1.04,0,.77-.04,1.54,0,2.31.02.35-.02.6-.28.82-.23.2-.5.41-.6.67-.1.27-.02.61-.01.92,0,.31.09.65-.02.92-.1.27-.4.45-.61.68-.1.11-.23.22-.25.36-.46,2.29-.45,2.29-1.3,3.17-.48.5-.48.5,0,.99.11.11.23.21.32.33.21.27.17,1-.08,1.26-.21.22-.42.44-.63.67-.01.61-.04,1.22-.03,1.84,0,.12.15.25.25.35.32.33.64.66.97.98.23.23.88.22,1.22-.04.11-.09.27-.23.27-.34.02-.78.02-1.55-.02-2.33-.02-.35.05-.59.35-.79.78-.53.52-1.35.54-2.09.02-.58.23-.81.81-.83.3,0,.6,0,.9-.01.84-.05.81.03,1.01,1.1.03.14.04.32.13.41,1.5,1.53,3.01,3.04,4.52,4.56,1.3,1.31,1.31,1.36,1.73,1.31.75-.1.93.71,1.45.91.39.14.88-.12,1.22.35.17.24.42.47.67.56.26.08.58,0,.86-.08.12-.03.28-.19.31-.32.06-.29.13-.63.04-.89-.09-.26-.35-.47-.56-.68-1.94-1.96-3.88-3.91-5.82-5.86-.32-.33-.66-.64-.97-.98-.38-.43-.98-.72-.9-1.48.06-.54-.46-.74-.72-1.08-.06-.08-.09-.24-.05-.32.07-.13.19-.31.31-.33.99-.16,1.01-.13,1.53-.69.22-.24.45-.36.8-.28.32.07.54-.09.76-.38.17-.23.44-.38.66-.57.69.13,1.1-.3,1.5-.77.08-.1.25-.18.37-.18,1.09.06,1.45-.9,2.03-1.54.07-.08,0-.3,0-.46Z"/><path class="cls-1" d="m99.07,32.03c-.88.01-1.77-.02-2.65.05-.37.03-.53-.35-.72-.69-.24-.44-.54-.22-.81-.32l-.85-1.35c-.08-.43.06-.95-.22-1.31-.15-.2-.34-.41-.41-.68-.07-.27-.04-.64-.01-.95.01-.13.12-.26.2-.33.05-.04.15,0,.2.06.15.21.26.55.43.65.37.22.77.08,1.16.08.08,0,.15-.15.23-.25.22-.28.33-.79.7-.73.29.05.59,0,.88,0l2.36-.03h1.18c.21-.34.42-.66.63-.99.49,0,.98-.02,1.47-.02.35,0,.58-.31.57-.78,0-.64-.02-1.28-.02-1.92,0-.68,0-.68-.35-1.21-.21-.32-.38-.78-.67-.88-.28-.09-.59-.02-.88-.01-.2,0-.35-.16-.48-.44-.19-.41-.44-.55-.76-.52-.39.04-.79.03-1.18.02-.19,0-.34-.2-.47-.49-.13-.29-.28-.46-.48-.46-.88,0-1.77.01-2.65.04-.08,0-.17.11-.24.21-.55.75-.55.79-.98.75-.4-.03-.73.07-1.03.61-.65,1.18-1.35,2.31-2.04,3.43-.16.26-.21.47-.2.84.04,1.28.05,2.57.04,3.85,0,.37.05.58.22.83.93,1.44,1.86,2.89,2.76,4.4.32.54.67.56,1.06.52.3-.03.58.02.77.46.13.29.28.48.47.48,1.08,0,2.16-.02,3.24-.04.08,0,.19-.08.24-.18.26-.48.52-.93.97-.79.55.17.92-.26,1.23-.92.06-.13.15-.22.2-.35.03-.09.06-.25.03-.33-.05-.13-.14-.33-.21-.33-.98-.01-1.97,0-2.95.02Zm-1.91-8.66c-.97.01-1.94.03-2.91.02-.07,0-.16-.18-.21-.31-.08-.22,0-.54.22-.62.61-.2.62-.17.98-.73.07-.1.14-.26.22-.26,1.16-.03,2.33-.04,3.49-.03.07,0,.14.21.21.32.27.43.27.42,1,.66.08.03.19.2.2.33.03.24-.09.56-.29.57-.97.05-1.94.04-2.91.05Z"/><path class="cls-1" d="m95.85,12.99v-.4c0-.27.03-.56-.03-.79-.06-.23-.21-.39-.33-.58-.44-.71-.44-.72-1.31-.63-.16.02-.29.24-.31.5-.03.38-.02.78.22,1.05.21.24.29.57.29,1.01,0,1.06.01,1.07.43,1.71.11.17.23.31.35.47.11-.19.22-.38.34-.57q.37-.58.34-1.36c0-.13,0-.27,0-.4Z"/><path class="cls-1" d="m100.27,13.26c0-.39-.01-.79-.01-1.18,0-.47-.16-.76-.4-.76-.16,0-.32,0-.48,0-.45,0-.59.21-.59.84,0,.26,0,.52,0,.79v1.18c.24.37.48.74.71,1.1.11.17.53.12.65-.1.05-.09.13-.2.13-.3,0-.52,0-1.05-.01-1.57Z"/><path class="cls-1" d="m107.95,22.77l.02,1.71c.19.27.37.53.55.81.09.13.23.28.23.42.03,1.33.06,2.66.05,3.99,0,.42.08.69.32.96.3.34.56.74.51,1.41-.04.56.04,1.15,0,1.71-.07.86.23,1.41.64,1.91.2.24.38.53.56.8.09-.13.18-.25.27-.38,2.17-3.25,4.34-6.5,6.51-9.76.4-.6.38-.61.55-1.95.05-.38.33-.6.58-.59.28.01.54.01.71-.24.73-1.07,1.44-2.18,2.18-3.24.24-.34.35-.55.21-.82-.17-.33-.39-.4-.69-.34-.38.07-.77.06-1.15.08-.18.27-.36.55-.55.81-.09.12-.21.29-.3.27-.8-.19-1.12.73-1.56,1.37-1.1,1.61-2.16,3.26-3.27,4.87-.45.65-.8,1.46-1.4,1.88-.6-.16-.93.43-1.28.97-.04.06-.2.03-.26-.04-.1-.1-.23-.27-.24-.41-.03-.95-.06-1.9-.03-2.85.02-.71-.38-.93-.61-1.35-.08-.14-.2-.29-.2-.44-.03-1.52-.05-3.04-.06-4.56,0-1.03,0-1.03-.64-1.91-.19-.26-.37-.53-.56-.8-.18.26-.36.51-.54.78-.36.54-.72,1.08-1.09,1.63-.09.14-.18.27-.27.41.16.27.32.54.48.8.09.14.26.26.26.4.04.57.03,1.14.03,1.71Z"/><path class="cls-1" d="m123.39,28.36c0,1.05,0,1.04.54,1.94.06.1.13.25.13.37,0,.46.07.84.34,1.16.33.39.63.83.93,1.25.4.56.4.55,1.14.52.41-.02.41-.01,1.07-.74.08-.08.19-.18.27-.17.51.1.75-.41,1.06-.79.23-.28.62-.02.87-.34.16-.2.29-.44.46-.63.07-.08.19-.07.3-.08.11-.01.25.06.32-.02.69-.71,1.21-1.66,1.84-2.47.06-.08.17-.19.22-.16.23.15.29.41.29.73,0,.6.04,1.2,0,1.79-.03.53.19.83.44,1.1.2.22.27.43.25.77-.03.54.2.91.5.92.11,0,.22,0,.32,0,1.08,0,1.14-.07,1.12-1.4,0-.3.04-.63-.04-.88-.08-.25-.3-.42-.45-.64-.07-.1-.17-.23-.17-.34-.02-1.79-.02-3.57-.02-5.36,0-.11.14-.21.22-.32.38-.54.38-.54.36-1.58,0-.45,0-.87.29-1.18.27-.28.39-.67.34-1.15-.02-.15,0-.3,0-.45-.04-.58.11-1.21-.13-1.72-.18-.37-.47-.62-.68-.96-.18-.27-.27-.2-.47.12-.36.57-.38.54-.8.54-.43,0-.86,0-1.3.01-.22,0-.37-.17-.53-.41-.33-.49-.36-.49-.68,0-.16.24-.31.42-.52.43-.43,0-.86.01-1.3.01-.43,0-.45-.03-.8.54-.25.4-.55.37-.86.38-.23.3-.46.61-.7.88-.07.07-.21.03-.31.03-.11,0-.26-.06-.32.01-.91,1.26-1.81,2.54-2.72,3.8-.28.38-.15.82-.17,1.24-.02.29.04.62-.04.87-.08.26-.29.43-.43.65-.07.1-.15.23-.15.36-.01.45,0,.9,0,1.34Zm3.53,1.64c-.11,0-.22-.01-.32,0-.23.04-.38-.1-.54-.36-.21-.34-.46-.63-.69-.94-.01-.29-.02-.58-.04-.87.21-.32.49-.6.62-.98.12-.36-.1-.85.22-1.21.33-.37.6-.84.9-1.25.16-.22.17-.47.17-.79,0-.63.1-.75.56-.81.11-.01.24.05.32-.02.17-.15.35-.33.47-.55.15-.27.31-.42.54-.35.24.08.42-.02.56-.28.13-.23.27-.51.45-.62.18-.11.42-.03.64-.03.23-.3.45-.62.69-.9.06-.07.21-.02.31-.01.1,0,.25-.04.31.03.32.4.62.82.93,1.24.02.29.04.57.06.86-.21.33-.46.62-.6.99-.13.36.06.83-.22,1.21-1.14,1.55-2.25,3.14-3.38,4.7-.05.07-.21.03-.31,0-.24-.06-.38.09-.54.35-.4.62-.42.6-1.1.58Z"/><path class="cls-1" d="m144.07,23.61c-.35,1.89-.33,2.63-.35,3.36,0,.14-.18.26-.27.4-.18.27-.43.51-.51.82-.09.32,0,.73,0,1.09,0,.93,0,.92-.61,1.87-.08.13-.18.29-.19.44-.02.55,0,1.1.01,1.65,0,.42.06.43.98,1.68.28.37.37.4.61-.06.24-.44.63-.75.84-1.21.2-.42-.07-1.07.29-1.49.21-.24.41-.5.57-.79.07-.12.01-.35.01-.54,0-.18-.07-.45,0-.54,1.14-1.59,2.3-3.16,3.46-4.74.29-.39.56-.81.87-1.17.4-.47.65-1.17,1.23-1.36.66.15.95-.53,1.35-1,.08-.1.25-.13.37-.11.31.06.55-.02.74-.3.19-.27.38-.53.58-.79.41-.02.82-.04,1.23-.06.14,0,.3.06.41-.02.47-.3.62-1.22,1.31-1.12.41.06.83.02,1.24-.04.11-.01.22-.23.28-.38.03-.09-.02-.28-.07-.38-.08-.13-.21-.29-.32-.3-.4-.04-.79.03-1.12-.46-.47-.69-.5-.65-1.05-.64-.28,0-.56.04-.83,0-.73-.1-1.34.1-1.79.94-.14.26-.46.26-.76.2-.75-.16-1.31.21-1.77,1-.25.43-.53.88-.87,1.16-.32.26-.8-.09-1.12.42-.26.42-.57.79-.86,1.19-.1.13-.19.27-.29.39-.09.1-.23.27-.28.23-.29-.18-.38-.5-.38-.88,0-1.1-.02-2.21-.03-3.31,0-.93-.26-1.23-.99-1.23q-.9,0-1.79.93c-.1.1-.23.15-.35.2-.87.34-1.47.93-1.85,1.82.03.35-.03.78.1,1.04.23.45.61.76.87,1.19.21.34.41.5.72.37v.55c.01.37.01.74.38-.05.39-.92.24-.66,0-.51-.36.2-.51,0-.37-.48.1-.34.3-.54.48-.5.1.02.24.2-.1,1.49Z"/><path class="cls-1" d="m167.83,31.89c-.88.01-1.77-.02-2.65.05-.37.03-.53-.35-.72-.69-.24-.44-.54-.22-.81-.32l-.85-1.35c-.08-.43.06-.95-.22-1.31-.15-.2-.34-.41-.41-.68-.07-.27-.04-.64-.01-.95.01-.13.12-.26.2-.33.05-.04.15,0,.2.06.15.21.26.55.43.65.37.22.77.08,1.16.08.08,0,.15-.15.23-.25.22-.28.33-.79.7-.73.29.05.59,0,.88,0l2.36-.03h1.18c.21-.34.42-.66.63-.99.49,0,.98-.02,1.47-.02.35,0,.58-.31.57-.78,0-.64-.02-1.28-.02-1.92,0-.68,0-.68-.35-1.21-.21-.32-.38-.78-.67-.88-.28-.09-.59-.02-.88-.01-.2,0-.35-.16-.48-.44-.19-.41-.44-.55-.76-.52-.39.04-.79.03-1.18.02-.19,0-.34-.2-.47-.49-.13-.29-.28-.46-.48-.46-.88,0-1.77.01-2.65.04-.08,0-.17.11-.24.21-.55.75-.55.79-.98.75-.4-.03-.73.07-1.03.61-.65,1.18-1.35,2.31-2.04,3.43-.16.26-.21.47-.2.84.04,1.28.05,2.57.04,3.85,0,.37.05.58.22.83.93,1.44,1.86,2.89,2.76,4.4.32.54.67.56,1.06.52.3-.03.58.02.77.46.13.29.28.48.47.48,1.08,0,2.16-.02,3.24-.04.08,0,.19-.08.24-.18.26-.48.52-.93.97-.79.55.17.92-.26,1.23-.92.06-.13.15-.22.2-.35.03-.09.06-.25.03-.33-.05-.13-.14-.33-.21-.33-.98-.01-1.97,0-2.95.02Zm-1.91-8.66c-.97.01-1.94.03-2.91.02-.07,0-.16-.18-.21-.31-.08-.22,0-.54.22-.62.61-.2.62-.17.98-.73.07-.1.14-.26.22-.26,1.16-.03,2.33-.04,3.49-.03.07,0,.14.21.21.32.27.43.27.42,1,.66.08.03.19.2.2.33.03.24-.09.56-.29.57-.97.05-1.94.04-2.91.05Z"/><path class="cls-1" d="m164.61,12.85v-.4c0-.27.03-.56-.03-.79-.06-.23-.21-.39-.33-.58-.44-.71-.44-.72-1.31-.63-.16.02-.29.24-.31.5-.03.38-.02.78.22,1.05.21.24.29.57.29,1.01,0,1.06.01,1.07.43,1.71.11.17.23.31.35.47.11-.19.22-.38.34-.57q.37-.58.34-1.36c0-.13,0-.27,0-.4Z"/><path class="cls-1" d="m169.03,13.12c0-.39-.01-.79-.01-1.18,0-.47-.16-.76-.4-.76-.16,0-.32,0-.48,0-.45,0-.59.21-.59.84,0,.26,0,.52,0,.79v1.18c.24.37.48.74.71,1.1.11.17.53.12.65-.1.05-.09.13-.2.13-.3,0-.52,0-1.05-.01-1.57Z"/><path class="cls-1" d="m179.51,25.39c-.35,1.89-.33,2.63-.35,3.36,0,.14-.18.26-.27.4-.18.27-.43.51-.51.82-.09.32,0,.73,0,1.09,0,.93,0,.92-.61,1.87-.08.13-.18.29-.19.44-.02.55,0,1.1.01,1.65,0,.42.06.43.98,1.68.28.37.37.4.61-.06.24-.44.63-.75.84-1.21.2-.42-.07-1.07.29-1.49.21-.24.41-.5.57-.79.07-.12.01-.35.01-.54,0-.18-.07-.45,0-.54,1.14-1.59,2.3-3.16,3.46-4.74.29-.39.56-.81.87-1.17.4-.47.65-1.17,1.23-1.36.66.15.95-.53,1.35-1,.08-.1.25-.13.37-.11.31.06.55-.02.74-.3.19-.27.38-.53.58-.79.41-.02.82-.04,1.23-.06.14,0,.3.06.41-.02.47-.3.62-1.22,1.31-1.12.41.06.83.02,1.24-.04.11-.01.22-.23.28-.38.03-.09-.02-.28-.07-.38-.08-.13-.21-.29-.32-.3-.4-.04-.79.03-1.12-.46-.47-.69-.5-.65-1.05-.64-.28,0-.56.04-.83,0-.73-.1-1.34.1-1.79.94-.14.26-.46.26-.76.2-.75-.16-1.31.21-1.77,1-.25.43-.53.88-.87,1.16-.32.26-.8-.09-1.12.42-.26.42-.57.79-.86,1.19-.1.13-.19.27-.29.39-.09.1-.23.27-.28.23-.29-.18-.38-.5-.38-.88,0-1.1-.02-2.21-.03-3.31,0-.93-.26-1.23-.99-1.23q-.9,0-1.79.93c-.1.1-.23.15-.35.2-.87.34-1.47.93-1.85,1.82.03.35-.03.78.1,1.04.23.45.61.76.87,1.19.21.34.41.5.72.37v.55c.01.37.01.74.38-.05.39-.92.24-.66,0-.51-.36.2-.51,0-.37-.48.1-.34.3-.54.48-.5.1.02.24.2-.1,1.49Z"/></g></svg>