<?xml version="1.0" encoding="UTF-8"?><svg id="Layer_2" xmlns="http://www.w3.org/2000/svg" width="84.7" height="23.11" viewBox="0 0 84.7 23.11"><defs><style>.cls-1{stroke-width:0px;}</style></defs><g id="Layer_1-2"><path class="cls-1" d="m9.99.02C8.76.02,7.53.04,6.29,0c-.35-.01-.51.29-.69.56-.14.21-.28.32-.5.25-.09-.03-.22-.04-.27.03-.28.35-.54.73-.81,1.1.19.44.49.74.74,1.1.05.08.16.09.25.12.7.2.69.21.69.85,0,.39,0,.78,0,1.17,0,.64,0,.64-.44,1.32-.2.31-.06.74-.21,1.06-.1.22-.27.37-.39.56-.05.09-.1.22-.1.33-.01.39,0,.78,0,1.17,0,.69,0,.68-.5,1.68-.15.31,0,.76-.2,1.06-.13.19-.31.34-.39.56-.07.22-.06.5-.05.75.03.54-.01,1.02-.37,1.36-.08.07-.18.17-.19.28-.03.25-.01.52-.01.78,0,.26.05.55-.01.77-.07.22-.24.4-.38.56-.27.31-.15.71-.17,1.08-.02.37.08.81-.24,1.03-.1.07-.27-.14-.39-.38-.12-.25-.27-.35-.48-.31-.19.03-.38.01-.57,0C.15,18.83,0,19.06,0,19.8q0,1.01.49,1.68c.07.09.13.19.2.28.07.08.14.21.22.21.66.02,1.33,0,1.99,0,.38,0,.76,0,1.14,0,.28,0,.56-.03.84-.05.2-.26.36-.64.64-.72.27-.08.57-.02.85-.02q.46,0,1.23-.65c.07-.06.16-.13.24-.13.47-.01.95,0,1.42-.01.08,0,.18-.06.24-.14.26-.38.51-.75.95-.64.26-.16.42-.49.64-.73.06-.07.18-.04.27-.05.09,0,.22.05.28-.01.22-.24.42-.51.62-.77.21-.26.41-.52.62-.78.27-.01.55.06.76-.32.17-.31.4-.56.6-.84.34-.46.68-.91,1-1.39.25-.37.58-.65.72-1.15-.08-.6.22-.93.48-1.29.06-.08.09-.23.08-.34-.02-.29,0-.52.12-.72.45-.76.46-.77.45-1.7,0-.29.02-.5.15-.7.18-.27.44-.45.43-.93-.02-1.43,0-2.87-.02-4.31,0-.1-.11-.2-.17-.29-.29-.41-.27-.42-.41-1.33-.04-.27-.26-.4-.44-.37-.21.03-.38-.01-.52-.18-.51-.6-.52-.63-.95-.6-.39.03-.74-.01-.99-.5-.05-.11-.13-.26-.2-.27-.38-.03-.76-.02-1.14-.02-.95,0-1.9,0-2.85,0Zm.87,2.35c.76,0,1.51.03,2.27-.01.35-.02.48.35.67.59.14.18.3.23.51.21.28-.02.55.03.83.05.13.18.28.36.4.55.17.28.47.44.42.94-.04.38,0,.78,0,1.17,0,.91-.03,1.82.01,2.73.02.49-.21.7-.4.94-.16.2-.23.39-.18.69.02.12.03.29-.02.37-.17.3-.36.58-.55.86,0,.38.02.75-.24,1.04-.22.24-.39.56-.61.82-.24.27-.31.61-.29,1.01,0,.11-.06.23-.1.33-.11.25-.28.31-.49.25-.09-.03-.21-.03-.27.03-.21.24-.36.63-.63.72-.26.09-.54,0-.75.36-.17.3-.4.56-.6.83-.28.39-.28.39-.73.39-.09,0-.19.02-.28,0-.31-.06-.56.1-.72.44-.24.53-.71.16-.98.54-.13.19-.25.44-.41.53-.16.1-.37.05-.55.05q-.6-.01-.98.52c-.07.09-.13.26-.2.26-.47.02-.95,0-1.42.01-.34,0-.56-.24-.57-.62,0-.26.02-.52,0-.78-.03-.42.08-.75.32-.99.27-.27.25-.65.26-1.03,0-.37-.09-.77.14-1.09.13-.19.27-.37.4-.55,0-.39.04-.77.02-1.16-.02-.3.02-.51.18-.69.14-.16.32-.34.39-.56.07-.22.01-.51.01-.77s-.05-.55.01-.77c.07-.22.25-.37.38-.56.06-.09.16-.19.16-.29.01-.65.02-1.3,0-1.95,0-.29.06-.47.23-.66.22-.24.37-.52.36-.97-.02-.92,0-.91.44-1.69.05-.09.12-.22.11-.32-.07-.61.22-.94.49-1.29.2-.26.36-.54.7-.52.76.05,1.51.01,2.27.01Z"/><path class="cls-1" d="m26.68,0c-.95,0-1.9,0-2.85,0-.08,0-.18.06-.24.14-.54.73-1.08,1.47-1.61,2.21q-.28.39.04.83c.14.18.27.37.4.55.15.2.61.25.77.08.07-.08.14-.18.2-.27.35-.48.65-.55.97-.27.27.24.25.93-.04,1.34-.2.28-.41.53-.35.98.02.13,0,.26,0,.39,0,.51,0,.51-.45,1.31-.05.09-.11.21-.11.32-.01.65,0,1.3,0,1.96,0,.37-.23.63-.57.62-.19,0-.38,0-.57,0h-.85c-.27.37-.54.73-.8,1.11-.22.32,0,1.14.32,1.24.7-.13.92.73,1.33,1.2,0,.26,0,.52-.02.77-.01.11-.13.19-.19.28q-.36.49-.36,1.36c0,.56,0,.56-.45,1.31-.12.2-.14.43-.13.72.01.25-.1.46-.27.62-.17.16-.28.37-.29.62,0,.52,0,1.04,0,1.57,0,.73.15.96.61.96.19,0,.38,0,.57,0,.36,0,.53-.21.53-.67,0-.39-.05-.8.01-1.17.06-.37.34-.59.53-.87,0-.26.02-.51.02-.77,0-.26-.05-.55.01-.78.06-.22.22-.42.37-.57.18-.18.23-.38.2-.68-.03-.25,0-.52,0-.78,0-.5.12-.7.46-.77.21-.05.39,0,.52.17.34.46.67.92,1.01,1.38.26.07.56-.13.77.27.11.21.26.38.4.56.2.26.37.57.63.76.43-.11.69.23.95.63.26.39.53.74.8,1.11.07.09.15.17.2.28.19.39.48.34.75.34.63,0,.63,0,.99.49.07.09.13.26.2.26.66.03,1.32,0,1.99.04.22.01.38,0,.49-.27.07-.18-.01-.35-.2-.56-.22-.24-.42-.5-.63-.76-.58.16-.83-.47-1.15-.9-.27-.36-.5-.77-.94-.67-.07.02-.17-.08-.23-.16-.34-.45-.67-.93-1.01-1.37-.05-.07-.18-.03-.27-.03-.09,0-.23.06-.28,0-.48-.62-.95-1.27-1.42-1.91-.14-.18-.25-.41-.41-.54-.25-.22-.26-.38,0-.56.08-.05.17-.11.25-.11.28-.01.57.04.85-.02.29-.06.43-.46.64-.69.06-.07.17-.07.26-.07.52-.02.51-.04,1.48-.75.23-.16.55.09.77-.28.18-.3.4-.56.6-.84.54-.74,1.07-1.48,1.61-2.21.15-.2.18-.4.17-.69-.02-1.04-.02-2.09,0-3.13,0-.28-.07-.46-.23-.66-.68-.9-1.35-1.83-2.02-2.76-.2-.28-.41-.47-.72-.46-.31.01-.44-.41-.66-.64-.07-.07-.16-.12-.25-.12-1.04,0-2.09,0-3.13,0Zm.95,2.35c.28,0,.57.04.85,0,.33-.06.54.19.7.5.21.39.5.27.76.3.2.27.41.53.61.8.4.55.79,1.12,1.21,1.64.16.2.23.37.22.67-.02.52-.04,1.04,0,1.56.04.48-.21.68-.39.95-.13.19-.25.39-.4.55-.14.14-.34.08-.53.13-.28.07-.44.44-.64.7-.2.27-.4.55-.6.82-.28,0-.56.05-.84.02-.22-.03-.37.02-.5.25-.12.2-.26.36-.4.54-.13-.18-.28-.35-.4-.55-.15-.25-.23-.18-.41.1-.32.5-.34.47-.7.47-.38,0-.76,0-1.13,0-.32,0-.48-.25-.48-.73,0-.39,0-.78,0-1.17.12-.19.23-.41.37-.56.18-.18.23-.37.2-.68-.03-.38,0-.78,0-1.17.13-.18.25-.39.4-.55.16-.18.19-.39.18-.68-.02-.64,0-1.29,0-1.94.22-.38.59-.61.56-1.24-.02-.52.14-.69.5-.69.28,0,.57,0,.85,0Z"/><path class="cls-1" d="m42.61,3.47c.01-.99-.1-1.18-.63-1.27-.28-.05-.51,0-.68.21-.36.41-.68.86-1.08,1.22-.55.5-.74,1.1-.64,1.87.06.47-.1.83-.42,1.1-.36.3-.34.71-.35,1.14-.01.41.11.85-.18,1.21-.57.73-.58.73-.57,1.46,0,.93,0,.93-.49,1.5-.09.1-.25.2-.26.31-.02.72-.06,1.45,0,2.17.05.55-.32.73-.54,1.05-.08.11-.22.22-.22.32-.01,1.59,0,3.18-.02,4.77-.01.73.39.9,1.02.82.24-.03.48-.26.49-.53.04-.86.01-1.73.01-2.6,0-.65,0-.65.59-1.46.07-.1.16-.23.16-.35.02-.43.04-.87,0-1.3-.06-.75.07-1.38.62-1.89.28-.26.04-.82.28-1.15.16-.22.37-.4.53-.62.07-.09.09-.25.09-.38.01-.29.03-.58,0-.87-.03-.32,0-.6.18-.78.4-.38.69-.81.58-1.46.25-.32.57-.59.73-.96.15-.35-.11-.85.28-1.17.2-.16.36-.39.5-.63.06-.1,0-.28,0-.43v-1.3Z"/><path class="cls-1" d="m43.48,21.98c.66.03.67.02.87-.98.05-.24.14-.45.31-.61.18-.17.28-.37.26-.63-.03-.29,0-.52.14-.71.34-.46.67-.93,1-1.39.03-.37-.1-.77.2-1.07.23-.23.39-.58.61-.81.35-.37.37-.87.32-1.39-.06-.6.2-.95.48-1.3.06-.07.1-.22.09-.33-.02-.28,0-.53.11-.72.46-.81.48-.81.46-1.7,0-.29,0-.52.15-.7.24-.31.51-.24.77-.11.21.1.27.36.23.64-.01.13,0,.26,0,.39-.01.82-.03.85.38,1.34.27.32.1.75.21,1.06.12.33.36.58.55.87,0,.38-.02.74.24,1.05.36.43.34.46.33.98,0,.26,0,.52,0,.78,0,.69,0,.69.48,1.69.16.34.1.75.09,1.12,0,.28,0,.53.12.72.13.2.32.34.39.56.14.48.03,1.02.08,1.53.02.25.18.46.36.49.28.04.57.02.85.01.32,0,.5-.24.48-.74-.01-.3.02-.51.18-.69.15-.16.33-.34.38-.56.08-.34-.07-.77.22-1.06.15-.14.31-.36.35-.58.06-.36-.02-.77.26-1.03.17-.16.28-.36.32-.6.02-.12,0-.26,0-.39.01-.12.02-.28.08-.34.42-.43.56-1,.49-1.69-.05-.43.08-.75.32-.99.17-.18.28-.38.25-.64-.03-.29,0-.52.15-.7.14-.18.32-.34.39-.56.07-.22.03-.51.03-.76,0-.26-.05-.55.01-.78.06-.22.23-.41.37-.57.28-.29.09-.74.21-1.06.12-.33.36-.58.54-.87,0-.39,0-.78,0-1.18,0-.27.07-.48.25-.64.37-.34.34-.87.32-1.38-.02-.4.03-.76.29-1.01.26-.25.32-.61.28-1.01-.02-.25-.15-.5-.33-.54-.28-.06-.57-.02-.85-.01-.39,0-.51.13-.51.69,0,.29-.01.52-.16.7-.14.18-.32.34-.39.56-.07.22-.03.51-.03.77,0,.26.05.55-.01.78-.06.22-.22.42-.38.56-.37.33,0,1.03-.39,1.36-.23.2-.42.51-.36.96.02.13,0,.26,0,.39,0,.53,0,.52-.45,1.31-.19.33-.11.74-.11,1.11,0,.4-.04.76-.29,1.01-.17.17-.29.37-.28.62.02.29,0,.55-.13.71-.3.35-.53.73-.45,1.32q-.55,1.41-.58,2.42c0,.1-.11.22-.18.28-.13.1-.32,0-.36-.3-.06-.38-.03-.78,0-1.17.02-.29-.05-.48-.23-.66-.22-.24-.38-.52-.36-.97.04-.91,0-.91-.45-1.7-.18-.31-.04-.75-.2-1.06-.16-.3-.45-.47-.48-.91,0-.13.01-.27,0-.39-.02-.11-.07-.23-.12-.32-.44-.73-.45-.73-.44-1.32,0-.86.03-.9-.37-1.35-.28-.32-.11-.74-.22-1.06-.11-.33-.37-.57-.55-.87-.05-.08,0-.25,0-.38,0-.26,0-.52,0-.78,0-.39-.02-.77-.03-1.16-.2-.28-.43-.53-.6-.84-.17-.31-.26-.34-.42-.06-.18.3-.42.53-.59.85-.16.3,0,.75-.21,1.05-.13.19-.31.34-.39.56-.07.22-.05.5-.05.75q0,.85-.37,1.36c-.07.09-.18.17-.19.28-.03.25-.01.52-.01.78,0,.26.05.55-.01.78-.07.22-.24.41-.39.56-.34.34,0,1.02-.39,1.36-.24.2-.37.53-.35.97.04.87.01.87-.46,1.69-.18.31-.03.75-.21,1.06-.12.2-.28.36-.4.56-.05.09-.08.24-.07.35.03.29,0,.52-.14.71-.34.46-.67.92-1.01,1.39-.03.37.11.78-.2,1.07-.15.14-.27.36-.41.55q-.57.79-.54,2.05c.01.42.2.66.55.65.09,0,.19,0,.28,0Z"/><path class="cls-1" d="m61.91,14.45c-2.15,6.32-2.15,6.84-2.15,7.36,0,.73.15.97.61.95.28-.01.56,0,.84-.05.07-.01.17-.16.19-.27.04-.24.06-.5.06-.75,0-1.44.02-2.87,0-4.3,0-.45.13-.74.35-.97.28-.29.21-.68.22-1.05.19-.28.38-.57.58-.85.31-.45.74-.54.97-.22,1.14,1.57,2.28,3.14,3.42,4.7.27.37.56.71.8,1.12.22.39.53.16.76.31.24.15.42.5.63.76.19,0,.38,0,.56-.04.08-.02.17-.16.2-.27.05-.24.07-.49.07-.74,0-.11-.07-.22-.13-.31-.13-.19-.31-.34-.39-.56-.11-.32.05-.76-.21-1.06-.15-.16-.28-.35-.4-.55-.19-.34-.45-.37-.74-.4-.28-.03-.4-.3-.4-.83,0-.28-.07-.46-.23-.66-.3-.37-.28-.39-.34-.97-.05-.51-.16-.64-.54-.65-.38,0-.56-.16-.59-.59-.02-.4-.08-.72-.31-1.01-.34-.44-.39-.98-.15-1.33.2-.28.4-.56.61-.83.06-.08.16-.18.23-.16.44.1.68-.3.94-.67.62-.88.63-.93.86-.9.46.07.63-.46.92-.76.06-.06.18-.03.27-.04.09,0,.23.05.28-.01.42-.51.83-1.04,1.24-1.56.71.18.95-.69,1.35-1.18.23-.27.45-.43.74-.39.41-.28.71-.71.93-1.26-.07-.09-.13-.26-.2-.26-.47-.04-.94,0-1.41-.06-.35-.05-.53.24-.69.54-.22.4-.51.21-.78.27-1.02.77-1.02.79-1.47.77-.2,0-.35.08-.47.33-.11.23-.27.46-.43.44-.44-.06-.68.3-.95.66-.2.27-.55.03-.76.29-.28.35-.54.73-.81,1.1-.2.28-.4.55-.6.83-.07.09-.13.25-.2.26-.19.04-.39-.03-.57.02-.29.09-.35,0-.3-.4.05-.38.04-.78,0-1.17-.03-.31.02-.5.2-.68.15-.15.3-.35.36-.57.06-.23,0-.51.01-.78,0-.26-.03-.54.04-.76.07-.22.26-.37.39-.56.22-.32.17-.7.07-1.06-.08-.28-.26-.34-.47-.32-.28.03-.57,0-.85,0-.2.27-.4.55-.62.79-.25.27-.28.63-.28,1.02,0,.11-.07.23-.12.32-.43.71-.44.71-.44,1.32q0,.86-.36,1.36c-.07.09-.18.17-.19.28-.03.25-.02.52-.02.78,0,.26.05.55-.01.77-.06.22-.24.4-.38.56-.16.18-.2.39-.18.69.03.38,0,.77-.01,1.16-.13.18-.27.37-.4.55-.14.18-.16.41-.15.7.03.89,0,.89-.45,1.7-.05.09-.11.21-.11.32-.01.65,0,1.3,0,1.96,0,.25-.11.46-.28.62-.17.16-.28.37-.28.62,0,.78,0,1.57,2.15-3.45,2.22-5.84,2.35-5.85,2.4-5.79.04.06.04.24,0,.33-.08.24-.21.38-.33.35-.07-.02-.16-.14-.17-.24-.02-.17.09-.34-1.9,5.34Z"/><path class="cls-1" d="m78.31,20.07c-.38,0-.76,0-1.14,0-.49,0-.49,0-1.22-.66-.25-.22-.54-.13-.81-.12-.21,0-.42.03-.52-.16-.32-.61-.75-.7-1.24-.63-.09.01-.19-.03-.28,0-.18.07-.34.24-.37.49-.03.24.03.5.04.75.27.37.54.74.8,1.1.27.05.56-.15.78.27.1.2.25.43.41.49.26.09.55-.05.76.33.1.19.27.41.43.45.27.07.57.01.85.02.09,0,.18.03.26.09.08.06.14.18.2.27.3.42.32.44.6,0,.14-.21.27-.37.46-.37.57,0,1.14,0,1.71,0q.65.01,1.49-.72c.36-.05.72-.07.98-.54.17-.31.4-.56.6-.84.2-.28.4-.56.6-.83.42-.57.46-.58.43-.92-.04-.47.19-.69.38-.96.06-.09.19-.18.19-.28.02-.78,0-1.56.01-2.34-.19-.28-.42-.54-.56-.86-.08-.19-.03-.5-.04-.76-.27-.37-.54-.74-.8-1.11-.26-.09-.56.1-.77-.27-.12-.2-.25-.45-.41-.53-.25-.12-.56.12-.77-.3-.1-.2-.26-.43-.42-.48-.26-.09-.56.05-.75-.35-.11-.23-.27-.46-.43-.44-.44.06-.68-.29-.95-.66-.46-.66-.93-1.29-1.4-1.94-.14-.2-.17-.87-.03-1.06.27-.36.54-.71.82-1.06.27-.02.56.08.76-.31.17-.31.38-.53.71-.48.28.04.57.01.85,0,.37,0,.36,0,.95.63.24.26.53.14.81.15.45,0,.45,0,.73-.4.13-.19.27-.37.4-.55.25-.36.22-.93-.07-1.33-.07-.09-.13-.19-.2-.27-.21-.23-.32-.6-.68-.59-.85.04-1.7.01-2.56.01h-1.14c-.21.26-.4.54-.62.77-.06.06-.18,0-.28.01-.09,0-.22-.05-.27.02-.35.44-.68.91-1.01,1.37-.27.37-.53.75-.81,1.1-.16.19-.19.39-.18.69.02.78.02,1.56,0,2.34,0,.29.06.46.22.67.48.62.94,1.28,1.41,1.93.13.18.26.43.42.49.26.09.55-.05.76.33.1.19.28.32.42.47.43-.11.67.29.95.63.26.32.72.05.97.56.16.32.39.56.59.84.27.37.54.74.8,1.11q.29.4.29,1.01c0,.52.01,1.04,0,1.56,0,.25-.13.51-.31.57-.66.21-.66.19-.96.59-.2.28-.4.56-.61.83-.06.08-.15.15-.23.16-.66.01-1.33,0-1.99,0Z"/></g></svg>