<?xml version="1.0" encoding="UTF-8"?><svg id="Layer_2" xmlns="http://www.w3.org/2000/svg" width="292.79" height="239.53" viewBox="0 0 292.79 239.53"><defs><style>.cls-1{fill:none;stroke:#ed1c24;stroke-miterlimit:10;stroke-width:2px;}</style></defs><g id="Layer_1-2"><path class="cls-1" d="m49.56,31.68c27.3,2.39,57.3-6.31,57.36-14.15.07-8.01-31.04-15.52-55.34-16.42C30.99.34,1.88,3.83,1.04,11.46c-.81,7.37,24.81,18.14,48.52,20.22Z"/><path class="cls-1" d="m7.61,12.47c8.38,4.56,21.71,10.43,38.98,12.67,25.04,3.25,45.03-2.87,55.02-6.73"/><path class="cls-1" d="m14.59,33.5l27.05,9.47c-.42,1.13-1.19,2.75-2.62,4.24-8.53,8.9-31.14,3.35-32.5-3.59-.4-2.04.84-5.21,8.07-10.12Z"/><path class="cls-1" d="m3.42,16.12L1.02,60.68c1.03,1.05,2.63,2.56,4.76,4.17,8.86,6.7,18.76,8.8,43.99,10.45,7.32.48,16.37.95,26.78,1.21-.67-7.19,2.52-14.2,8.36-18.32,8.62-6.09,18.22-2.53,18.94-2.25l2.57-36.67c-1.99,1.75-5,4.11-9.03,6.24-3.6,1.9-8.92,4.09-20.83,5.5-18.76,2.21-32.91,0-35.83-.47-4.94-.81-11.23-1.87-19.13-4.89-7.82-2.98-13.92-6.61-18.17-9.53Z"/><path class="cls-1" d="m29.59,73.41v9.66c3.75,2.01,10.61,5.06,19.72,5.64,7.87.5,14.21-1.04,18.06-2.3v-10.19c-6.39-.2-13.03-.55-19.9-1.07-6.17-.47-12.14-1.06-17.88-1.73Z"/><path class="cls-1" d="m35.42,117.1c-1.49-1.7-2.96-3.78-4.15-6.29-5.46-11.5-.96-23.4.41-26.69"/><line class="cls-1" x1="65.69" y1="86.92" x2="65.69" y2="91.55"/><path class="cls-1" d="m36.61,149.29c-.52-1.18-1.25-2.98-1.89-5.24-3.69-13.11-1.57-32.2,11.41-43.17,1.13-.96,14.11-11.63,25.89-7.23,2.19.82,3.83,1.97,4.9,2.85,7.08-1.41,11.22.85,12.51,1.65,9.73,6.04,7.08,22.12,6.53,25.46-.74,4.46-1.77,10.71-5.51,11.92-5.51,1.77-10-9.6-18.07-8.91-3.85.33-5.34,3.12-14.48,12.3-5.14,5.16-9.55,9.18-12.49,11.79-.13-6.46-1.85-11.03-3.6-11.17-1.71-.13-3.99,3.93-5.2,9.75Z"/><path class="cls-1" d="m47.82,138.21c.23-4.44,1.46-16.6,10.59-27.86,6.61-8.15,14.35-12.1,18.5-13.86"/><path class="cls-1" d="m59.98,97.93c-3.04,1.48-11.47,6.08-17,16.22-5.83,10.67-4.79,20.79-4.32,24.06"/><path class="cls-1" d="m45.41,150.7c-.13-6.46-1.85-11.03-3.6-11.17-1.71-.13-3.99,3.93-5.2,9.75-1.02,5.08-2.16,12.5-2.26,21.49-.14,13.55,2.13,26.98,3.66,26.94,1.29-.03,1.3-9.65,4.45-30.08,1.1-7.12,2.18-12.97,2.95-16.93Z"/><path class="cls-1" d="m83.58,132.83c-.78,6.45-1.65,19.84,4.08,30.15,1.5,2.69,2.15,2.84,2.47,2.78,2.49-.44,1.72-16.51.64-30.26-.36.1-.89.22-1.53.2-.64-.02-1.27-.17-2.17-.58-.8-.36-2.07-1.04-3.49-2.3Z"/><path class="cls-1" d="m38.17,204.68c2.05-.01,5.98,9.71,1.83,13.98-1.06,1.09-3.18,2.38-4.44,1.64-3.11-1.85.16-15.61,2.6-15.62Z"/><path class="cls-1" d="m37.3,229.08c1.66-.05,3.27,2.65,3.18,5.01-.08,2.02-1.41,4.42-2.99,4.44-1.64.02-3.06-2.56-3.09-4.72-.02-2.14,1.32-4.68,2.89-4.72Z"/><path class="cls-1" d="m220.92,91c-31.47-8.33-62.95-16.66-94.42-24.99-7.55-3.36-15.1-6.71-22.64-10.07-.52-.18-11.94-3.93-20.59,3.55-4.43,3.83-7.84,10.36-6.71,17.02.79,4.69,3.56,7.83,4.91,9.35,3.86,4.38,8.56,6.08,10.34,6.72,8.66,3.11,54.79,18.38,118.26,38.71-1.06-3.27-3.55-12.43-.15-23.26,2.85-9.1,8.39-14.69,11.02-17.04Z"/><path class="cls-1" d="m121.87,102.68c-10.13-3.77-15.09-14.89-11.66-24.02,2.97-7.92,11.74-12.95,20.86-11.45"/><path class="cls-1" d="m210.49,105.95c1.31-3.82,3.71-10.81,10.43-14.95,4.51-2.78,9.45-3.34,17.55-2.7,8.43.67,21.39,2.74,36.91,9.53,2.63.85,6.58,2.54,9.89,6.08,9.85,10.51,8.02,30.71-2.03,42.83-6.37,7.69-14.8,10.62-19.66,11.8-8.34-2.46-18.09-5.78-28.76-10.32-18-7.65-21-11.28-22.61-13.76-7.52-11.61-2.52-26.17-1.72-28.51Z"/><path class="cls-1" d="m263.58,158.54c-10.85-7.48-16.43-20.56-14.26-33.43,2.27-13.44,12.6-24.27,26.05-27.28"/></g></svg>