<?xml version="1.0" encoding="UTF-8"?><svg id="Layer_2" xmlns="http://www.w3.org/2000/svg" width="298.59" height="240.87" viewBox="0 0 298.59 240.87"><defs><style>.cls-1{fill:none;stroke:#da3832;stroke-miterlimit:10;stroke-width:2px;}</style></defs><g id="Layer_1-2"><polygon class="cls-1" points="17.67 83.94 33.67 72.91 5.32 67.87 27.71 57.91 3.92 50.29 33.67 44.08 18.79 32.24 53.85 33.3 44.82 18.18 78.35 21.34 82.33 6.81 113.39 14.31 128.04 1.18 148.79 10.56 175.4 1.18 188.41 15.01 217.59 7.39 222.63 21.46 254.05 17 249.83 30.83 282.06 31.07 267.53 41.03 295.19 49.35 273.39 58.5 295.19 67.87 268.46 72.91 282.65 83.23 249.12 83.94 255.92 97.41 222.4 95.42 221.11 108.78 187.71 101.51 174.69 114.76 151.13 103.97 128.4 114.17 112.45 101.87 83.15 109.95 78.93 95.3 43.42 98.7 53.26 83.93 17.67 83.94"/><path class="cls-1" d="m5.32,67.87c4.61,5.01,9.22,10.03,13.83,15.04"/><path class="cls-1" d="m5.43,50.78c2.62,4.52,5.23,9.04,7.85,13.56"/><path class="cls-1" d="m18.79,32.24c1.43,4.68,2.86,9.37,4.29,14.05"/><path class="cls-1" d="m282.06,31.07c-1.6,4.3-3.21,8.59-4.81,12.89"/><path class="cls-1" d="m295.19,49.35l-7.49,15.3"/><path class="cls-1" d="m295.19,67.87c-4.47,4.91-8.94,9.82-13.41,14.73l-98.18,151.4-4.95-.82-2.96,2.68-6.5-.67-2.39,2.49-5.55-.77-4.78,2.68-5.45-2.77-3.35,2.77-3.83-3.06-5.45,3.06-5.36-3.83-6.02.86-2.68-3.54-5.26.1L17.67,83.94"/><line class="cls-1" x1="68.65" y1="96.29" x2="33.67" y2="44.08"/><line class="cls-1" x1="53.85" y1="33.3" x2="92.87" y2="107.27"/><line class="cls-1" x1="78.35" y1="21.34" x2="102.16" y2="104.71"/><polyline class="cls-1" points="113.39 14.31 128.4 114.17 138.39 239.58"/><polyline class="cls-1" points="148.79 10.56 151.13 103.97 143.85 236.52"/><polyline class="cls-1" points="188.41 15.01 172.59 113.8 151.02 236.81"/><line class="cls-1" x1="222.63" y1="21.46" x2="200.61" y2="104.32"/><line class="cls-1" x1="249.83" y1="30.83" x2="226.61" y2="95.67"/><line class="cls-1" x1="267.53" y1="41.03" x2="235.33" y2="96.19"/><path class="cls-1" d="m48.31,98.23c23.59,44.98,47.18,89.96,70.77,134.94"/><path class="cls-1" d="m83.15,109.95c13.73,41.04,27.46,82.08,41.19,123.12"/><path class="cls-1" d="m112.45,101.87c6.86,44.63,13.72,89.26,20.58,133.89"/><line class="cls-1" x1="192.24" y1="102.5" x2="161.25" y2="236.9"/><line class="cls-1" x1="221.11" y1="108.78" x2="169.19" y2="235.18"/><line class="cls-1" x1="255.92" y1="97.41" x2="178.66" y2="233.17"/></g></svg>