<?xml version="1.0" encoding="UTF-8"?><svg id="Layer_2" xmlns="http://www.w3.org/2000/svg" width="622.76" height="19.9" viewBox="0 0 622.76 19.9"><defs><style>.cls-1{fill:none;stroke:#ed1c24;stroke-miterlimit:10;stroke-width:2px;}</style></defs><g id="Layer_1-2"><path class="cls-1" d="m2.8,10.34c-1.01.29-1.79-1.17-1.8-2.39-.01-1.19.71-2.62,1.7-2.43,74.3.82,148.61,1.64,222.91,2.46.4-.5,1.28-1.46,2.5-1.51.89-.04,1.59.41,2,.75l3.65-.11c.23-.27.84-.91,1.68-.82.81.09,1.38.81,1.61,1.12l1.71.05c.18-.29.84-1.28,1.81-1.23.87.04,1.47.89,1.67,1.2l2.04.05,3.65-6.17c1.7.21,3.4.42,5.1.63-1.6,2.1-3.2,4.2-4.79,6.3-.03.04-.42.67-.35,1.54.02.3.09.52.14.66,1.65,2.44,3.31,4.87,4.96,7.31l-5.21.46-3.55-6.29-2.14-.18c-.19.33-.61.96-1.22,1.15-1.08.34-1.89-.96-2.03-1.18l-1.77-.05c-.27.38-.81,1-1.56,1.19-1,.25-1.78-.45-2.08-.76-.95-.07-1.91-.14-2.86-.22-.51.31-1.26.64-2.18.61-1.14-.05-2.04-.64-2.6-1.11-74.32-.34-148.65-.68-222.97-1.02Z"/><path class="cls-1" d="m252.39,9.69c.65-.93,1.66-2.13,3.02-2.84,2.12-1.12,3.93-.45,4.83.02.87.28,1.73.56,2.6.84,2.18.7,3.29.69,4.58-.14,1.3-.83,1.71-2.02,2.75-1.68.7.23.81.88,1.63,1.09,1.04.26,1.22-.68,2.22-.58,1.28.12,1.43,1.7,2.44,1.55,1.08-.16,1.14-1.97,2.16-2.15,1.2-.21,1.51,2.2,2.84,2.34,1.34.14,1.4-2.27,2.9-2.4,1.22-.11,1.66,1.46,3.61,1.76.56.09,1.01.04,1.3-.01.42-1.21,1.06-2.7,2.04-3.87,2.98-3.57,6.36-.92,6.88-.5-.55-.05-3.22-.16-4.72,3.57-.3.75-1,2.48-.8,4.57.17,1.82.92,2.89,1.37,3.52,1.62,2.29,3.51,1.86,4.19,1.63-.13.2-2.79,4.14-5.7,1.69-1.75-1.48-2.58-4.41-2.82-5.36-.56-.3-1.43-.62-2.45-.29-1.47.47-1.71,1.78-2.75,1.64-1.43-.21-1.69-2.72-2.93-2.62-1.21.1-1.36,2.56-2.52,2.51-1.12-.05-1.4-2.36-2.68-2.38-.64-.01-.77.55-1.69.98-1.02.48-1.92.28-2.54.03-.47.67-1.18,1.44-2.02,1.36-1.15-.1-1.41-1.65-2.61-1.97-1.3-.35-1.46,1.36-3.01,1.35-1.3-.01-1.58-1.21-2.97-1.36-1.08-.12-1.97.5-2.52,1-.7.26-1.97.53-3.49-.22-1.5-.75-2.57-2.16-3.14-3.05Z"/><path class="cls-1" d="m299.21,9.91c.57-.84,1.86-2.5,3.71-2.76,1.15-.16,2.09.28,2.7.67l1.78-.06.06,5.15c-.6-.11-1.19-.21-1.79-.32-.64.32-1.66.67-2.9.31-1.75-.5-2.98-2.12-3.56-3Z"/><path class="cls-1" d="m619.96,9.59c1.01-.29,1.79,1.17,1.8,2.39.01,1.19-.71,2.62-1.7,2.43-74.3-.83-148.61-1.66-222.91-2.49-.4.5-1.28,1.46-2.5,1.51-.89.04-1.59-.41-2-.75l-3.65.11c-.23.27-.84.91-1.68.82-.81-.09-1.38-.81-1.61-1.12l-1.71-.05c-.18.29-.84,1.28-1.81,1.23-.87-.04-1.47-.89-1.67-1.2l-2.04-.05-3.65,6.17c-1.7-.21-3.4-.42-5.1-.63,1.6-2.1,3.2-4.2,4.79-6.3.03-.04.42-.67.35-1.54-.02-.3-.09-.52-.14-.66-1.65-2.44-3.31-4.87-4.96-7.31l5.21-.46,3.55,6.29,2.14.18c.19-.33.61-.96,1.22-1.15,1.08-.34,1.89.96,2.03,1.18l1.77.05c.27-.38.81-1,1.56-1.19,1-.25,1.78.45,2.08.76.95.07,1.91.14,2.86.22.51-.31,1.26-.64,2.18-.61,1.14.05,2.04.64,2.6,1.11,74.32.35,148.65.7,222.97,1.05Z"/><path class="cls-1" d="m370.37,10.21c-.65.93-1.66,2.13-3.02,2.84-2.12,1.12-3.93.45-4.83-.02-.87-.28-1.73-.56-2.6-.84-2.18-.7-3.29-.69-4.58.14-1.3.83-1.71,2.02-2.75,1.67-.7-.23-.81-.88-1.63-1.09-1.04-.26-1.22.68-2.22.58-1.28-.12-1.43-1.71-2.44-1.55-1.08.16-1.14,1.97-2.16,2.15-1.2.21-1.51-2.2-2.84-2.34-1.34-.14-1.4,2.27-2.9,2.4-1.22.11-1.66-1.46-3.61-1.77-.56-.09-1.01-.04-1.3.01-.42,1.21-1.06,2.7-2.04,3.87-2.98,3.57-6.36.92-6.88.5.55.05,3.22.16,4.72-3.57.3-.75,1-2.48.8-4.57-.17-1.82-.92-2.89-1.37-3.52-1.62-2.29-3.51-1.86-4.19-1.63.13-.2,2.79-4.14,5.7-1.69,1.75,1.48,2.58,4.41,2.82,5.36.56.3,1.43.62,2.45.29,1.47-.47,1.72-1.78,2.75-1.64,1.43.21,1.69,2.72,2.93,2.62,1.21-.1,1.36-2.56,2.52-2.5,1.12.05,1.4,2.36,2.68,2.38.64.01.77-.55,1.69-.98,1.02-.48,1.92-.28,2.54-.03.47-.67,1.18-1.44,2.02-1.36,1.15.1,1.41,1.65,2.61,1.97,1.3.35,1.46-1.36,3.01-1.35,1.3.01,1.58,1.21,2.97,1.36,1.08.12,1.97-.5,2.52-1,.7-.26,1.97-.53,3.49.22,1.5.75,2.57,2.16,3.14,3.05Z"/><path class="cls-1" d="m323.55,9.98c-.57.84-1.87,2.5-3.71,2.76-1.15.16-2.09-.28-2.7-.67l-1.78.06-.06-5.15c.6.11,1.19.21,1.79.32.64-.32,1.66-.67,2.9-.31,1.75.5,2.98,2.12,3.56,3Z"/></g></svg>