<?xml version="1.0" encoding="UTF-8"?><svg id="Layer_2" xmlns="http://www.w3.org/2000/svg" width="621.23" height="20.13" viewBox="0 0 621.23 20.13"><defs><style>.cls-1{fill:none;stroke:#ed1c24;stroke-miterlimit:10;stroke-width:2px;}</style></defs><g id="Layer_1-2"><path class="cls-1" d="m4.58,7.41c-2.04.28-3.58-1.19-3.58-2.41,0-1.19,1.48-2.61,3.47-2.41,149.55,1.62,299.1,3.25,448.65,4.87.81-.5,2.61-1.44,5.06-1.49,1.78-.03,3.19.43,4.01.77l7.34-.07c.47-.27,1.71-.9,3.39-.8,1.63.09,2.77.82,3.21,1.14l3.43.07c.37-.29,1.71-1.27,3.67-1.21,1.75.05,2.95.91,3.34,1.21l4.11.07,7.48-6.13c3.42.23,6.84.46,10.26.69-3.26,2.08-6.52,4.17-9.78,6.25-.05.04-.86.66-.74,1.53.04.3.17.52.27.67,3.28,2.45,6.56,4.91,9.83,7.36l-10.51.4-7-6.33-4.31-.2c-.39.33-1.24.95-2.47,1.14-2.18.33-3.79-.98-4.06-1.2l-3.57-.07c-.56.37-1.65.99-3.17,1.17-2.03.24-3.58-.47-4.18-.78-1.92-.08-3.83-.16-5.75-.25-1.04.31-2.55.63-4.39.58-2.29-.06-4.1-.66-5.21-1.14-149.6-1.15-299.2-2.29-448.8-3.44Z"/><path class="cls-1" d="m506.99,9.48c1.33-.92,3.39-2.11,6.13-2.81,4.3-1.1,7.92-.41,9.73.07,1.74.29,3.47.58,5.21.87,4.37.73,6.6.72,9.23-.09,2.63-.82,3.49-2,5.56-1.65,1.41.24,1.61.89,3.26,1.1,2.08.27,2.47-.66,4.48-.56,2.57.14,2.84,1.72,4.88,1.58,2.17-.15,2.33-1.96,4.39-2.13,2.41-.2,3,2.21,5.67,2.37,2.69.16,2.88-2.25,5.89-2.37,2.46-.1,3.31,1.48,7.22,1.8,1.12.09,2.03.05,2.61,0,.86-1.2,2.2-2.69,4.18-3.85,6.07-3.54,12.83-.85,13.86-.43-1.1-.05-6.48-.2-9.57,3.52-.62.75-2.06,2.47-1.72,4.56.3,1.82,1.8,2.9,2.68,3.53,3.2,2.31,7.03,1.9,8.41,1.68-.27.2-5.71,4.11-11.51,1.63-3.49-1.49-5.1-4.44-5.56-5.39-1.12-.31-2.87-.63-4.92-.32-2.96.45-3.49,1.77-5.56,1.61-2.88-.22-3.33-2.74-5.83-2.65-2.43.09-2.8,2.54-5.13,2.48-2.25-.06-2.76-2.37-5.35-2.41-1.28-.02-1.57.54-3.41.96-2.06.47-3.87.26-5.11,0-.96.67-2.4,1.43-4.1,1.34-2.31-.11-2.81-1.66-5.2-2-2.61-.36-2.97,1.35-6.09,1.31-2.61-.03-3.16-1.23-5.94-1.39-2.17-.13-3.97.48-5.1.97-1.42.25-3.97.51-7.01-.26-3.01-.76-5.12-2.19-6.24-3.08Z"/><path class="cls-1" d="m603.7,10.2c1.16-.83,3.81-2.48,7.53-2.72,2.32-.15,4.21.3,5.41.7l3.58-.04v5.15c-1.2-.11-2.39-.22-3.59-.34-1.29.32-3.35.65-5.84.28-3.51-.52-5.94-2.15-7.09-3.03Z"/></g></svg>