<?xml version="1.0" encoding="UTF-8"?><svg id="Layer_2" xmlns="http://www.w3.org/2000/svg" width="500.14" height="46.04" viewBox="0 0 500.14 46.04"><defs><style>.cls-1{fill:none;stroke:#006ab6;stroke-miterlimit:10;stroke-width:2px;}</style></defs><g id="Layer_1-2"><path class="cls-1" d="m.57,20.38c6.12-4.23,15.47-9.39,27.41-10.74,16.3-1.85,23.87,4.91,56.94,17.19,36.61,13.6,49.98,13.72,58.87,12.8,6.7-.69,16.08-3.26,24.23-6.33,5.99-2.26,8.5-3.78,10.59-5.41,2.13-1.67,12.13-9.5,10.02-17.98-1.14-4.58-5.78-9.24-10.58-8.88-5.53.41-9.65,7.35-9.68,12.89-.06,10.49,14.55,18.38,23.51,21.33,11.55,3.8,21.91,2.06,30.75.06,30.24-6.85,34.1-14.9,56.62-21.23,2.43-.68,55.59-15.01,81.03,7.34,2.87,2.52,6.32,6.33,13.21,10.78,5.11,3.3,16.06,9.52,31,11.81,4.91.75,28.53,4.36,49.34-8.35,10.63-6.5,13.12-12.72,27.69-19.54,7.39-3.46,13.97-5.23,18.42-6.19"/></g></svg>