<?xml version="1.0" encoding="UTF-8"?><svg id="Layer_2" xmlns="http://www.w3.org/2000/svg" width="19.04" height="579.85" viewBox="0 0 19.04 579.85"><defs><style>.cls-1{fill:none;stroke:#e1b628;stroke-miterlimit:10;}</style></defs><g id="Layer_1-2"><path class="cls-1" d="m7.77,2.19c-.29-.94,1.16-1.68,2.38-1.69,1.19-.01,2.63.65,2.44,1.57-.49,69.29-.98,138.58-1.48,207.87.5.37,1.46,1.19,1.53,2.32.05.83-.4,1.48-.74,1.87l.12,3.4c.27.21.91.78.83,1.56-.08.76-.8,1.29-1.11,1.5l-.04,1.59c.29.17,1.28.77,1.24,1.68-.04.81-.89,1.38-1.19,1.56l-.04,1.9,6.19,3.38c-.2,1.59-.41,3.17-.61,4.76-2.11-1.48-4.21-2.96-6.32-4.44-.04-.02-.67-.39-1.54-.32-.29.02-.52.08-.66.14-2.43,1.55-4.86,3.11-7.29,4.66l-.48-4.86,6.28-3.33.17-2c-.33-.18-.96-.56-1.16-1.13-.34-1.01.95-1.77,1.17-1.9l.04-1.65c-.38-.25-1.01-.75-1.2-1.45-.25-.94.44-1.66.75-1.95.07-.89.14-1.78.2-2.67-.32-.48-.65-1.17-.61-2.03.04-1.06.63-1.91,1.1-2.43.01-69.3.03-138.61.04-207.91Z"/><path class="cls-1" d="m9.51,234.91c.93.6,2.13,1.54,2.86,2.8,1.13,1.98.47,3.66,0,4.51-.28.81-.55,1.62-.83,2.42-.69,2.03-.67,3.07.16,4.27.84,1.21,2.03,1.59,1.69,2.55-.23.65-.88.76-1.08,1.53-.26.97.68,1.13.59,2.07-.12,1.19-1.7,1.34-1.54,2.28.17,1,1.97,1.05,2.16,2,.22,1.11-2.19,1.42-2.33,2.66-.14,1.25,2.27,1.3,2.41,2.69.11,1.14-1.45,1.55-1.75,3.37-.08.52-.03.94.02,1.21,1.21.38,2.71.98,3.88,1.88,3.59,2.76.95,5.93.53,6.41.04-.51.15-3-3.59-4.38-.75-.28-2.49-.92-4.57-.73-1.82.17-2.88.87-3.51,1.29-2.28,1.52-1.84,3.28-1.61,3.92-.2-.12-4.16-2.59-1.72-5.31,1.47-1.64,4.4-2.42,5.35-2.65.3-.52.61-1.34.28-2.28-.47-1.36-1.79-1.59-1.65-2.55.2-1.34,2.72-1.58,2.61-2.74-.11-1.13-2.57-1.26-2.52-2.34.05-1.04,2.35-1.31,2.37-2.51,0-.6-.55-.72-.99-1.57-.48-.95-.29-1.79-.04-2.37-.68-.44-1.44-1.09-1.37-1.88.1-1.07,1.64-1.32,1.96-2.44.34-1.22-1.37-1.36-1.36-2.8,0-1.21,1.2-1.48,1.35-2.77.11-1.01-.51-1.83-1.01-2.35-.26-.65-.54-1.83.2-3.25.74-1.41,2.15-2.4,3.03-2.94Z"/><path class="cls-1" d="m9.51,278.58c.84.53,2.51,1.73,2.77,3.45.17,1.07-.27,1.95-.66,2.52l.07,1.66-5.15.07c.1-.56.21-1.11.31-1.67-.33-.59-.67-1.54-.33-2.7.49-1.63,2.1-2.78,2.98-3.33Z"/><path class="cls-1" d="m11.24,577.66c.29.94-1.16,1.68-2.38,1.69-1.19.01-2.63-.65-2.44-1.57.5-69.29,1-138.58,1.5-207.87-.5-.37-1.46-1.19-1.53-2.32-.04-.83.4-1.48.74-1.87l-.12-3.4c-.27-.21-.91-.78-.83-1.56.08-.76.8-1.29,1.12-1.5l.04-1.59c-.29-.17-1.28-.77-1.24-1.68.04-.81.89-1.38,1.19-1.56l.04-1.9-6.18-3.38c.2-1.59.41-3.17.61-4.76,2.11,1.48,4.21,2.96,6.32,4.44.04.02.67.39,1.54.32.29-.02.52-.08.66-.14,2.43-1.55,4.86-3.11,7.29-4.66l.48,4.86-6.28,3.33-.17,2c.33.18.96.56,1.16,1.13.34,1.01-.95,1.77-1.17,1.9l-.04,1.65c.38.25,1.01.75,1.19,1.45.25.94-.44,1.66-.75,1.95-.07.89-.14,1.78-.2,2.67.32.48.65,1.17.61,2.03-.04,1.06-.63,1.91-1.1,2.43-.02,69.3-.04,138.61-.07,207.91Z"/><path class="cls-1" d="m9.52,344.94c-.93-.6-2.13-1.54-2.86-2.8-1.13-1.98-.47-3.66,0-4.51.28-.81.55-1.62.83-2.42.69-2.03.67-3.07-.16-4.27-.84-1.21-2.03-1.59-1.69-2.55.23-.65.88-.76,1.08-1.53.26-.97-.68-1.13-.59-2.07.12-1.19,1.7-1.34,1.54-2.28-.17-1-1.97-1.05-2.16-2-.22-1.11,2.19-1.42,2.33-2.66.14-1.25-2.27-1.3-2.41-2.69-.11-1.14,1.45-1.55,1.75-3.37.08-.52.03-.94-.02-1.21-1.21-.38-2.71-.98-3.88-1.88-3.59-2.76-.95-5.93-.53-6.41-.04.51-.15,3,3.59,4.38.75.28,2.49.92,4.57.73,1.82-.17,2.88-.87,3.51-1.29,2.28-1.52,1.84-3.28,1.61-3.92.2.12,4.15,2.59,1.72,5.31-1.47,1.64-4.4,2.42-5.35,2.65-.3.52-.61,1.34-.28,2.28.47,1.36,1.79,1.59,1.65,2.55-.2,1.34-2.72,1.58-2.61,2.74.11,1.13,2.57,1.26,2.52,2.34-.05,1.04-2.35,1.31-2.37,2.51,0,.6.55.72.99,1.57.48.95.29,1.79.04,2.37.68.44,1.44,1.09,1.37,1.88-.1,1.07-1.64,1.32-1.96,2.44-.34,1.22,1.37,1.36,1.36,2.8,0,1.21-1.21,1.48-1.35,2.77-.11,1.01.51,1.83,1.01,2.35.26.65.54,1.83-.21,3.25-.74,1.41-2.15,2.4-3.03,2.94Z"/><path class="cls-1" d="m9.54,301.27c-.84-.53-2.51-1.73-2.77-3.45-.17-1.07.27-1.95.66-2.52l-.07-1.66,5.15-.07c-.1.56-.21,1.11-.31,1.67.33.59.67,1.54.32,2.7-.49,1.63-2.1,2.78-2.98,3.33Z"/></g></svg>