<?xml version="1.0" encoding="UTF-8"?><svg id="Layer_2" xmlns="http://www.w3.org/2000/svg" width="341.23" height="314.65" viewBox="0 0 341.23 314.65"><defs><style>.cls-1{fill:none;stroke:#ed1c24;stroke-miterlimit:10;stroke-width:2px;}</style></defs><g id="Layer_1-2"><path class="cls-1" d="m145.05,1.03c3.76.07,6.71.22,12.16.5,67.65,3.47,86.97,16.09,94.03,21.35,1.81,1.34,4.02,3.1,6.44,5.32,16.94-18.98,43.37-23.54,61.75-12.58,21.03,12.54,23.41,40.56,18.87,56.99-3.14,11.35-8.87,14.61-25.38,37.39-10.61,14.64-18.32,27.19-23.09,35.35-8.06,13.49-16.11,26.99-24.17,40.48.48,7.75,3.37,69.73-40.65,104.53-29.85,23.6-66.99,23.4-91.97,23.27-20.97-.11-36.75-.19-54.45-8.84-48.56-23.72-58.56-86.06-60.63-98.99-4.29-26.73-.72-49.7,2.67-71.5,3.55-22.84,9.03-41.53,13.64-54.84C6.65,67.2.88,57.35,1,50.47,1.44,24.9,83.88-.04,145.05,1.03Z"/><path class="cls-1" d="m34.27,79.47c23.18,6.91,55.79,13.9,95.1,13.84,50.2-.08,90.44-11.61,116.06-21.22,2.77-1.07,6.73-3.03,10.5-6.64,7.74-7.41,9.32-16.64,9.72-19.85,22.6-21.31,45.71-28.96,54.87-21.48,9.64,7.87,4.08,32.73,3.04,37.35-2.42,10.82-6.87,19.04-10.27,24.27-16.26,22.03-32.52,44.06-48.79,66.09l-5.98-41.87c-3.32-12.25-6.65-24.49-9.97-36.74"/><path class="cls-1" d="m44.54,46.17c-1.1,3.96-2.1,10.16.54,16.14,3.54,8.03,12.23,12.55,29.56,16.53,22.39,5.14,41.02,5.2,54.75,4.91,0,0,41.73-.88,83.06-12.3,6.81-1.88,17.21-5.05,23.14-14.53,3.93-6.28,4.42-12.98,4.31-17.22"/></g></svg>