<?xml version="1.0" encoding="UTF-8"?><svg id="Layer_2" xmlns="http://www.w3.org/2000/svg" width="123.64" height="38.38" viewBox="0 0 123.64 38.38"><defs><style>.cls-1{stroke:#000;stroke-miterlimit:10;}</style></defs><g id="Layer_1-2"><path class="cls-1" d="m.5,14.02c0,1.55,0,3.09,0,4.64q0,.77.52,1.94c.06.14.13.32.13.48.01.97,0,1.93,0,2.9,0,.37.12.68.32.92.2.24.32.55.32.92,0,2.9,0,5.8,0,8.7,0,.37.16.72.37.81.2.08.43.02.63-.06.09-.03.16-.26.23-.39l.46-.82.92-1.64.92-1.64c.23-.41.43-.9.7-1.21.42-.51.19-1.44.46-1.99.36-.72.78-1.34,1.14-2.07.27-.54.74-.84.69-1.82-.03-.54,0-.55.93-2.21l.92-1.64,1.15-2.05,2.77-4.92c.46-.82.9-1.69,1.39-2.45.46-.71.73-2,1.54-1.78.48-.48.79-1.28,1.18-1.93.4-.66.84-1.28,1.14-2.07.35-.91,1.03-.34,1.37-1.2.18-.47.48-.8.68-1.25.23-.52.54-.49.86-.55.23-.04.4-.39.35-.67-.08-.42-.29-.5-.53-.49-.5.02-.5,0-1.69,1.17-.31.06-.65-.21-.89.41-.12.3-.31.5-.47.75-.66-.26-.95.67-1.32,1.31-.3.52-.56,1.17-1.07,1.02-.08-.02-.2.09-.27.21-.86,1.46-1.65,3.05-2.57,4.41-.06.1-.21,0-.32.01-.29.02-.28.04-1.01,1.3-.18.31-.26.56-.24,1,.03.75-.12,1.05-.49,1.19-.8.28-.8.29-.81,1.23,0,.79-.12,1-.55,1.09-.11.02-.24-.07-.32.01-.54.53-.82,1.22-1.08,2.57-.03.17-.04.38-.11.5-1.53,2.74-3.07,5.47-4.61,8.22-.18.32-.32.31-.46-.19-.04-.16-.06-.37-.05-.54.07-.69-.2-1.03-.42-1.44-.08-.14-.18-.25-.22-.42-.04-.16-.02-.38-.02-.57,0-2.71-.02-5.42.01-8.12,0-.73-.27-.99-.46-1.41-.07-.14-.19-.29-.19-.43-.01-1.74-.01-3.48,0-5.22,0-.7-.12-1.07-.55-1.1-.33-.02-.66-.05-.98.01-.21.04-.41.36-.42.72-.02,1.93-.01,3.87-.01,5.8Z"/><path class="cls-1" d="m22.67,35.01c1.02,0,2.04,0,3.07,0,.3,0,.32.02.59-.48.12-.23.23-.33.39-.35.18-.02.31.02.42.24.1.21.2.46.34.56.13.1.32.09.46.01.16-.08.24-.35.25-.61.01-.27,0-.54,0-.82,0-.61-.01-.59-.25-1.05-.27-.52-.55-.95-.99-.78-1.97,0-3.93,0-5.9,0-.17,0-.33-.06-.38-.36-.07-.37-.12-.77.08-1.1.11-.19.26-.35.32-.59.06-.23.02-.53.02-.8,0-.27,0-.55,0-.82.22-.39.43-.78.66-1.16.05-.08.14-.1.21-.1.47,0,.94,0,1.41,0,.3,0,.32.02.59-.49.12-.23.23-.34.39-.34,1.02.01,2.04,0,3.07,0h.47c.17-.27.35-.53.52-.8.26-.42.25-.43,0-.87-.11-.19-.22-.39-.33-.58-.05-.09-.12-.17-.18-.21-.07-.04-.16,0-.23,0-1.57,0-3.14,0-4.72,0-.3,0-.42-.2-.42-.73,0-.41,0-.82,0-1.23,0-.11.07-.22.12-.32.25-.47.24-.48.35-1.39.03-.27.2-.44.35-.44,1.34,0,2.67-.01,4.01,0,.54,0,.54,0,1.48-.71.07-.05.14-.11.21-.11.31-.01.63,0,.94,0,.43,0,.59-.25.57-.89-.02-.54-.13-.74-.42-.75-.39,0-.79,0-1.18-.01-.06,0-.13-.13-.18-.21-.18-.24-.27-.62-.56-.62-1.1.03-2.2.04-3.3,0-.29-.01-.41.29-.58.55-.06.09-.11.26-.17.27-.31.03-.63.01-.94.01-.55,0-1.1.04-1.65-.02-.3-.03-.41.33-.57.6-.12.21-.24.31-.42.24-.17-.07-.33.04-.39.33-.07.37-.12.77.07,1.1.22.39.43.81.67,1.15.18.25.17.34-.02.6-.32.48-.31.51-.3,1.41,0,.63,0,.63-.37,1.37-.05.1-.11.23-.1.33.06.63-.17.99-.4,1.36-.05.08-.08.23-.08.35,0,.54-.02,1.09,0,1.64.01.44-.06.79-.26,1.04-.14.18-.22.39-.22.66,0,.41.04.83-.01,1.22-.05.4-.29.61-.43.92-.04.09-.04.26-.03.38.06.49-.14.75-.31,1-.14.2-.18.4-.18.71,0,.31.02.52.17.71.13.16.24.36.33.58.11.24.23.37.39.37,1.18,0,2.36,0,3.54,0Z"/><path class="cls-1" d="m26.98,9.16l.02.41c.01.27-.02.58.05.81.06.23.22.39.33.57.45.7.45.71,1.28.58.15-.02.28-.26.29-.53.01-.4,0-.8-.25-1.07-.21-.23-.3-.57-.32-1.01-.03-1.09-.05-1.09-.47-1.73-.11-.17-.24-.31-.35-.46-.1.2-.2.41-.31.6q-.33.62-.29,1.41c0,.14.01.27.02.41Z"/><path class="cls-1" d="m25.33,9.23v-.41c0-.27.04-.57-.01-.81-.05-.23-.2-.4-.31-.6-.41-.73-.42-.74-1.26-.67-.15.01-.29.24-.31.5-.03.39-.03.8.2,1.08.2.25.28.59.27,1.03-.01,1.09,0,1.09.4,1.76.1.17.22.32.33.48.11-.19.22-.39.33-.58q.36-.59.35-1.39c0-.14,0-.27,0-.41Z"/><path class="cls-1" d="m37.92,15.6c-.9,0-1.8,0-2.71,0-.08,0-.17.06-.23.13-.52.66-1.02,1.33-1.53,1.99q-.27.35.04.75c.13.16.25.33.38.5.14.18.58.22.73.07.07-.07.13-.16.19-.25.33-.43.62-.49.92-.24.26.21.24.83-.04,1.2-.19.25-.39.47-.33.88.02.11,0,.23,0,.35,0,.46,0,.46-.43,1.18-.05.08-.1.19-.11.29,0,.59,0,1.17,0,1.76,0,.34-.22.57-.54.56-.18,0-.36,0-.54,0h-.81c-.26.33-.52.65-.76,1-.21.29,0,1.03.31,1.12.67-.12.88.66,1.27,1.08,0,.23,0,.47-.02.7-.01.09-.12.17-.18.25q-.34.45-.34,1.23c0,.51,0,.51-.43,1.18-.11.18-.14.39-.12.64.01.23-.1.41-.26.56-.16.15-.27.33-.27.56,0,.47,0,.94,0,1.41,0,.66.14.87.58.86.18,0,.36,0,.54,0,.34,0,.5-.19.51-.6,0-.35-.05-.72.01-1.05.06-.34.32-.53.5-.78,0-.23.02-.46.02-.69,0-.23-.05-.49.01-.7.06-.2.21-.37.35-.51.17-.16.22-.34.19-.61-.03-.23,0-.47,0-.7,0-.45.12-.63.44-.7.2-.04.37,0,.49.16.32.41.64.83.96,1.24.25.06.54-.12.74.24.1.19.25.34.38.5.19.24.35.52.6.68.41-.1.66.21.91.56.24.35.51.67.76,1,.06.08.14.16.19.25.18.35.45.31.72.3.6,0,.6,0,.94.44.06.08.13.24.19.24.63.02,1.26,0,1.89.04.21.01.37,0,.47-.24.07-.16-.01-.32-.19-.5-.21-.21-.4-.45-.6-.68-.55.15-.78-.42-1.09-.81-.25-.32-.48-.69-.89-.61-.07.01-.16-.07-.22-.14-.32-.41-.64-.83-.96-1.24-.05-.06-.17-.02-.26-.03-.09,0-.22.05-.26,0-.46-.56-.9-1.14-1.35-1.72-.13-.16-.24-.37-.39-.49-.24-.2-.25-.34,0-.5.07-.05.16-.1.24-.1.27-.01.55.04.81-.02.27-.06.41-.41.61-.62.06-.06.16-.06.25-.07.49-.02.49-.04,1.41-.67.22-.15.52.08.73-.26.17-.27.38-.5.57-.75.51-.66,1.02-1.34,1.53-1.99.14-.18.17-.36.17-.62-.02-.94-.02-1.88,0-2.82,0-.26-.07-.41-.22-.59-.65-.81-1.28-1.65-1.92-2.49-.19-.26-.39-.42-.69-.41-.29.01-.42-.37-.62-.58-.06-.06-.15-.11-.23-.11-.99,0-1.98,0-2.98,0Zm.9,2.12c.27,0,.54.03.81,0,.31-.05.51.18.66.45.2.35.47.24.73.27.19.24.39.47.58.72.38.49.75,1.01,1.15,1.48.15.18.22.34.21.6-.02.47-.04.94,0,1.4.04.43-.2.61-.37.86-.12.17-.24.35-.38.49-.13.13-.32.07-.5.12-.27.06-.42.4-.6.63-.19.24-.38.49-.57.74-.27,0-.54.05-.8.01-.21-.02-.35.02-.47.22-.11.18-.25.32-.38.48-.13-.17-.27-.32-.38-.5-.14-.23-.22-.17-.39.09-.31.45-.33.43-.67.42-.36,0-.72,0-1.08,0-.3,0-.46-.23-.46-.66,0-.35,0-.7,0-1.05.12-.17.22-.37.36-.5.17-.16.22-.33.19-.61-.03-.35,0-.7,0-1.05.13-.17.24-.35.38-.49.15-.16.18-.35.17-.62-.02-.58,0-1.16,0-1.74.21-.34.56-.55.54-1.12-.02-.47.13-.62.48-.62.27,0,.54,0,.81,0Z"/><path class="cls-1" d="m56.81,22.98c0-.29.02-.58,0-.86-.07-.65.17-1.05.45-1.44.06-.08.1-.23.1-.36,0-1.86,0-3.72,0-5.58,0-.28-.1-.56-.29-.64-.17-.08-.36,0-.55,0-.26.4-.56.77-.77,1.23-.14.31.04.83-.21,1.15-.14.19-.26.4-.39.61-.19.31-.37.62-.56.93-.01.41.06.84-.22,1.15-.14.16-.24.41-.33.64-.04.11,0,.28,0,.42,0,.13-.01.29-.06.38-.12.22-.26.41-.39.61q-1.19,1.85-1.2,2.23-.02.54-.94,1.97c-1.11,1.72-2.21,3.44-3.32,5.16-.26.4-.53.8-.78,1.22-.18.3-.49.53-.47.98.03.68-.26,1-.51,1.4-.02.27-.07.56-.05.82.03.28.17.51.35.54.27.05.55.02.83.01.31,0,.48-.26.46-.81-.01-.33,0-.58.18-.75.07-.07.16-.16.23-.15.2.02.39.03.51-.16.79-1.2,1.56-2.42,2.35-3.64.1-.38-.03-.84.19-1.16.2-.29.39-.61.59-.91.2-.3.39-.61.59-.91.26-.4.53-.8.78-1.22.19-.32.03-.83.2-1.15.24-.44.5-.85.78-1.21.25-.32.2-.73.24-1.14.03-.32.2-.48.33-.41.08.04.18.19.19.29.02.57.02,1.14.02,1.71-.13.2-.25.41-.38.62-.06.1-.16.21-.17.32-.01,1-.02,2,0,3,.01.53-.25.72-.42,1.02-.14.24-.2.98-.08,1.16.26.4.52.8.78,1.2h.55c.39-.62.78-1.23,1.17-1.83.91-1.42,1.82-2.83,2.73-4.25.2-.3.39-.6.58-.91.25-.41.48-.86.91-.73.27-.14.42-.52.62-.78.06-.07.17-.05.25-.08.2-.07.36,0,.49.23.12.21.07.39-.13.61-.24.26-.32.65-.29,1.1,0,.14,0,.29,0,.43.04.46-.06.83-.3,1.09-.26.29-.25.7-.26,1.13,0,.41.09.85-.13,1.2-.13.21-.26.41-.39.61,0,.42-.04.85-.02,1.27.02.33-.03.54-.17.76-.18.28-.43.49-.4,1.03.04.71.01,1.43.01,2.15,0,1.13.07,1.26.72,1.28.18,0,.37.03.55,0,.18-.04.36-.23.37-.51.03-.86.01-1.72.01-2.58q0-.66.43-1.44c.12-.21.15-.47.12-.78-.07-.75.03-1.39.46-1.86.06-.06.09-.24.09-.36-.02-.31,0-.58.11-.79.45-.88.45-.88.45-1.43,0-.43.02-.86,0-1.29-.04-.5.12-.84.35-1.06.38-.36.05-1.1.38-1.49.2-.24.43-.49.4-1.03-.04-.71-.01-1.43,0-2.14,0-.11.12-.2.19-.3s.14-.19.19-.31c.05-.09.12-.26.1-.29-.25-.42-.51-.83-.78-1.21-.05-.07-.18-.01-.27-.01-.09,0-.21-.06-.27.01-.15.17-.27.39-.4.59-.33.51-.69.97-.97,1.53-.26.52-.68.28-.95.61-.35.45-.65,1.01-.99,1.5-.05.08-.17.05-.26.05-.09,0-.22-.06-.27.01-.47.68-.93,1.37-1.38,2.07-.39.6-.8,1.19-1.17,1.83-.17.29-.26.39-.4.18-.13-.21-.16-.45-.14-.77.02-.43,0-.86,0-1.29Z"/><path class="cls-1" d="m79.24,24.98c0-.9-.02-1.79,0-2.69,0-.3-.04-.47-.19-.67-.47-.61-.91-1.26-1.37-1.89-.26-.36-.53-.71-.77-1.09-.21-.32-.53-.1-.74-.28-.85-.71-.84-.72-1.44-.71-.64.01-1.28.04-1.92-.01-.42-.04-.67.27-.92.64-.05.08-.15.13-.23.14-.27.02-.55,0-.82,0-.49,0-.48,0-1.18.67-.14.13-.33.09-.52.11-.18.02-.33.21-.37.46-.16.89-.16.88-.43,1.29-.24.37-.58.61-.68,1.14.08.6-.25.9-.49,1.25-.02.24-.06.49-.06.73,0,.88,0,.88-.33,1.35-.06.09-.17.17-.19.27-.04.24-.04.5-.04.75,0,1.15.02,2.31-.01,3.46-.01.46.16.72.37.94.29.3.1.73.21,1.04.11.33.36.56.53.85.04.08,0,.25,0,.38,0,.12-.02.29.03.36.45.64.9,1.27,1.36,1.9.26.04.54-.12.75.27.16.29.35.53.67.51.92-.04,1.83-.03,2.75,0,.33,0,.46-.35.65-.6.22-.28.53-.08.74-.28.22-.2.34-.63.63-.66.28-.03.5-.12.71-.41.83-1.19,1.67-2.38,2.53-3.53.24-.32.2-.67.21-1.04,0-.26-.05-.54.01-.76.06-.22.23-.38.35-.57.06-.09.18-.18.18-.27.01-1.02,0-2.05,0-3.07Zm-7.4,8.87c-.18,0-.37-.02-.55,0-.38.05-.69-.05-.96-.48-.42-.67-.89-1.29-1.35-1.9-.15-.2-.22-.37-.22-.64,0-2.04.02-4.08,0-6.13,0-.44.13-.73.35-.95.27-.28.2-.67.21-1.03.18-.28.37-.56.56-.83.19-.27.4-.53.58-.82.13-.22.26-.34.45-.34.55,0,1.1-.03,1.64.01.31.02.5-.2.69-.47.19-.28.39-.54.58-.81.06-.09.12-.24.2-.26.18-.04.36-.01.55-.01.28.28.41.85.87.78.25-.04.25,0,.84.84.26.36.52.72.77,1.08.13.18.25.37.39.54.25.3.14.7.16,1.06.02.25-.03.53.04.74.07.22.24.37.38.55.13.18.16.4.14.69-.02.26-.09.45-.25.63-.23.24-.34.55-.31.97.02.38,0,.77,0,1.15,0,.62,0,.62-.27.99-.71.99-1.42,1.99-2.13,2.97-.05.07-.15.1-.24.11-.09.02-.19-.02-.27,0-.27.1-.4.48-.62.68-.21.19-.52-.01-.74.27-.19.25-.31.63-.65.59-.27-.03-.55,0-.82,0Z"/><path class="cls-1" d="m80.75,29.91c0,.37,0,.75,0,1.12,0,.64,0,.64.49,1.61.17.33.09.71.09,1.07,0,.56,0,.56.32.95.21.25.38.58.65.71.17.08.41-.02.56.1.8.63.94.72,1.55.66.19-.02.34-.15.47-.37.19-.34.46-.4.76-.38.2.01.39.02.59,0,.08,0,.19-.07.24-.15.26-.38.54-.7.99-.59.34-.25.57-.65.86-.99.14-.17.26-.41.43-.5.17-.09.38-.03.58-.03l.83-1.06c.03-.48.06-.94.41-1.29.31-.3.56-.69.84-1.05.21-.26.42-.52.62-.79.26-.34.58-.62.55-1.21-.02-.4.31-.58.49-.86.05-.09.09-.22.08-.32-.02-.27,0-.5.13-.69.46-.73.49-.73.46-1.62-.01-.43.15-.7.37-.93.18-.18.27-.36.23-.63-.02-.12-.04-.29,0-.37.18-.29.38-.54.57-.81l-.62-.79q-.25-.31-.62.15c-.27.34-.58.64-.52,1.23.02.22-.13.43-.31.58-.18.16-.28.35-.27.61,0,.12,0,.25,0,.37.03.5.01.96-.34,1.32-.3.31-.57.69-.83,1.06-.05.07,0,.24,0,.37s.04.3,0,.37c-.33.46-.69.89-1.03,1.33-.21.26-.43.52-.62.8-.19.28-.02.73-.22,1-.4.55-.82,1.07-1.24,1.59-.22.28-.56.07-.79.27-.23.2-.36.62-.67.63-.31,0-.56.11-.75.42-.13.22-.28.35-.48.34-.39,0-.78,0-1.18,0-.38,0-.37-.02-.74-.43-.39-.43-.62-.91-.54-1.59.05-.38-.04-.7-.28-.97-.32-.35-.31-.39.03-.78.16-.19.26-.36.26-.61,0-.62,0-1.25,0-1.87,0-.1.08-.21.14-.29.13-.18.32-.33.4-.54.07-.21.04-.48.04-.72,0-.25-.05-.52.02-.74.06-.21.22-.41.38-.54.31-.28.1-.71.22-1.01.12-.32.38-.55.57-.82.01-.36-.03-.71.24-1,.38-.41.36-.44.08-.78-.14-.17-.28-.35-.42-.53-.27-.35-.72-.34-1.01.04-.2.27-.46.5-.61.8-.14.29.04.72-.22,1.01-.15.16-.28.35-.42.53-.2.27-.41.53-.59.81-.05.08-.02.24,0,.37.04.27-.05.45-.23.63-.23.23-.41.5-.37.93.03.37,0,.75,0,1.12,0,.46,0,.46-.47,1.25-.05.09-.11.2-.12.31,0,.75,0,1.49,0,2.24Z"/><path class="cls-1" d="m104.41,19.63c-1.85,0-3.7.01-5.55-.01-.3,0-.42.25-.59.45-.06.07-.12.2-.18.2-.72.01-1.45.01-2.17,0-.29,0-.46.19-.47.53,0,.32-.02.65,0,.97.02.21.14.42.29.43,1.21.02,2.41,0,3.62.01.17,0,.28-.09.4-.28.25-.39.28-.4.51-.05.23.34.24.33.51-.03.24-.33.27-.34,1.12-.28.06,0,.14.09.19.16.05.07.11.17.11.26.01.43-.02.86.01,1.29.04.5-.18.77-.4,1.08-.17.25-.1.6-.09.91,0,.34-.05.63-.26.83-.22.21-.24.52-.23.84.02.43.03.86-.28,1.13-.16.14-.22.31-.2.54,0,.11.02.23,0,.32-.11.38-.53.49-.48,1.03.03.32.02.65,0,.97,0,.08-.11.15-.16.23-.11.16-.25.29-.3.48-.05.19-.01.42-.01.64,0,.53,0,.53-.37,1.09-.05.07-.11.17-.11.26,0,.75,0,1.51,0,2.26,0,.34.16.53.46.54.3.01.45-.12.5-.49.02-.1,0-.22,0-.32.01-.1.04-.2.08-.27.4-.7.4-.7.4-1.07,0-.32,0-.65,0-.97,0-.41-.02-.44.29-.8.22-.26.14-.57.2-.86.08-.39.53-.49.48-1.03-.03-.32-.02-.65,0-.97,0-.08.11-.15.16-.23.06-.08.11-.16.17-.23.29-.28.02-.81.33-1.12.32-.32.3-.37.29-1.12,0-.11,0-.22,0-.32,0-.1.02-.22.06-.29.14-.24.39-.4.42-.74.03-.32,0-.65,0-.97,0-.2.11-.37.25-.5.15-.14.23-.31.23-.52,0-.11-.03-.24,0-.32.3-.63.76-1.09,1.14-1.63.04-.06.14-.09.21-.09,2.01,0,4.02,0,6.04,0,.19,0,.36-.34.34-.7-.03-.45-.09-.59-.42-.58-.28.01-.43-.19-.6-.41-.06-.08-.1-.18-.17-.22-.07-.04-.15-.02-.23-.02-1.85,0-3.7,0-5.55,0Z"/><path class="cls-1" d="m118.96,30.46v1.23c-.12.2-.22.42-.35.58-.16.19-.19.4-.18.72.03.54-.02,1.1.01,1.64.03.52-.22.7-.39.98-.14.23-.11.37.09.59.22.24.34.58.3,1.03,0,.11.04.25.07.36.12.39.24.38.37.01.04-.11.12-.2.18-.29.42-.64.42-.64.42-1.37,0-.41.02-.82,0-1.23-.04-.48.12-.8.33-1.01.36-.35.03-1.07.36-1.42.14-.15.29-.36.35-.59.06-.24.01-.54.01-.81,0-.27-.04-.57.03-.8.06-.23.23-.4.36-.59.13-.19.15-.43.15-.73-.02-1.01,0-1,.4-1.78.18-.35.11-.77.11-1.16,0-.42.03-.8.26-1.06.23-.26.28-.64.26-1.06,0-.14,0-.28,0-.41-.03-.3-.01-.57.11-.75.26-.37.49-.76.41-1.37.12-.36.33-.61.5-.9,0-.27.01-.54.02-.81-.18-.29-.36-.59-.54-.88-.24-.4-.24-.4-.55.09-.18.29-.35.62-.56.86-.38.46-.51,1.05-.44,1.77.01.13.02.28,0,.41-.03.25-.13.46-.29.63-.16.17-.26.39-.23.67.03.31-.02.53-.14.74-.16.28-.42.46-.39.98.03.54,0,1.09,0,1.64,0,.49-.17.86-.39.86-.96,0-1.91,0-2.87,0-.07,0-.15-.08-.22-.14q-.73-.63-1.38-.69c-.17-.01-.31-.23-.34-.5-.04-.26,0-.54,0-.82,0-.4-.03-.81.23-1.09.07-.07.12-.19.19-.29.18-.29.39-.56.55-.88.16-.31.02-.78.19-1.11q.42-.81.42-1.37c0-.55.02-1.1,0-1.64-.01-.26-.17-.48-.34-.51-.16-.03-.37-.03-.49.1-.21.22-.38.56-.56.85-.06.1-.15.19-.16.3-.04.38.07.81-.2,1.11-.13.15-.28.38-.31.6-.05.38,0,.77-.24,1.09-.32.44-.32.47-.29,1.03.04.72-.05,1.33-.44,1.77-.05.06-.09.24-.08.35.03.45-.09.77-.3,1.04-.18.24-.29.61-.55.68-.12-.19-.24-.4-.37-.58-.16-.22-.57-.23-.7,0-.24.39-.51.72-.69,1.19l.05.79c.25.39.49.78.74,1.15.05.07.17.04.25,0,.2-.08.36,0,.44.3.05.18-.03.39-.21.58-.26.27-.24.68-.23,1.08.02.56,0,1.08-.32,1.43-.07.08-.17.18-.18.29-.03.4-.02.81-.02,1.22,0,.41,0,.82,0,1.23.24.39.48.79.73,1.16.02.03.13-.03.18-.09.06-.08.13-.2.13-.31.02-.41.01-.82,0-1.23,0-.28.07-.49.23-.67.21-.25.32-.59.3-1.04-.02-.62,0-.62.44-1.76.04-.11.07-.24.08-.36,0-.41-.01-.82,0-1.23.01-.26.14-.45.3-.58.78,0,1.56-.02,2.35,0,.32,0,.42-.4.62-.63.06-.08.14-.19.21-.19.61-.01,1.22,0,1.82,0,.28,0,.44.28.44.78,0,.27,0,.55,0,.82Z"/></g></svg>