<?xml version="1.0" encoding="UTF-8"?><svg id="Layer_2" xmlns="http://www.w3.org/2000/svg" width="198.58" height="107.83" viewBox="0 0 198.58 107.83"><defs><style>.cls-1{fill:none;stroke:#352c1a;stroke-miterlimit:10;stroke-width:2px;}</style></defs><g id="Layer_1-2"><path class="cls-1" d="m76.77,86.16c4.42,3.11,12.11,3.63,18.09,3.7,7.28.09,15.5.19,21.11-3.01,9.46-5.44,11.22-17.53,14.86-26.96,3.39-10.01,6.94-20.42,10.36-30.59,2.68-7.9,5.89-18.54-4.22-22.06C117.93.67,88.96-1.69,68.66,4.98c-10.93,3.75-12.14,12.51-9.7,22.67,2.87,13.14,6.44,28.52,9.41,41.58,1.49,6.09,2.75,13.17,8.27,16.85l.14.09Z"/><path class="cls-1" d="m121,84.09c20.54,15.86,25.06,10.32,41.86-5.77,3.75-3.53,7.64-7.18,11.34-10.68,4.72-4.81,11.32-9.26,11.8-16.21.1-6.56-5.63-11.74-11.06-16.3-9.06-7.45-20.35-12.26-31.7-15.57"/><path class="cls-1" d="m72,82.47c-16.56,12.09-22.15,11.35-34.7-4.67-4.89-5.81-10.02-11.91-14.83-17.64-4.82-5.41-10.88-13.23-6.04-20.41,2.72-4.25,6.78-7.35,10.79-10.39,9.12-6.77,19.47-10.76,30.8-14.1"/><path class="cls-1" d="m15.41,51.55c-6.54,8.2-12.79,17.11-14.16,28.06-1.18,8.38,1.71,18.41,10.48,22.13,13.99,5.56,28.57-4.47,39.4-11.93"/><path class="cls-1" d="m184.54,55.07c6.91,9.4,13.57,20.37,13.01,32.56-.23,7.36-4.08,15.21-11.81,17.99-14.53,4.86-28.87-6-39.49-14.03"/></g></svg>