<?xml version="1.0" encoding="UTF-8"?><svg id="Layer_2" xmlns="http://www.w3.org/2000/svg" width="115.47" height="197.72" viewBox="0 0 115.47 197.72"><defs><style>.cls-1{fill:none;stroke:#540f0a;stroke-miterlimit:10;stroke-width:2px;}</style></defs><g id="Layer_1-2"><path class="cls-1" d="m84.44,76.29c3.51,4.11,4.73,11.73,5.36,17.67.76,7.24,1.62,15.42-1.05,21.29-4.55,9.92-16.42,12.79-25.48,17.28-9.66,4.3-19.69,8.8-29.5,13.14-7.62,3.4-17.92,7.58-22.36-2.17C3.1,125.15-1.92,96.53,2.85,75.7c2.73-11.23,11.33-13.24,21.68-11.75,13.35,1.65,28.99,3.78,42.27,5.54,6.2.92,13.37,1.53,17.54,6.68l.1.13Z"/><path class="cls-1" d="m86.45,120.52c17.68,18.99,12.58,24-1.89,42.21-3.16,4.06-6.44,8.26-9.59,12.28-4.36,5.15-8.18,12.13-15.06,13.24-6.53.7-12.21-4.52-17.25-9.51-8.26-8.33-14.09-19.13-18.43-30.13"/><path class="cls-1" d="m80.31,71.88c10.51-17.6,9.26-23.1-7.85-34.12-6.23-4.33-12.79-8.88-18.93-13.14-5.83-4.3-14.18-9.61-20.88-4.14-3.98,3.1-6.69,7.42-9.35,11.7-5.9,9.71-8.92,20.38-11.2,31.97"/><path class="cls-1" d="m44.31,18.38c7.56-7.27,15.86-14.31,26.63-16.68,8.24-1.95,18.49,0,23,8.4,6.82,13.42-1.82,28.86-8.24,40.33"/><path class="cls-1" d="m63.41,186.46c10,6.01,21.54,11.64,33.62,9.95,7.31-.91,14.77-5.46,16.83-13.42,3.5-14.91-8.63-28.2-17.61-38.03"/></g></svg>