<?xml version="1.0" encoding="UTF-8"?><svg id="Layer_2" xmlns="http://www.w3.org/2000/svg" width="365.26" height="188.77" viewBox="0 0 365.26 188.77"><defs><style>.cls-1{fill:none;stroke:#222121;stroke-miterlimit:10;stroke-width:3px;}.cls-2{fill:#222121;stroke-width:0px;}</style></defs><g id="Layer_1-2"><path class="cls-1" d="m1.76,123.54c-.58-5.69-.38-12.98,2.5-20.62,10.11-26.86,43.64-32.51,46-32.88,0,0-3-33,86-39,0,0,85-75,149,14,0,0,57,30,55,63,4.23,4.22,9.41,10.3,13.88,18.5,7.17,13.17,9.08,25.51,9.62,33-.09,2.61-.65,8.87-5,15-5.99,8.44-14.84,10.55-17,11-1.35.26-2.71.5-4.1.7-21.76,3.24-42.11-1.59-59.4-9.2,0,0-28,7-78-3,0,0-55,19-106-12,0,0-18,3-42-15-4.33,1.15-12.78,2.72-22.62,0-18.18-5.02-26.42-20.62-27.88-23.5Z"/><path class="cls-2" d="m53.28,146.31c-11.08-17.91-13.43-39.93-9.32-60.34,1.05-5.21,2.64-10.55,6.92-14.02,1.5-1.22-.63-3.33-2.12-2.12-3.92,3.18-5.93,7.95-7.11,12.74-1.29,5.23-2.01,10.65-2.37,16.01-.73,10.89.38,22,3.7,32.42,1.88,5.9,4.46,11.56,7.72,16.83,1.01,1.64,3.61.13,2.59-1.51h0Z"/><path class="cls-2" d="m96.48,161.93c-2.69-3.84-3.31-8.69-3.94-13.23-.67-4.83-1.03-9.72-1.12-14.59-.17-9.82.82-19.65,2.98-29.24,2.21-9.82,5.79-19.17,9.82-28.37,3.68-8.4,7.41-16.93,12.11-24.82,4.47-7.51,10.33-14.75,18.68-18.06,1.77-.7,1-3.6-.8-2.89-7.72,3.05-13.56,8.95-18.14,15.74-5.14,7.62-8.92,16.18-12.68,24.54-4.34,9.65-8.46,19.41-11.08,29.69s-3.82,20.01-3.91,30.17c-.05,5.71.29,11.42,1.03,17.09.69,5.27,1.32,11.02,4.45,15.49,1.1,1.57,3.7.07,2.59-1.51h0Z"/><path class="cls-2" d="m192.19,175.27c-3.06-12.56-2.2-25.6-.79-38.32s2.92-25.18,7.03-37.13c7.02-20.43,21.13-37.56,37.09-51.75,4.54-4.04,9.26-7.89,14.13-11.54,5.11-3.82,10.76-7.64,17.28-8.27,1.9-.18,1.92-3.18,0-3-6,.58-11.32,3.37-16.19,6.78-4.57,3.2-8.95,6.73-13.21,10.32-8.53,7.2-16.55,15.07-23.5,23.82s-12.76,18.2-16.88,28.53c-4.76,11.91-6.65,24.62-8.16,37.28-1.75,14.62-3.2,29.6.33,44.08.46,1.87,3.35,1.08,2.89-.8h0Z"/><path class="cls-2" d="m258.6,179.01c-1.9-17.46,3.26-34.77,11.97-49.8s19.78-27.43,33.8-36.35c7.63-4.86,16.05-8.34,25-9.79,1.9-.31,1.09-3.2-.8-2.89-16.62,2.7-31.25,12.29-42.84,24.17-12.26,12.56-22.15,28.05-27.18,44.94-2.86,9.61-4.03,19.74-2.95,29.73.21,1.9,3.21,1.92,3,0h0Z"/><path class="cls-2" d="m295.15,182.51c8.75-19.27,25.8-34.35,45.82-41.1,5.65-1.91,11.51-3.16,17.45-3.65,1.91-.16,1.93-3.16,0-3-21.92,1.83-42.67,13.26-56.25,30.53-3.81,4.85-7.06,10.1-9.61,15.72-.79,1.74,1.79,3.27,2.59,1.51h0Z"/></g></svg>