<?xml version="1.0" encoding="UTF-8"?><svg id="Layer_2" xmlns="http://www.w3.org/2000/svg" width="419.61" height="35.14" viewBox="0 0 419.61 35.14"><defs><style>.cls-1{fill:none;stroke:#fff7d7;stroke-miterlimit:10;}.cls-2{fill:#fff7d7;stroke-width:0px;}</style></defs><g id="Layer_1-2"><line class="cls-1" y1="17.43" x2="171" y2="17.43"/><rect class="cls-1" x="174.25" y="9.73" width="15.7" height="15.41" transform="translate(41.01 133.87) rotate(-45)"/><rect class="cls-1" x="198.11" y="5.72" width="23.99" height="23.7" transform="translate(49.12 153.71) rotate(-45)"/><line class="cls-1" x1="87.5" y1="10.93" x2="177.89" y2="10.79"/><line class="cls-1" x1="40.5" y1="23.93" x2="177.26" y2="23.69"/><path class="cls-2" d="m87.64,12.55c1.93,0,1.93-3,0-3s-1.93,3,0,3h0Z"/><path class="cls-2" d="m95.81,12.16c1.93,0,1.93-3,0-3s-1.93,3,0,3h0Z"/><path class="cls-2" d="m131.3,25.44c1.93,0,1.93-3,0-3s-1.93,3,0,3h0Z"/><path class="cls-2" d="m41.04,25.44c1.93,0,1.93-3,0-3s-1.93,3,0,3h0Z"/><path class="cls-2" d="m181.6,18.68c1.93,0,1.93-3,0-3s-1.93,3,0,3h0Z"/><line class="cls-1" x1="419.61" y1="17.59" x2="248.61" y2="17.59"/><rect class="cls-1" x="229.8" y="9.74" width="15.41" height="15.7" transform="translate(57.13 173.1) rotate(-45)"/><line class="cls-1" x1="367" y1="11.03" x2="241.72" y2="10.95"/><line class="cls-1" x1="379.11" y1="24.09" x2="242.36" y2="23.85"/><path class="cls-2" d="m331.97,12.71c1.93,0,1.93-3,0-3s-1.93,3,0,3h0Z"/><path class="cls-2" d="m323.8,12.32c1.93,0,1.93-3,0-3s-1.93,3,0,3h0Z"/><path class="cls-2" d="m288.32,25.6c1.93,0,1.93-3,0-3s-1.93,3,0,3h0Z"/><path class="cls-2" d="m378.57,25.6c1.93,0,1.93-3,0-3s-1.93,3,0,3h0Z"/><path class="cls-2" d="m238.02,18.83c1.93,0,1.93-3,0-3s-1.93,3,0,3h0Z"/><rect class="cls-1" x="204.81" y="12.21" width="9.8" height="10" transform="translate(49.25 153.33) rotate(-45)"/></g></svg>