<?xml version="1.0" encoding="UTF-8"?><svg id="Layer_2" xmlns="http://www.w3.org/2000/svg" width="419.61" height="36.55" viewBox="0 0 419.61 36.55"><defs><style>.cls-1,.cls-2{fill:none;stroke:#99291d;stroke-miterlimit:10;}.cls-2{stroke-width:2px;}.cls-3{fill:#99291d;stroke-width:0px;}</style></defs><g id="Layer_1-2"><line class="cls-2" y1="18.14" x2="171" y2="18.14"/><rect class="cls-2" x="174.25" y="10.43" width="15.7" height="15.41" transform="translate(40.51 134.08) rotate(-45)"/><rect class="cls-2" x="198.11" y="6.43" width="23.99" height="23.7" transform="translate(48.62 153.92) rotate(-45)"/><line class="cls-1" x1="87.5" y1="11.64" x2="177.89" y2="11.5"/><line class="cls-1" x1="40.5" y1="24.64" x2="177.26" y2="24.39"/><path class="cls-3" d="m87.64,13.25c1.93,0,1.93-3,0-3s-1.93,3,0,3h0Z"/><path class="cls-3" d="m95.81,12.87c1.93,0,1.93-3,0-3s-1.93,3,0,3h0Z"/><path class="cls-3" d="m131.3,26.15c1.93,0,1.93-3,0-3s-1.93,3,0,3h0Z"/><path class="cls-3" d="m41.04,26.15c1.93,0,1.93-3,0-3s-1.93,3,0,3h0Z"/><path class="cls-3" d="m181.6,19.38c1.93,0,1.93-3,0-3s-1.93,3,0,3h0Z"/><line class="cls-2" x1="419.61" y1="18.3" x2="248.61" y2="18.3"/><rect class="cls-2" x="229.8" y="10.45" width="15.41" height="15.7" transform="translate(56.63 173.3) rotate(-45)"/><line class="cls-1" x1="367" y1="11.74" x2="241.72" y2="11.66"/><line class="cls-1" x1="379.11" y1="24.8" x2="242.36" y2="24.55"/><path class="cls-3" d="m331.97,13.41c1.93,0,1.93-3,0-3s-1.93,3,0,3h0Z"/><path class="cls-3" d="m323.8,13.03c1.93,0,1.93-3,0-3s-1.93,3,0,3h0Z"/><path class="cls-3" d="m288.32,26.31c1.93,0,1.93-3,0-3s-1.93,3,0,3h0Z"/><path class="cls-3" d="m378.57,26.31c1.93,0,1.93-3,0-3s-1.93,3,0,3h0Z"/><path class="cls-3" d="m238.02,19.54c1.93,0,1.93-3,0-3s-1.93,3,0,3h0Z"/><rect class="cls-1" x="204.81" y="12.92" width="9.8" height="10" transform="translate(48.75 153.54) rotate(-45)"/></g></svg>