<?xml version="1.0" encoding="UTF-8"?><svg id="Layer_2" xmlns="http://www.w3.org/2000/svg" width="263.67" height="36.26" viewBox="0 0 263.67 36.26"><defs><style>.cls-1{stroke:#000;stroke-miterlimit:10;}.cls-2{fill:#1f1f1f;stroke-width:0px;}</style></defs><g id="Layer_1-2"><path class="cls-1" d="m109.29,11.85c0-.26.02-.53,0-.78-.07-.6.17-.96.46-1.31.06-.07.11-.21.11-.32,0-1.7,0-3.4,0-5.1,0-.25-.11-.51-.3-.59-.17-.07-.37,0-.56,0-.27.37-.57.7-.79,1.12-.15.28.04.76-.21,1.05-.14.17-.27.36-.4.55-.19.28-.38.56-.58.85-.01.37.06.77-.23,1.05-.14.14-.25.37-.34.59-.04.1,0,.26,0,.39,0,.12-.02.27-.07.35-.12.2-.26.38-.4.56q-1.23,1.69-1.24,2.04t-.97,1.8c-1.14,1.57-2.28,3.14-3.43,4.71-.27.37-.54.73-.8,1.11-.19.27-.5.48-.48.89.03.62-.27.92-.53,1.28-.02.25-.07.51-.05.75.03.25.18.47.36.49.28.04.57.02.85.01.32,0,.5-.24.48-.74-.01-.3,0-.53.19-.68.07-.06.16-.15.24-.14.2.02.4.02.53-.14.81-1.1,1.62-2.21,2.42-3.32.1-.34-.03-.76.2-1.06.21-.27.4-.55.61-.83.2-.28.4-.55.6-.83.27-.37.54-.73.8-1.11.2-.3.03-.76.21-1.05.25-.4.51-.78.81-1.11.26-.3.21-.67.25-1.04.04-.29.2-.43.34-.37.08.03.19.17.19.27.02.52.02,1.04.02,1.56-.13.19-.26.37-.39.56-.06.09-.17.19-.17.29-.01.91-.03,1.83,0,2.74.01.48-.26.65-.44.93-.14.22-.2.9-.08,1.06.27.37.54.73.81,1.1h.57c.4-.57.81-1.12,1.21-1.68.94-1.29,1.88-2.59,2.82-3.88.2-.28.41-.55.6-.83.26-.37.5-.78.94-.67.28-.13.43-.47.64-.71.06-.07.17-.05.26-.08.21-.07.38,0,.51.21.12.19.08.36-.14.56-.25.24-.33.59-.3,1,0,.13,0,.26,0,.39.04.42-.07.76-.31,1-.27.27-.26.64-.27,1.03,0,.37.09.78-.13,1.1-.13.19-.27.37-.4.56,0,.39-.04.78-.02,1.16.02.3-.03.49-.18.69-.19.26-.45.44-.41.94.05.65.01,1.31.01,1.96,0,1.03.08,1.16.75,1.16.19,0,.38.03.57,0,.18-.03.37-.21.38-.46.03-.78.01-1.57.01-2.35q0-.6.44-1.31c.12-.2.16-.43.13-.71-.07-.68.04-1.27.47-1.7.06-.06.1-.22.09-.33-.02-.28,0-.53.12-.72.46-.8.46-.8.46-1.31,0-.39.03-.79,0-1.18-.04-.45.12-.77.36-.97.4-.33.05-1,.39-1.36.21-.22.44-.45.41-.94-.04-.65-.01-1.3,0-1.95,0-.1.13-.19.19-.28s.14-.18.2-.28c.05-.08.12-.24.1-.27-.26-.38-.52-.76-.81-1.11-.05-.07-.18-.01-.28-.01-.09,0-.22-.05-.28.01-.15.15-.28.36-.41.54-.34.46-.71.89-1,1.4-.27.48-.71.25-.98.56-.37.41-.67.92-1.02,1.37-.05.07-.18.04-.27.05-.09,0-.23-.05-.28.01-.48.62-.96,1.25-1.43,1.89-.41.55-.82,1.09-1.2,1.67-.17.26-.27.35-.41.16-.14-.19-.17-.41-.15-.7.02-.39,0-.78,0-1.18Z"/><path class="cls-1" d="m131.24,23.82c.66.03.67.02.87-.98.05-.24.14-.45.31-.61.18-.17.28-.37.26-.63-.03-.29,0-.52.14-.71.34-.46.67-.93,1-1.39.03-.37-.1-.77.2-1.07.23-.23.39-.58.61-.81.35-.37.37-.87.32-1.39-.06-.6.2-.95.48-1.3.06-.07.1-.22.09-.33-.02-.28,0-.53.11-.72.46-.81.48-.81.46-1.7,0-.29,0-.52.15-.7.24-.31.51-.24.77-.11.21.1.27.36.23.64-.01.13,0,.26,0,.39-.01.82-.03.85.38,1.34.27.32.1.75.21,1.06.12.33.36.58.55.87,0,.38-.02.74.24,1.05.36.43.34.46.33.98,0,.26,0,.52,0,.78,0,.69,0,.69.48,1.69.16.34.1.75.09,1.12,0,.28,0,.53.12.72.13.2.32.34.39.56.14.48.03,1.02.08,1.53.02.25.18.46.36.49.28.04.57.02.85.01.32,0,.5-.24.48-.74-.01-.3.02-.51.18-.69.15-.16.33-.34.38-.56.08-.34-.07-.77.22-1.06.15-.14.31-.36.35-.58.06-.36-.02-.77.26-1.03.17-.16.28-.36.32-.6.02-.12,0-.26,0-.39.01-.12.02-.28.08-.34.42-.43.56-1,.49-1.69-.05-.43.08-.75.32-.99.17-.18.28-.38.25-.64-.03-.29,0-.52.15-.7.14-.18.32-.34.39-.56.07-.22.03-.51.03-.76,0-.26-.05-.55.01-.78.06-.22.23-.41.37-.57.28-.29.09-.74.21-1.06.12-.33.36-.58.54-.87,0-.39,0-.78,0-1.18,0-.27.07-.48.25-.64.37-.34.34-.87.32-1.38-.02-.4.03-.76.29-1.01.26-.25.32-.61.28-1.01-.02-.25-.15-.5-.33-.54-.28-.06-.57-.02-.85-.01-.39,0-.51.13-.51.69,0,.29-.01.52-.16.7-.14.18-.32.34-.39.56-.07.22-.03.51-.03.77,0,.26.05.55-.01.78-.06.22-.22.42-.38.56-.37.33,0,1.03-.39,1.36-.23.2-.42.51-.36.96.02.13,0,.26,0,.39,0,.53,0,.52-.45,1.31-.19.33-.11.74-.11,1.11,0,.4-.04.76-.29,1.01-.17.17-.29.37-.28.62.02.29,0,.55-.13.71-.3.35-.53.73-.45,1.32q-.55,1.41-.58,2.42c0,.1-.11.22-.18.28-.13.1-.32,0-.36-.3-.06-.38-.03-.78,0-1.17.02-.29-.05-.48-.23-.66-.22-.24-.38-.52-.36-.97.04-.91,0-.91-.45-1.7-.18-.31-.04-.75-.2-1.06-.16-.3-.45-.47-.48-.91,0-.13.01-.27,0-.39-.02-.11-.07-.23-.12-.32-.44-.73-.45-.73-.44-1.32,0-.86.03-.9-.37-1.35-.28-.32-.11-.74-.22-1.06-.11-.33-.37-.57-.55-.87-.05-.08,0-.25,0-.38,0-.26,0-.52,0-.78,0-.39-.02-.77-.03-1.16-.2-.28-.43-.53-.6-.84-.17-.31-.26-.34-.42-.06-.18.3-.42.53-.59.85-.16.3,0,.75-.21,1.05-.13.19-.31.34-.39.56-.07.22-.05.5-.05.75q0,.85-.37,1.36c-.07.09-.18.17-.19.28-.03.25-.01.52-.01.78,0,.26.05.55-.01.78-.07.22-.24.41-.39.56-.34.34,0,1.02-.39,1.36-.24.2-.37.53-.35.97.04.87.01.87-.46,1.69-.18.31-.03.75-.21,1.06-.12.2-.28.36-.4.56-.05.09-.08.24-.07.35.03.29,0,.52-.14.71-.34.46-.67.92-1.01,1.39-.03.37.11.78-.2,1.07-.15.14-.27.36-.41.55q-.57.79-.54,2.05c.01.42.2.66.55.65.09,0,.19,0,.28,0Z"/><path class="cls-1" d="m148.23,17.41c0,.39,0,.78,0,1.17,0,.67,0,.67.48,1.68.16.34.09.74.09,1.12,0,.58,0,.59.31,1,.2.26.36.6.63.74.17.09.4-.02.54.1.77.66.9.75,1.5.69.18-.02.33-.16.45-.39.18-.35.44-.42.73-.39.19.01.38.02.57,0,.08,0,.18-.07.23-.15.25-.4.52-.74.95-.62.33-.26.55-.68.83-1.03.14-.17.25-.43.41-.52.16-.09.37-.03.56-.03l.8-1.11c.03-.5.06-.99.39-1.35.3-.32.54-.73.81-1.09.2-.28.4-.55.6-.83.25-.36.56-.65.53-1.27-.02-.41.3-.6.47-.9.05-.09.09-.23.08-.34-.02-.29,0-.52.12-.72.45-.77.47-.77.44-1.69-.01-.45.14-.73.36-.97.17-.19.26-.37.22-.66-.02-.13-.04-.3,0-.38.17-.3.37-.57.55-.85l-.6-.83q-.24-.33-.6.16c-.26.35-.56.67-.51,1.28.02.23-.13.45-.3.6-.18.17-.27.37-.26.63,0,.13,0,.26,0,.39.03.52.01,1-.33,1.38-.29.32-.55.72-.8,1.1-.05.07,0,.25,0,.38s.04.31,0,.38c-.32.48-.66.93-1,1.39-.2.28-.41.54-.6.83-.19.3-.02.77-.21,1.05-.38.57-.8,1.12-1.2,1.66-.21.29-.54.07-.76.28-.22.21-.35.65-.65.66-.3,0-.55.11-.72.44-.13.24-.27.36-.46.36-.38,0-.76,0-1.14,0-.37,0-.35-.02-.72-.45-.38-.45-.6-.95-.52-1.67.04-.39-.04-.73-.27-1.02-.31-.37-.3-.41.03-.82.16-.2.26-.37.25-.64,0-.65,0-1.3,0-1.95,0-.11.08-.22.14-.31.13-.19.31-.34.39-.56.07-.22.03-.5.04-.76,0-.26-.05-.55.01-.77.06-.22.22-.43.36-.57.3-.29.1-.74.21-1.06.12-.33.36-.58.55-.86.01-.38-.03-.74.23-1.05.36-.43.34-.46.08-.82-.14-.18-.27-.37-.4-.55-.26-.37-.7-.35-.97.04-.2.28-.44.52-.59.84-.14.3.04.76-.21,1.05-.14.17-.27.36-.4.55-.19.28-.4.55-.57.85-.05.08-.02.26,0,.38.03.29-.05.47-.22.66-.22.24-.39.52-.36.97.03.39,0,.78,0,1.17,0,.49,0,.48-.45,1.31-.05.09-.11.21-.11.32,0,.78,0,1.56,0,2.34Z"/><path class="cls-1" d="m122.77,22.12c.97,0,1.94,0,2.91,0,.29,0,.3.02.56-.36.11-.17.22-.25.37-.26.17-.02.29.02.4.18.1.15.19.35.32.42.13.07.3.07.44.01.15-.06.23-.27.24-.46,0-.2,0-.41,0-.62,0-.46-.01-.44-.24-.79-.26-.39-.52-.72-.95-.59-1.87,0-3.74,0-5.61,0-.16,0-.31-.05-.36-.27-.06-.28-.11-.58.08-.83.11-.14.25-.27.31-.44.05-.17.02-.4.02-.6,0-.21,0-.41,0-.62.21-.29.41-.59.63-.87.04-.06.13-.07.2-.07.45,0,.9,0,1.35,0,.29,0,.3.02.56-.37.11-.17.22-.26.38-.26.97,0,1.94,0,2.91,0h.45c.16-.2.33-.4.49-.61.24-.32.24-.32,0-.65-.11-.14-.21-.29-.32-.43-.05-.06-.11-.13-.18-.16-.07-.03-.15,0-.22,0-1.49,0-2.99,0-4.48,0-.29,0-.4-.15-.4-.55,0-.31,0-.62,0-.92,0-.08.07-.17.12-.24.24-.36.23-.36.33-1.05.03-.2.19-.33.33-.33,1.27,0,2.54,0,3.81,0,.52,0,.52,0,1.41-.53.06-.04.13-.08.2-.08.3,0,.6,0,.9,0,.41,0,.56-.19.54-.67-.02-.4-.13-.56-.39-.56-.37,0-.75,0-1.12,0-.06,0-.12-.1-.18-.15-.17-.18-.26-.47-.54-.47-1.05.02-2.09.03-3.14,0-.27,0-.39.22-.55.42-.05.07-.1.2-.16.2-.3.02-.6,0-.9,0-.52,0-1.05.03-1.57-.01-.29-.03-.39.25-.54.45-.11.16-.23.23-.4.18-.16-.05-.31.03-.37.25-.07.28-.11.58.07.83.21.29.41.61.64.86.17.19.16.25-.02.45-.31.36-.29.39-.29,1.06,0,.47,0,.47-.35,1.04-.04.07-.1.17-.1.25.05.48-.16.74-.38,1.03-.05.06-.07.17-.07.26,0,.41-.02.82,0,1.23.01.33-.05.59-.24.79-.13.14-.21.29-.21.5,0,.31.04.63,0,.92-.05.3-.27.46-.41.69-.04.07-.04.2-.03.29.05.37-.13.57-.3.75-.14.15-.17.3-.17.53,0,.24.02.39.16.53.12.12.23.27.32.43.1.18.21.28.37.28,1.12,0,2.24,0,3.36,0Z"/><path class="cls-1" d="m126.87,2.62l.02.31c.01.21-.02.43.04.61.06.17.21.29.32.43.42.53.43.54,1.22.44.14-.02.26-.2.27-.4.01-.3,0-.6-.23-.8-.2-.18-.29-.43-.3-.76-.03-.82-.04-.82-.45-1.3-.11-.13-.22-.23-.34-.35-.1.15-.19.31-.29.45q-.32.46-.27,1.07c0,.1.01.21.02.31Z"/><path class="cls-1" d="m125.3,2.68v-.31c0-.21.04-.43-.01-.61-.05-.18-.19-.3-.29-.45-.39-.55-.4-.56-1.19-.5-.14.01-.27.18-.29.38-.03.3-.03.6.19.82.19.19.26.44.26.78-.01.82,0,.82.38,1.32.1.13.21.24.32.36.11-.15.21-.29.32-.44q.34-.45.33-1.05c0-.1,0-.21,0-.31Z"/><path class="cls-2" d="m263.61,26.51c.14-.07.06-.03-.34.17l-.28.15.62-.32Z"/><path class="cls-2" d="m260.91,27.85c-.47.24-1,.53-.69.39.49-.26.52-.28,1.06-.57.4-.2.7-.35.63-.31.16-.08.56-.28.83-.42-.56.28-1.17.58-1.87.93-.15.07,0,0,.02-.02Z"/><path class="cls-2" d="m218.79,34.01l.26.1c-.07-.03-.16-.07-.26-.1Z"/><path class="cls-2" d="m193.48,24.39c.2.06.29.06.31.04-.19-.05-.34-.08-.31-.04Z"/><path class="cls-2" d="m189.13,22.71c.09.03.17.06.26.09-.09-.05-.19-.09-.26-.09Z"/><path class="cls-2" d="m218.79,34.01l-.67-.27c-.07.04.34.15.67.27Z"/><path class="cls-2" d="m255.48,30.46c.14-.06.26-.11.36-.16l-.34.15-.02.02Z"/><path class="cls-2" d="m230.48,35.63c.07,0,.15,0,.22,0,.06-.02.12-.04.18-.06-.13.02-.27.05-.4.06Z"/><path class="cls-2" d="m239.55,34.86c-.2.03-.26.14-.33.2.11-.06.25-.11.43-.15,0-.02-.03-.04-.1-.05Z"/><path class="cls-2" d="m253.5,31.05l.24-.1c-.06.03-.17.07-.24.1Z"/><path class="cls-2" d="m224.02,35.05s-.04-.05-.07-.06c0,.02.03.04.07.06Z"/><path class="cls-2" d="m10.09,24.86s0,0,0,0c-.05.01-.07.02,0,0Z"/><polygon class="cls-2" points=".04 28.05 .17 27.98 .2 27.97 .04 28.05"/><path class="cls-2" d="m180.74,20.62s.02,0,.04,0c.24,0,.1-.01-.04,0Z"/><path class="cls-2" d="m106.51,28.72c.85.32-1.44.21-.16.59-.11-.12,1.23-.35.16-.59Z"/><path class="cls-2" d="m255.25,30.54l-.35.14c.16-.07.26-.11.35-.14Z"/><path class="cls-2" d="m106.36,29.31h0s.13.04.13.04c-.06-.02-.09-.02-.13-.04Z"/><path class="cls-2" d="m161.93,20.24c.07.01.17,0,.27-.03-.02-.02-.08-.02-.27.03Z"/><path class="cls-2" d="m175.42,21.83c-.14.06-.25.13-.35.18.14-.07.25-.13.35-.18Z"/><path class="cls-2" d="m156.23,25.11c-.18.07-.25.07-.46.22.03,0,.05,0,.08,0,.06-.08.16-.15.37-.21Z"/><path class="cls-2" d="m148.96,27.06s.1.02.15.03c.08-.02.16-.03.24-.05l-.39.02Z"/><path class="cls-2" d="m33.64,25.94c-.16-.07-.26-.13-.33-.18.1.11-1.03-.09.33.18Z"/><path class="cls-2" d="m255.46,30.44s-.1.06-.21.1c.08-.03.16-.07.24-.1.02-.01.02-.02-.03,0Z"/><path class="cls-2" d="m156.94,27.1c-.38.2-.84.41-1.27.56.36-.12.88-.33,1.27-.56Z"/><path class="cls-2" d="m88.87,31.55l-.24.18c.1-.06.19-.11.24-.18Z"/><path class="cls-2" d="m151.87,28.74c-.24-.05-.49-.06-.74-.05-.05.03-.1.06-.13.09l.88-.04Z"/><path class="cls-2" d="m33.3,25.76h0s0,0,0,0Z"/><path class="cls-2" d="m25.21,24.7c1.17.14.56-.06.82-.11,1.4.14.64.18,1.1.32.88.07,1.56.07,2.21.17.04.03.17.06.02.07.94.03,2.72.48,3.81.55.08.03.11.05.13.07-.16-.12-.17-.2-.12-.25.52.1.99.1,1.16.25-.32-.07-.35-.04-.51-.03l.55.07c.46.26-.75-.11-.78,0,1.07.18,2.33.32,3.13.57.13.2-1.9-.4-.86,0l-1.24-.34c.91.46-.76-.19.07.27,1.64.42,1.86.35,3.48.81.39,0-.09-.17.3-.16,2.37.43,1.72.9,3.48,1.14.47,0,.7-.17,1.88.29l-.47.09c1.57.47.98-.04,2.6.57-.32,0-1.26-.29-1.03-.19,1.02.47.79.1,1.61.34l.12.24c1.69.46,3.58.86,5.46,1.35-.12.03-.46,0-.04.19,2.38.57,5.03,1.43,7.3,2.14l.93.02c.2.05.36.18.13.17.88.29.08-.11.52-.09.52.1.65.27.31.25,1.63.22,4.62.61,6.3,1.07h-.34c1.32.3,1.56-.2,2.78.13h-.24c2.9.47,6.15.28,8.43.39.39-.35,2.95-.24,3.04-.79,1.7-.16,1.26.11,3.63-.52.63-.2.79-.64,1.49-1.02l.13.23c.29-.23.57-.5.84-.74.22,0,.44,0,.66,0l.61-.45c-.27.14-.61.23-.61.14.96-.66,2.46-1.48,2.57-1.41.69-.65,1.31-1.38,1.88-2.13.04.12-.26.49-.47.82.82-1.31.43,0,1.13-1.26-.17.11-.06-.18-.09-.24.56-.45,1.47-1.82,1.79-3.01l.09.28c.44-1.02.71-2.21.7-3.44.05-1.25-.28-2.59-.87-3.75.32.9-.1.81-.43.17.04-.13.08-.27.12-.4-.4-.32.29.72-.4,0-.49-.78-.09-.73.32-.31-.25-.32-.52-.62-.81-.89.02-.12.24.07.38.05-.23-.14-.53-.58-.96-.99-.42-.4-.97-.75-1.39-.74l-.03-.11c-.67-.28-1.29-.38-1.84-.41-.28,0-.55,0-.81.01-.26.04-.51.09-.75.13-.96.25-1.81.7-2.65,1.48.15.21-.53.8-.65,1.47-.44.64-.82,1.38-1.01,2.25-.19.86-.18,1.86.18,2.81.71,1.23.38.29.79.75-.08.1.11.51.27.82.17.3.27.5-.09.18.67.86,1.22,1.34,1.83,1.78.62.43,1.33.84,2.53,1.3-.21-.21-.46-.39-.28-.39.43.17.9.54.79.62l-.12-.02c2.71.8,5.94,2.73,8.25,2.64h-.13c.77.07,1.53.1,2.3.13,1.03.2-.65.09.09.37,2.49-.04,3.85.56,5.89.47,1.5.9,5.52.3,7.61.82l-.12-.18c.55-.16.65.11,1.05.16-.05-.14-.59-.17-.25-.26,4.59-.13,9.48.21,14.19.12,1.72-.06.92-.97,3.11-.68l-.59.36c3.43-.65,7.08-.7,10.42-1.36-.19.1-.19.19-.52.23.74.16,2.65-.26,2.63-.46.53-.05.14.16.48.21.73.04,1.75-.53,2.15-.35.07.03-.19.1-.32.14.45-.17,2.17-.27,1.69-.47,1.28-.05,2.4-.47,3.44-.49.6-.4,2.23-.29,2.34-.77,0,.22.59.17,1.28-.04.69-.2,1.48-.63,1.81-.93-.19.25.71-.23.5.08.86-.47,1.56-1.05,1.3-1.13.89-.28,1.55-.94,2.09-1.51.54-.58.98-1.09,1.54-1.17.45-.49.87-.93,1.28-1.23.41-.3.8-.46,1.28-.5.99-.1,1.98.37,2.97,1.03-.16.14-.69-.24-1.18-.49-.49-.27-.97-.36-.99-.14.84.13,1.59.54,2.38.99.8.45,1.61,1.04,2.89,1.48.33.11.23.13,0,.12-.22-.02-.56-.09-.69-.1,1.34.46,2.76.46,3.97.08.61-.19,1.17-.46,1.67-.79.24-.15.5-.37.65-.48.17-.09.31-.23.5-.32,0,.03-.15.13-.26.24.23-.18.72-.2.62-.37l-.3.15c-.3-.04-.04-.26.36-.52.42-.2.97-.39,1.01-.44-.31.27.19.27.62.29.45.04.83.12.31.43.25-.03.57-.11.51-.23.38.04.49.12.11.23,1.39,0,.92-.23,2.19-.07-.02.08-.28.08-.42.16.66-.09,1.34-.14,2.41.14-.07.04.04.12-.28.06,1.85.33,3.25.28,5.22.99-.69.16.65.3.67.62l1.1.23-.39-.26c.94.29,1.84.34,2.61.7l-.73-.11,1.77.52-.96-.43c1,.17.01-.38,1.24.11-.26-.06.94.32,1.37.65h0c.49.08,1,.16,1.66.46.15.15-.25.24-.15.33.53-.06,2.2.72,2.85.7-.21-.02-.27.11-.22.16l.44-.03c.41.21.46.26.35.34,1.28.51-.29-.47,1.19.24-.13-.03-.08.02-.34-.05,1.51.64,3.01,1.01,4.38,1.64.32.4-1.25-.41-.86-.03,2.05.73,4.31,1.34,6.26,2.15l-.36-.17c.39-.21,1.4.72,2.46.95-.25-.07-.39.05-.31.04,1.34.55,2.79.97,4.91,1.57h-.28c.8.31,2.15.69,3.05.92.29,0,.8.13.51-.05,2.71,1.03,5.38.7,7.87,1.1-.3,0-.72.04-.48.05l2.16-.02c-.17-.11-.28-.07-.73-.16.27-.06.88-.08,1.41-.11-.96.1,0,.17.43.21-.07-.03.07-.07.04-.1,1.13.14.18-.2,1.71-.15l-.08.06c.57-.08,1.09-.19,1.7-.22.26.09-.6.1-.63.2.87-.08,1.68-.34,2.47-.36-.36.07-.88.17-1.25.22.86.04.96-.03,1.59-.1h-.06s1.46-.15,1.46-.15l-.38.02c1.04-.39,2.17-.46,3.57-.87-1.36.41-.21.13-.3.24.37-.04.93-.15.78-.09.65-.24,1.13-.23,2.05-.57.05.02.72-.18.58-.07.86-.25-.22.01-.15-.05.66-.21,1.44-.44,2.3-.68.86-.23,1.79-.51,2.7-.91,1.6-.63,1.89-.75,3.35-1.38.51-.17-.39.22-.39.22.81-.3,1.42-.55,2.17-.87-.15.07.01.02.25-.06.61-.25.39-.2,1.18-.54-.13.07-.29.17-.58.32.69-.33,1.39-.67,2.11-1.01.2-.07-.43.22-.68.35.81-.38,2.11-.99,2.35-1.12l-.53.23c.3-.14.16-.05-.06.05-.69.34-1.01.45-1.06.46l.52-.24c-.56.18-2.07.96-3.13,1.4l.42-.23-1.07.48c-.24.08-.41.11.11-.11-.78.27-.67.29-1.34.51-.07.02-.04,0,.02-.02l-.74.31c.14-.07-.14,0,.32-.17-1.35.5-2.16.84-2.69.97l.11-.04c-1.88.68-.16.12-1.55.69-.33.06-.68.1-1.02.13l-.17.13c-.2.06-.59.16-.53.11-.72.27.14,0-.28.17-.49.1-1.14.3-1.7.47-.57.15-1.05.25-1.17.21-.33.15.93-.17-.08.13-.33-.09-1.18.32-2.08.45.25-.15,1.09-.3.2-.17-.5.27-1.74.29-2.48.46,0,.06-.41.17-.97.25-.56.08-1.28.17-1.92.27.08-.02-2.4.17-3.59.18l.03-.03c-.22.16-1.45.16-2.34.22.03-.1.19-.14.68-.2l-.84.02c-.2.05-.46.07-1,.07l.21-.12c-.56-.02-1.12,0-1.72.01-.6-.03-1.24-.07-1.95-.17-.1.12,1.11.44-.42.41-.05-.08-.09-.19.31-.19-.13,0-.47.01-.73-.06.21-.01.41-.01.62-.04-.64-.13-.35.05-.87-.02.02-.1-.37-.12-.29-.19.13,0,.45.1.65.09-.58-.1-1.28-.26-1.5-.37.04.06-.02.14-.45.08-1.09-.21-.35-.2-.98-.38-.28.02-.96-.19-1.01-.04-.32-.08-.36-.17-.47-.24-.29-.04-.94-.19-1.44-.31-.5-.13-.86-.21-.57-.03l.14.05s-.06-.01-.09-.02h0s0,0,0,0c-1.87-.35-3.7-1.35-5.48-1.95l.02-.06c-1.07-.34-2.35-.87-3.15-1.04-.31-.12-.69-.4-.53-.41-.82-.27-.93-.24-2.05-.8.85.21-.24-.2.86.25-1.02-.46-1.22-.66-2.4-.93.44,0-.71-.51-1.22-.66l.69.4c-.57-.2-1.05-.4-1.54-.61l.35-.11c-2.03-1.11-4.03-1.04-5.49-2.11-.63-.05,1.13.55.55.55-.98-.4-1.89-1.11-2.2-1.23-1.32-.62-1.39-.12-2.79-.71.15.15.25.43-.85.15-.99-.36-1.11-.77-.46-.63.24.07.35.14.33.17.34.08.77.19.41-.04l-.16.04c-.47-.26-1.85-.71-1.48-.74-.79-.16-.37.04.18.27-1.25-.55-2.02-.66-3.34-1.15.2.11.36.28.15.21-1.94-.68-.92-.09-2.27-.41-.73-.34.36-.27-1.03-.5-.81-.3-.12-.29.24-.29-1.29-.13-2.32-.67-3.05-.84.23.01.46.03.69.06-.41-.04-.74-.1-1.08-.16l.35.26c-.39-.1-.73-.16-.71-.24-.43.06.26.37-.58.42-.52-.18-1.63-.09-1.8-.35,1.69.24-.16-.3,1.28-.18-.28-.01-.62-.05-1.03-.11-.06-.03.06-.05.18-.06-.82-.2-1.03-.12-1.23-.01-.21.12-.4.19-1.29.26.21-.15-.43-.29-.74-.18.75-.09.37.19-.26.42-1.18.13-1.23.44-1.8.73.23-.1.46-.21.69-.29-.15.23-.76.54-1.26.95-.11-.06.48-.41.24-.32-.24.33-.65.49-1.09.59-.45.1-.91.14-1.38.28-.45-.07-.07-.28-.44-.34-.5.11-.76-.02-1-.14-.24-.14-.46-.27-.99-.48.17.34.27.36-.56.08.59.33,1.17.56,1.75.63-.39.03-.79-.03-1.22-.12.53.3,1.17.32,1.5.38-.59.09-.54.01-.29.26-.37-.24-.75-.3-1.16-.45-.41-.14-.85-.33-1.2-.72l.33-.41c-.54-.53-1.15-.94-1.92-1.3-.78-.36-1.71-.65-2.94-.73.26.05.53.07.77.15-.17.07-.53.05-.96.05-.43.02-.93.1-1.27.29,0-.2-.5-.07-.84.02.04.04-.33.27-.67.57-.33.29-.63.63-.57.83l-.84.44c-1.27,1-1.01,1.62-2.32,2.48.26-.43-.37-.13.36-.84-.4.31-.8.51-.73.63-.3.07-1.06.95-1.57,1.01-.15.17-.12.39-.64.6-.07-.01-.03-.09-.03-.09.04.09-.78.43-.24.46-1.63.02-4.34,1.11-5.83.81-1.12.23-2.49.47-3.52.62.06-.07,0-.1.19-.1-1.45,0-.81.66-2.46.67-.87-.21.84-.27.31-.33-.31-.59-1.95.29-3.09.04l.26-.06c-.86-.13-2.01.45-3.39.54,0,0,.06-.06,0-.1-.9.42-2.67.71-3.98.94.39-.29.59-.19.32-.42-.59.1.2.39-.97.59-.39-.09-1.25-.16-1.39-.43.37-.03.74-.04,1.11-.09-.59-.29-1.44.1-2.03.08l.07-.16c-1.7.14-1.71.56-3.55.61l.2.11c-.99.43-.85-.18-1.84.15l-.32-.38c-.66.13-2.31.46-3.5.56.67-.31,2.06-.49,2.91-.7-.66.03-2.23.09-2.57.3.26-.04.59-.15.86-.1-.8.32-1.86.52-3.17.52.22-.77-3.42-.16-4.36-.79-2.32.26-4.58-.23-7.25-.35.91.66-.78-.04-.66.58-.63,0-.87-.03-.92-.08l-1.85-.54c-.43-.22.6-.08.56-.22-1.35-.18-.54-.3-1.42-.57.16.24-.5.25-1.26.08l1.05.41c-1.94.09-1.56-.7-3.49-.68l.62-.09c-.99-.03-3.53-.63-4.57-.41-.15-.11-.33-.32.09-.26-2.23-.6-5.16-.93-6.56-2.04l.21-.05c-.38-.15-.77-.1-1.11-.5.05-.03.21-.03.07-.14-.2-.06-1.01-.41-1.3-.85.14.07.28.13.43.18-.34-.37-.62-.68-.89-.99-.26-.3-.56-.64-.73-.86-.39-.5-.7-1.15-.65-2,.2.03.39-.33.62-.72.22-.4.53-.82.76-1.07l.03.05c.62-.76,1.29-1.18,2.09-1.39.81-.18,1.76-.1,2.63.48.37.55,1.04,1.41,1.36,2.58.35,1.11.2,2.52-.2,3.54.16-.3.28.13.21.54-.14.23-.21.6-.29.89-.11.28-.21.47-.35.35l.09-.17c-.49.2-.91,1.18-1.49,1.84l.27.41c-.99.68-2.03,1.75-3.15,2.61-1.11.86-2.22,1.53-2.93,1.52-.46.35-1.12.59-1.61.9l-.05-.23c-1.49.44-2.28.61-4.19,1l.37-.23c-1.08.17-1.29.87-2.34.98l-.34-.31c-1.96.16-3.92-.16-5.88,0,.04-.04.1-.13.42-.12-.93-.04-3.54-.56-3.26-.1.01-.27-2.02-.3-3.1-.38l.2-.17c-.94.1-.98.16-2.24-.02-.29-.09-.23-.21.16-.08-.96-.31-.8.02-1.97-.33l.47-.03c-1.01-.23-.94-.16-1.53-.14-.65-.07-1.9-.5-2.01-.7-.16.07-.75.07-1.32-.13-.06-.08.16-.06.27-.06-1.65-.54-2.55-.44-3.65-.91,0-.06-.08-.11-.17-.15,1.33.35,2.4.64,2.29.63.04-.16-1.02-.46-.11-.47-.89-.1-2.44-.23-3.47-.58-.05-.03-.09-.06-.12-.09h.11c-.24-.07-.46-.11-.67-.14-.33-.12-.53-.19-.85-.28-.09-.16-1.21-.4-1.75-.55,0,.17-.69-.04-.08.27-.08-.03.11,0,.46.1.08.02.18.04.23.05h-.04c.35.1.81.22,1.33.36-.45-.03-.91-.08-1.47-.34-.3.03-.64.05-.82.05-.67-.43-2.05-.93-2.21-1.11-1.66-.36-3.88-.97-4.99-.96-.48-.08-.52-.21-.68-.3.28.04.6.13.75.12-.95-.17-2.79-.66-3.05-.53-1.16-.36.71,0-.93-.36h.23c-1.57-.51-2.91-.67-4.29-.84-1.38-.16-2.79-.35-4.58-.74.25.05.37.08.42.11-4.11-.7-8.54-.78-12.64-.69-1.17.04-1.29.11-1.99.22l-.26-.04c-.4.07-.8.12-1.2.2-1.7.28-2.99.28-5.09.89l.28-.04c-.77.15-2.39.67-2.27.61-.08.03-.24.09-.54.17h-.03s-1.81.66-1.81.66c-1.38.57.2-.13-1.8.73-.66.34-1.52.78-1.78.91.27-.13.64-.32.77-.38l-.66.33c-.12.06-.64.3,1.01-.47.38-.19.76-.36,1.15-.52l.38-.14-.99.4c.58-.23.91-.37,1.31-.53.13-.05.28-.1.5-.18l1.16-.43c.15-.03-.52.2.27-.05.55-.2-.54.14.37-.17.58-.16.42-.08,1.1-.29.1-.01-.04.03-.31.11.6-.18,1.61-.44,1.92-.52.31-.05.83-.16,1.27-.26.44-.08.79-.13.77-.09.19-.04,1.08-.26,1.66-.32-1.03.23,2.15-.26,1.89-.09.38-.08,1.09-.15,1.86-.2.78-.04,1.63-.08,2.33-.11-.08.01-.23.03-.35.02.78.01,1.01.05,1.51.08.1-.12,1.31-.11,1.97-.16.95.15-.58.12-.29.24-.05-.11,1.66-.02,1.34-.12.73.12.63.08,1,.21.14-.15.68.02,1.29-.02,1.04.19.26.19,1.41.25.54.12-.49.06-.49.06Zm26.96,6h0c-.23-.06-.43-.11-.55-.14.12.03.28.07.56.14Zm2.25.63c-.27-.08-.61-.17-.98-.28-.06-.08.04-.12.27-.05-.13,0,.39.19.71.33Zm-4.44-2.47c.36.07.47.14.51.18-.17-.04-.37-.09-.63-.15-.01,0-.03,0-.05,0,.04-.02.09-.04.16-.04Z"/><path class="cls-2" d="m49.29,28.89c-.05,0-.08-.02-.15-.03.07.03.14.06.2.09.05,0,.1-.01.14-.02-.06-.02-.13-.03-.19-.05Z"/><path class="cls-2" d="m219.09,34.13l-.05-.02s.07.03.09.05c-.03-.02-.03-.02-.05-.03Z"/><polygon class="cls-2" points="86.54 32.99 86.51 32.93 86.34 33.07 86.54 32.99"/><path class="cls-2" d="m231.73,36.18s.07.02.17.03c0,0-.08-.02-.17-.03Z"/><path class="cls-2" d="m237.28,35.72l.79-.08c-.34.03-.59.06-.79.08Z"/><path class="cls-2" d="m241.5,35.02s.06-.04.07-.06h0s-.07.06-.07.06Z"/><path class="cls-2" d="m176.48,23.1s-.07.04-.1.07c-.22.17-.06.07.1-.07Z"/><path class="cls-2" d="m195.52,25.94c-.21-.03-.43-.06-.65-.11.33.13.6.22.65.11Z"/><path class="cls-2" d="m157.07,27.04h0s-.09.04-.13.07l.13-.07Z"/><path class="cls-2" d="m193.98,25.52c.33.16.61.24.89.3-.27-.11-.59-.24-.89-.3Z"/><path class="cls-2" d="m258.94,28.87l.19-.09s0,0,.02-.01l-.21.1Z"/><path class="cls-2" d="m259.15,28.78l.21-.1c-.09.04-.17.08-.21.1Z"/><path class="cls-2" d="m259.78,28.46c-.14.08-.29.14-.43.21.15-.07.34-.16.43-.21Z"/><path class="cls-2" d="m253.76,31.14l-.05.04s.05-.03.05-.04Z"/><path class="cls-2" d="m252.17,31.8c.38-.15.97-.35,1.49-.58l.04-.03c-.24.13-1.19.44-1.54.62Z"/><path class="cls-2" d="m245.27,33.72l1.39-.38c-.25.04-.58.09.05-.09-1.76.41.38-.04-1.43.47Z"/><path class="cls-2" d="m240.92,34.66c.75-.16-.02-.05.02-.08-.47.12-.59.15-.02.08Z"/><path class="cls-2" d="m209.73,30.52l.13-.13c-.56-.2-.03.06-.13.13Z"/><polygon class="cls-2" points="203.67 29.11 204.17 29.42 204.49 29.37 203.67 29.11"/><polygon class="cls-2" points="200.73 26.61 200.98 26.68 200.02 26.39 200.73 26.61"/><path class="cls-2" d="m150.28,26.61l.23.27c.38-.12.41-.47-.23-.27Z"/><path class="cls-2" d="m127.19,29.3c-.26-.15-.92-.22-1.32-.05.52,0,1.05.1,1.32.05Z"/><path class="cls-2" d="m90.33,27.7l.22-.38c-.17.21-.32.45-.51.65.1-.08.2-.17.28-.26Z"/></g></svg>