<?xml version="1.0" encoding="UTF-8"?><svg id="Layer_2" xmlns="http://www.w3.org/2000/svg" width="430.23" height="38.44" viewBox="0 0 430.23 38.44"><defs><style>.cls-1{fill:#a6443a;stroke-width:0px;}</style></defs><g id="Layer_1-2"><path class="cls-1" d="m430.11,22.7c.26-.07.11-.03-.6.17l-.51.15,1.11-.33Z"/><path class="cls-1" d="m425.29,24.07c-.84.24-1.81.54-1.26.4.85-.26,1-.3,1.93-.58.72-.21,1.25-.36,1.13-.32.26-.08,1.07-.31,1.5-.44-.96.28-2.11.61-3.35.96-.27.07-.01,0,.05-.03Z"/><path class="cls-1" d="m353.72,36.95h.47c-.13,0-.29,0-.47,0Z"/><path class="cls-1" d="m309.32,30.64c.33.1.47.12.5.1-.31-.08-.56-.14-.5-.1Z"/><path class="cls-1" d="m302.24,27.69c.15.07.27.13.41.19-.15-.09-.3-.17-.41-.19Z"/><path class="cls-1" d="m353.72,36.95l-1.21-.04c-.08.06.62.04,1.21.04Z"/><path class="cls-1" d="m415.62,26.87c.24-.07.44-.13.63-.19-.2.06-.39.11-.59.17-.01,0-.02.01-.04.02Z"/><path class="cls-1" d="m373.54,35.3l.36-.04c.1-.03.2-.06.29-.1l-.66.14Z"/><path class="cls-1" d="m388.61,32.87c-.34.06-.44.18-.56.25.18-.08.43-.14.73-.21,0-.02-.05-.03-.17-.04Z"/><path class="cls-1" d="m412.27,27.59l.41-.12c-.11.03-.29.08-.41.12Z"/><path class="cls-1" d="m362.67,36.35s-.08-.03-.14-.04c0,.02.06.03.14.04Z"/><path class="cls-1" d="m16.47,19.29s0,0,0,0c-.09.02-.11.03,0,0Z"/><polygon class="cls-1" points=".06 25.67 .27 25.54 .32 25.51 .06 25.67"/><path class="cls-1" d="m289.89,21.15s.03.02.05.04c.33.17.15.06-.05-.04Z"/><path class="cls-1" d="m170.63,29.29c1.36.56-2.38-.21-.3.55-.17-.15,2.03.01.3-.55Z"/><path class="cls-1" d="m415.24,26.97c-.2.05-.4.11-.6.17.28-.08.46-.13.6-.17Z"/><path class="cls-1" d="m170.33,29.84h0s.22.08.22.08c-.09-.03-.14-.05-.21-.08Z"/><path class="cls-1" d="m261.82,4.43c.06.06.18.12.31.18,0-.03-.07-.08-.31-.18Z"/><path class="cls-1" d="m282.77,17.04l-.46-.38c.18.16.33.28.46.38Z"/><path class="cls-1" d="m248.95,4.87c-.33.03-.45.02-.88.14.04,0,.09,0,.14,0,.15-.06.36-.13.74-.15Z"/><path class="cls-1" d="m236.19,8.28c.07,0,.17-.02.25-.03.12-.05.27-.1.39-.14l-.64.17Z"/><path class="cls-1" d="m55.72,21.3c-.27-.11-.43-.19-.56-.26.17.13-1.69-.3.56.26Z"/><path class="cls-1" d="m415.61,26.85c-.07.03-.18.06-.37.12.15-.04.28-.08.42-.12.04-.02.04-.02-.05,0Z"/><path class="cls-1" d="m248.8,7.03c-.67.11-1.33.24-2,.38.56-.11,1.29-.24,2-.38Z"/><path class="cls-1" d="m146.19,30.42l-.36.34c.15-.12.28-.23.36-.34Z"/><path class="cls-1" d="m240.93,9.02c-.38.02-.77.08-1.16.16-.08.05-.16.09-.21.14l1.37-.3Z"/><path class="cls-1" d="m55.16,21.03h0s0,0,0,0Z"/><path class="cls-1" d="m41.71,18.71c1.95.28.93,0,1.36-.02,2.34.3,1.07.26,1.85.44,1.45.21,2.59.28,3.67.48.08.04.28.09.03.07.77.1,1.9.34,3.07.57,1.16.26,2.35.54,3.25.67.13.04.19.08.22.1-.27-.15-.29-.24-.22-.29.86.21,1.62.31,1.92.49-.53-.14-.58-.11-.84-.14l.91.19c.77.36-1.24-.26-1.27-.15,1.77.39,3.84.82,5.17,1.24.24.24-3.14-.82-1.4-.18-.68-.21-1.37-.43-2.06-.62,1.53.65-1.26-.35.13.29,2.71.8,3.07.75,5.76,1.61.63.09-.16-.19.47-.1,3.89,1.01,2.89,1.34,5.77,2.03.76.12,1.12-.01,3.07.77l-.75-.03c2.59.89,1.58.2,4.26,1.25-.51-.08-2.07-.62-1.68-.46,1.71.76,1.29.31,2.64.76l.22.28c2.78.91,5.87,1.81,8.96,2.79-.19,0-.74-.11-.04.19,3.91,1.19,8.3,2.71,12.07,3.91l1.51.22c.34.09.61.25.23.2,1.47.47.11-.1.85,0,.85.21,1.09.41.54.33,2.67.56,7.62,1.45,10.43,2.09l-.56-.02c2.21.44,2.56-.06,4.6.37h-.4c2.41.32,4.98.43,7.41.38,2.43-.04,4.7-.24,6.59-.36.32-.25,1.53-.38,2.67-.65,1.15-.23,2.22-.57,2.3-.84,1.38-.27,1.87-.44,2.51-.58.32-.07.67-.19,1.16-.38.5-.19,1.17-.42,2.06-.87.97-.47,1.25-1.04,2.32-1.78l.17.2c.46-.38.88-.84,1.31-1.25.31-.11.65-.19.95-.32l.91-.85c-.39.3-.88.58-.87.47,1.46-1.24,3.56-3.07,3.69-3.03.24-.3.49-.59.73-.9l.67-.94c.46-.61.84-1.29,1.23-1.95.03.14-.36.81-.65,1.36,1.13-2.22.53-.19,1.5-2.27-.2.24-.06-.22-.08-.3.75-.87,1.81-3.26,2.27-5.12.04.14.06.27.08.41.48-1.67.86-3.5.85-5.41.1-1.9-.24-3.93-.9-5.82.36,1.4-.08,1.16-.45.09.04-.18.07-.35.11-.54-.45-.62.34,1.16-.43-.17-.58-1.33-.11-1.05.35-.31-.28-.54-.58-1.07-.93-1.57.02-.14.28.21.44.25-.27-.29-.61-1.01-1.12-1.72-.48-.72-1.18-1.38-1.74-1.6l-.03-.14c-1.8-1.27-3.51-1.62-5.02-1.53-1.52.1-2.96.6-4.35,1.7.06.13-.2.38-.51.74-.27.38-.69.81-.86,1.29-.78.93-1.38,2.07-1.85,3.32-.47,1.25-.72,2.66-.65,4.13.04.52.11.81.17.97.05.16.09.2.12.2.06,0,.1-.14.25.3-.14.1-.01.85.11,1.41.11.55.25.9-.12.2.65,1.73,1.31,2.58,2.04,3.56.77.93,1.7,1.9,3.42,3.13-.3-.37-.66-.73-.4-.62.6.46,1.31,1.13,1.16,1.16l-.18-.1c4,2.48,9.34,5.45,12.92,6.19l-.2-.04c1.22.33,2.43.66,3.65.97,1.63.59-1.05-.15.12.41,4,.86,6.15,1.97,9.51,2.46,1.19.67,3.49,1.12,5.93,1.4,2.45.25,5.01.37,6.82.56l-.21-.18c.92-.17,1.12.12,1.81.11-.1-.13-1.01-.11-.44-.23,3.91-.23,7.95-.88,11.84-2.18,3.88-1.32,7.53-3.2,10.92-5.2,2.47-1.47.91-1.64,4.18-3.19l-.69.82c4.64-3.42,10.03-5.94,14.98-8.56-.27.21-.24.3-.73.53,1.16-.29,3.98-1.78,3.93-1.95.81-.32.25.08.78-.04,1.14-.33,2.64-1.39,3.31-1.4.11,0-.28.19-.48.28.67-.39,3.37-1.23,2.59-1.22,2.01-.6,3.75-1.43,5.4-1.77.96-.61,3.48-.88,3.71-1.37-.03.43,3.62-.6,4.88-1.01-.41.21,1.14-.09.67.19,1.46-.28,2.8-.52,2.52-.71,1.39.07,2.74-.13,3.96-.23,1.22-.12,2.3-.11,3.03.27,4.34.13,8.24,1.59,11.73,3.57-.17.14-1.12-.42-2.07-.89-.94-.49-1.88-.86-1.89-.64,1.73.67,3.09,1.3,4.42,1.99,1.33.7,2.61,1.48,4.13,2.64.77.62-.56-.18-.87-.32,3.22,2.07,5.93,4.51,8.91,6.32-.03.02-.37-.15-.67-.33.56.39,1.29.94,1.32.76l-.58-.33c-.75-.82,2.56,1.08,2.73,1.03-.62-.11.07.39.69.86.61.47,1.18.85.22.65.41.2.93.42.91.27.56.37.7.54.05.3,2.16,1.17,1.49.59,3.41,1.7-.05.07-.46-.11-.7-.15,1.06.42,2.14.78,3.76,1.73-.12,0,.04.15-.45-.11,1.41.77,2.73,1.21,4.03,1.75,1.3.55,2.65,1.05,4.26,1.78-1.09-.08,1.06.56,1.13.91.59.23,1.21.4,1.81.59l-.67-.39c1.56.56,3.01.88,4.33,1.42-.41-.08-.8-.2-1.2-.29.98.35,1.98.61,2.97.91l-1.65-.63c1.65.36-.06-.4,2.02.33-.43-.11,1.57.51,2.36.91h0c.82.12,1.65.25,2.82.63.28.17-.33.23-.14.34.83.02,3.79.86,4.84.84-.34-.02-.39.12-.29.17l.7-.03c.74.22.84.28.7.36,2.26.48-.65-.46,2.01.19-.21-.02-.12.02-.56-.03,1.35.28,2.66.5,3.94.7,1.29.16,2.55.32,3.8.54.7.36-2.19-.25-1.38.08,3.62.49,7.53.58,11.04.88l-.65-.07c.51-.28,2.61.33,4.4.23-.44,0-.58.16-.46.13,1.21.08,2.44.11,3.83.07,1.39-.04,2.94-.04,4.76-.15l-.45.09c1.42.03,3.75-.02,5.28-.1.45-.1,1.33-.13.79-.21,4.76.17,8.99-.86,13.18-1.04-.5.06-1.18.21-.78.16l3.54-.51c-.29-.07-.47,0-1.23,0,.44-.12,1.44-.28,2.31-.41-1.58.3.04.17.73.12-.12-.01.11-.08.05-.11,1.87-.1.28-.25,2.82-.5l-.13.07c.94-.16,1.79-.39,2.81-.54.44.04-.99.22-1.04.32,1.42-.25,2.78-.67,4.08-.8-.6.15-1.47.28-2.07.42,1.43-.12,1.58-.17,2.63-.35l-.1.02,2.41-.41-.62.09c1.73-.57,3.6-.76,5.96-1.4-2.29.62-.37.16-.52.29.61-.1,1.55-.26,1.29-.18,1.11-.33,1.89-.37,3.45-.83.08.01,1.2-.27.96-.14,1.45-.36-.35.04-.24-.03,2.23-.61,5.3-1.15,8.49-2.08,2.74-.77,3.28-.92,5.82-1.64.87-.2-.69.25-.69.25,1.41-.34,2.45-.64,3.76-1.01-.26.08.01.02.42-.07,1.05-.29.69-.24,2.09-.6-.24.08-.56.18-1.04.34,1.23-.36,2.46-.72,3.74-1.09.35-.08-.77.24-1.22.38,1.44-.41,3.73-1.07,4.17-1.22l-.93.26c.53-.15.28-.06-.11.06-1.23.37-1.78.5-1.86.51l.91-.26c-.96.2-3.67,1.03-5.52,1.53l.75-.26-1.88.56c-.41.09-.69.13.22-.12-1.33.32-1.17.34-2.31.6-.13.03-.07,0,.04-.02l-1.29.36c.25-.08-.23,0,.57-.19-2.34.54-3.74,1.02-4.63,1.17l.19-.05c-3.23.82-.3.14-2.71.82l-1.68.22-.3.15c-.34.08-1,.22-.88.16-1.23.34.22-.02-.49.2-1.63.31-4.44,1.07-4.84,1-.57.19,1.56-.29-.16.14-.53-.05-1.99.47-3.49.7.44-.17,1.85-.43.35-.19-.86.33-2.89.54-4.14.82-.03.15-2.72.56-4.81.99.12-.07-3.98.6-5.96.82l.05-.03c-.36.21-2.39.48-3.87.72.05-.1.31-.18,1.1-.34-.46.06-.93.14-1.39.19-.32.09-.75.17-1.66.3l.33-.17c-1.85.24-3.72.6-6.12.73-.12.14,1.94.16-.59.5-.1-.06-.2-.17.46-.26-.22.03-.77.13-1.21.15l1-.22c-1.1.05-.56.16-1.43.22,0-.1-.65-.02-.53-.11.22-.03.77,0,1.1-.09-.99.07-2.18.09-2.58.04.09.05.01.14-.71.2-1.86.14-.65-.08-1.74-.05-.45.1-1.64.07-1.66.23-.55.02-.65-.05-.86-.08-.48.05-1.61.12-2.48.17-.87.03-1.48.07-.94.15h.25s-.1.01-.16.02h0s0,0,0,0c-3.17.25-6.59-.03-9.73-.08v-.06c-1.87,0-4.17-.14-5.51-.14-.55-.04-1.3-.22-1.05-.27-1.43-.06-1.6.01-3.65-.34,1.44.05-.48-.16,1.48.08-1.85-.27-2.25-.42-4.26-.47.69-.07-1.36-.42-2.24-.5l1.27.32c-.99-.12-1.85-.27-2.72-.41l.51-.16c-3.7-.87-6.85-.74-9.56-1.88-1.02-.06,1.99.58,1.07.57-.85-.21-1.7-.5-2.4-.76-.69-.28-1.24-.53-1.51-.6-2.26-.78-2.27-.19-4.63-1.05.28.18.5.5-1.32.02-1.67-.56-1.94-1.01-.86-.75.4.12.59.21.56.23.55.14,1.27.33.64.02l-.24.02c-.4-.18-1.17-.44-1.77-.67-.59-.25-1.01-.44-.72-.41-1.27-.37-.58-.05.32.33-1.03-.45-1.85-.75-2.68-1.05-.84-.29-1.67-.6-2.71-1.1.32.19.59.42.25.28-3.08-1.42-1.45-.39-3.58-1.27-1.12-.69.57-.12-1.57-1-1.23-.69-.16-.36.38-.19-.98-.37-1.86-.81-2.61-1.25-.74-.46-1.36-.9-1.88-1.2l1.01.45c-.6-.27-1.08-.53-1.56-.79l.46.47c-.55-.34-1.04-.6-.99-.66-.65-.2.29.53-.96.06-.71-.51-2.32-1.26-2.44-1.64,2.28,1.49-.12-.38,1.87.77-.39-.2-.86-.48-1.39-.85-.07-.08.11,0,.27.08-1.05-.77-1.34-.86-1.66-.94-.32-.08-.68-.11-1.79-.88.37.07-.36-.59-.74-.81.89.61.29.5-.6.04-1.36-1.07-1.61-.97-2.34-1.53.27.22.53.45.81.65-.38-.07-1.07-.6-2.07-1.28-.01-.16.93.59.62.29-1.24-.58-2.26-2.05-3.88-3.05-.64-.61.11-.29-.46-.81-1.83-1.1-1.71-1.56-3.66-2.71.41.55.54.56-.89-.16,1.05.64,2.08,1.31,3.1,2-.7-.38-1.39-.76-2.1-1.12.91.63,1.98,1.25,2.49,1.68-1-.53-.88-.5-.56-.05-1.04-1.15-2.53-1.61-3.89-2.74l.33-.42c-2.13-1.64-4.19-2.27-7.39-3.64.34.15.68.33,1.01.5-.51.02-2.01-.77-3.14-.95.15-.14-.51-.42-.97-.62.04.12-2.54-.52-2.91-.13-.51-.15-1.02-.26-1.53-.37-1.41-.12-2.22.03-3,.19-.78.17-1.53.35-2.86.47.78-.28-.45-.31,1.33-.61-.9.06-1.71.14-1.71.27-.54-.07-2.42.6-3.25.59-.35.16-.44.36-1.41.56-.11-.01-.02-.09-.02-.09.01.08-1.49.47-.6.47-2.81.02-7.34,2.01-9.74,2.3-1.82.67-3.98,1.52-5.62,2.17.08-.09-.03-.09.29-.19-2.32.72-1.19,1.04-3.8,1.92-1.42.26,1.28-.72.43-.49-.61-.45-3.02,1.39-4.85,1.84l.39-.22c-1.38.41-3.03,1.7-5.09,2.74,0,0,.07-.1-.03-.09-1.26,1.02-3.82,2.56-5.68,3.79.47-.57.8-.63.31-.63-.84.54.45.19-1.21,1.29-.62.22-1.9.87-2.21.74l1.59-1c-1.01.2-2.06,1.29-2.92,1.76l.02-.2c-2.4,1.55-2.22,1.92-4.87,3.46l.33-.06c-1.26,1.18-1.32.52-2.64,1.57l-.63-.11c-.92.61-3.26,2.08-5.11,2.82.95-.65,2.99-1.71,4.17-2.52-.96.51-3.31,1.57-3.77,1.95.39-.2.86-.49,1.28-.61-1.1.8-2.68,1.62-4.8,2.15.08-.43-1.27-.05-2.9.18-1.61.28-3.5.45-4.29.18-3.77.5-7.52-.16-11.88-.93,1.44.88-1.28-.23-1.13.42-1.03-.16-1.42-.28-1.5-.34-1.01-.34-2-.72-2.99-1.1-.68-.36.99.12.93-.04-2.19-.62-.86-.48-2.26-1.04.24.29-.85.09-2.07-.37.55.28,1.12.52,1.68.78-3.16-.59-2.49-1.26-5.65-1.96l1.03.14c-1.6-.39-5.77-1.99-7.45-2.12-.25-.17-.55-.46.14-.24-1.82-.73-3.88-1.43-5.73-2.3-1.85-.85-3.49-1.89-4.48-2.98l.31.08c-.54-.43-1.09-.62-1.57-1.36.08,0,.3.1.09-.13-.14-.12-.47-.43-.84-.81-.33-.4-.71-.87-.88-1.3.18.2.34.4.54.58-.23-.38-.41-.76-.61-1.1-.15-.34-.29-.66-.44-.97-.1-.33-.22-.64-.33-.94-.08-.32-.16-.63-.24-.94-.25-1.25-.33-2.53.04-4.02.1.03.23-.11.38-.36.17-.24.38-.58.57-.95.48-.71,1.03-1.55,1.53-1.96v.07c.32-.37.68-.62,1-.91.36-.2.68-.48,1.06-.59.7-.36,1.46-.41,2.23-.45,1.53.08,3.1.74,4.36,2.21.59,1.04,1.54,2.85,1.96,5.03.22,1.09.3,2.22.21,3.37-.01.28-.03.57-.04.85-.04.28-.09.55-.13.82-.09.53-.16,1.05-.32,1.52.21-.57.28.16.16.86-.28.89-.55,2.57-.81,2.3l.11-.31c-.25.28-.62.84-.92,1.52-.31.68-.75,1.42-1.1,2.08l.26.45c-1.3,1.53-2.89,3.57-4.59,5.26-1.7,1.67-3.44,3.01-4.54,3.31-.74.63-1.8,1.18-2.6,1.72l-.06-.23c-.61.26-1.14.5-1.64.71-.51.19-1,.36-1.5.55-1.01.35-2.12.71-3.72,1.11l.61-.32c-.9.23-1.44.51-1.97.77-.53.28-1.05.55-1.92.67l-.56-.26c-3.26.44-6.59.17-9.86.25.06-.04.16-.13.69-.11-1.55-.04-5.95-.79-5.45-.31,0-.28-3.38-.52-5.16-.79l.31-.14c-1.54-.04-1.6.01-3.69-.39-.48-.14-.39-.25.25-.05-1.61-.48-1.32-.11-3.26-.72l.77.07c-1.67-.44-1.55-.34-2.51-.44-1.07-.22-3.15-.91-3.35-1.15-.25.03-1.2-.1-2.16-.43-.11-.1.25-.03.44,0-2.73-.94-4.18-1.04-6.02-1.81-.02-.07-.14-.14-.29-.2,2.19.7,3.96,1.24,3.79,1.21.05-.16-1.72-.72-.24-.52-1.46-.3-3.97-.82-5.67-1.44-.08-.04-.16-.08-.21-.13l.18.04c-.39-.14-.75-.24-1.1-.33-.54-.2-.88-.33-1.41-.51-.16-.19-2-.72-2.88-1.02.02.18-1.12-.22-.09.26-.14-.06.17.04.76.22.13.04.29.09.38.11-.02,0-.04,0-.06,0,.58.19,1.33.43,2.19.71-.72-.14-1.47-.32-2.42-.72-.49-.05-1.02-.11-1.31-.15-1.13-.62-3.41-1.5-3.7-1.73-2.72-.8-6.37-1.98-8.16-2.25-.78-.21-.86-.35-1.14-.48.45.11.98.27,1.23.31-1.56-.41-4.58-1.35-5-1.27-1.93-.64,1.14.15-1.55-.59l.38.05c-2.6-.88-4.8-1.32-7.06-1.77-2.27-.42-4.6-.88-7.58-1.54.41.09.62.13.7.17-6.82-1.33-14.21-1.75-21.05-1.48-1.95.1-2.15.16-3.33.34l-.43-.02c-.67.11-1.34.19-2.01.31-2.83.5-4.96.65-8.44,1.76l.46-.1c-1.28.29-3.94,1.29-3.74,1.18-.12.05-.4.16-.88.32h-.04s-2.96,1.26-2.96,1.26c-2.23,1.11.33-.21-2.91,1.43-1.1.66-2.45,1.46-2.87,1.71.46-.27,1.1-.64,1.24-.73l-1.06.63c-.19.12-1.02.58,1.62-.91.61-.35,1.22-.71,1.86-1l.62-.29c-.53.26-1.07.5-1.59.78.92-.45,1.47-.72,2.12-1.04.18-.08.44-.2.8-.37.62-.3,1.27-.54,1.9-.82.24-.08-.85.37.44-.14.89-.38-.88.32.61-.3.95-.34.69-.2,1.8-.6.16-.04-.07.05-.52.2.99-.35,2.64-.88,3.17-1.02.51-.12,1.37-.35,2.09-.54.73-.16,1.32-.27,1.27-.22.32-.06,1.8-.47,2.76-.59-1.73.37,3.58-.56,3.14-.32.64-.1,1.81-.26,3.12-.35,1.3-.06,2.73-.18,3.89-.2-.13.01-.38.03-.59.03,1.3,0,1.68.04,2.52.06.17-.14,2.19-.08,3.29-.12,1.59.17-.97.11-.48.23-.08-.13,2.77.05,2.23-.06,1.21.16,1.05.11,1.67.26.23-.16,1.13.08,2.15.09,1.75.29.44.19,2.36.39.91.19-.81,0-.81,0Zm44.55,12h0c-.38-.12-.7-.22-.91-.29.19.06.45.14.91.29Zm3.71,1.2c-.45-.15-1.01-.33-1.61-.53-.11-.1.05-.12.42,0-.22-.03.65.29,1.19.52Zm-7.46-3.69c.59.17.78.26.85.32-.28-.08-.6-.18-1.03-.31-.02,0-.06,0-.08,0,.07-.01.14-.02.26,0Z"/><path class="cls-1" d="m81.38,28.09c-.09-.02-.13-.04-.25-.07.12.05.23.1.34.15.08,0,.16.01.22.02-.11-.03-.22-.07-.32-.1Z"/><path class="cls-1" d="m354.28,36.97h-.08c.07,0,.13,0,.17.02-.05-.01-.06-.01-.09-.02Z"/><polygon class="cls-1" points="142.69 33.22 142.65 33.17 142.38 33.4 142.69 33.22"/><path class="cls-1" d="m375.66,35.58s.12,0,.28-.01c-.01,0-.14,0-.28.01Z"/><path class="cls-1" d="m384.82,34.1l1.29-.21c-.56.09-.97.16-1.29.21Z"/><path class="cls-1" d="m391.81,32.75c.08-.03.11-.05.13-.07,0,0-.01,0-.01,0l-.11.07Z"/><path class="cls-1" d="m282.22,18.64c-.08-.05-.16-.11-.23-.15-.55-.34-.19-.1.23.15Z"/><path class="cls-1" d="m312.94,32.62c-.36-.05-.7-.13-1.07-.22.57.2,1.02.34,1.07.22Z"/><path class="cls-1" d="m249.02,6.99h0c-.08.01-.15.02-.22.04l.22-.04Z"/><path class="cls-1" d="m310.37,31.93c.56.22,1.05.36,1.5.47-.47-.16-1.02-.35-1.5-.47Z"/><path class="cls-1" d="m421.73,25.15l.33-.09s.01,0,.04-.01l-.37.11Z"/><path class="cls-1" d="m422.1,25.04l.37-.11c-.17.05-.31.09-.37.11Z"/><path class="cls-1" d="m423.24,24.7l-.77.23c.26-.08.58-.17.77-.23Z"/><path class="cls-1" d="m412.65,27.67l-.1.05c.06-.02.09-.03.1-.05Z"/><path class="cls-1" d="m409.88,28.41c.66-.17,1.67-.39,2.58-.66l.08-.04c-.42.15-2.05.5-2.67.7Z"/><path class="cls-1" d="m398.2,30.97l2.34-.52c-.42.07-.96.15.1-.1-2.97.59.62-.08-2.44.62Z"/><path class="cls-1" d="m390.91,32.46c1.26-.27-.03-.05.04-.08-.8.19-.99.24-.04.08Z"/><path class="cls-1" d="m337.54,36.33l.14-.15c-.99-.06-.02.06-.14.15Z"/><polygon class="cls-1" points="327.22 35.96 328.17 36.21 328.65 36.12 327.22 35.96"/><polygon class="cls-1" points="321.5 33.58 321.93 33.65 320.31 33.34 321.5 33.58"/><path class="cls-1" d="m238.35,7.33l.38.2c.63-.25.67-.62-.38-.2Z"/><path class="cls-1" d="m203.39,24.81c-.44.08-1.43.53-1.94.99.77-.41,1.58-.73,1.94-.99Z"/><path class="cls-1" d="m148.7,24.62c.14-.21.24-.45.35-.67-.22.42-.5.8-.77,1.19l.42-.52Z"/></g></svg>